<?xml version="1.0" encoding="UTF-8"?>
<svg id="Layer_2" data-name="Layer 2" xmlns="http://www.w3.org/2000/svg" xmlns:xlink="http://www.w3.org/1999/xlink" viewBox="0 0 1254.81 281.95">
  <defs>
    <style>
      .cls-1 {
        fill: none;
      }

      .cls-2 {
        fill: #c0fc04;
      }

      .cls-3 {
        clip-path: url(#clippath);
      }
    </style>
    <clipPath id="clippath">
      <rect class="cls-1" width="1254.81" height="281.95"/>
    </clipPath>
  </defs>
  <g id="edited-map">
    <g class="cls-3">
      <path class="cls-2" d="M640.72,281.4h-221.52c-6.9,0-12.49-5.59-12.49-12.49V12.49C406.71,5.59,412.3,0,419.2,0h44.55c6.9,0,12.49,5.59,12.49,12.49v186.88c0,6.9,5.59,12.49,12.49,12.49h151.98c6.9,0,12.49,5.59,12.49,12.49v44.55c0,6.9-5.59,12.49-12.49,12.49"/>
      <path class="cls-2" d="M640.72,209.67h-149.65c-6.9,0-12.49-5.59-12.49-12.49V12.49C478.58,5.59,484.17,0,491.07,0h44.55c6.9,0,12.49,5.59,12.49,12.49v115.14c0,6.9,5.59,12.49,12.49,12.49h80.11c6.9,0,12.49,5.59,12.49,12.49v44.55c0,6.9-5.59,12.49-12.49,12.49"/>
      <path class="cls-2" d="M1132.32,129.51l-21.53,21.53c-3.59,3.59-9.41,3.59-13,0l-111.35-111.35c-1.72-1.72-2.69-4.06-2.69-6.5V9.2c0-5.08-4.12-9.2-9.2-9.2h-51.15c-5.08,0-9.2,4.12-9.2,9.2v52.8c0,2.44.97,4.78,2.69,6.5l131.04,131.04c1.72,1.72,2.69,4.06,2.69,6.5v66.68c0,5.08,4.12,9.19,9.2,9.19h51.15c5.08,0,9.19-4.12,9.19-9.19v-47.82c0-8.19,9.91-12.29,15.7-6.5l46.71,46.71c1.72,1.72,2.69,4.06,2.69,6.5,0,5.08,4.12,9.2,9.2,9.2h51.15c5.08,0,9.2-4.12,9.2-9.2v-28.8c0-2.44-.97-4.78-2.69-6.5l-106.8-106.8c-3.59-3.59-9.41-3.59-13,0"/>
      <path class="cls-2" d="M675.31,9.19v59.36c0,.32-.26.58-.58.58-.16,0-.3-.06-.42-.17l-52.16-52.16c-1.72-1.72-2.69-4.06-2.69-6.5,0-5.08-4.12-9.2-9.19-9.2h-51.15c-5.08,0-9.2,4.12-9.2,9.2v28.8c0,2.44.97,4.78,2.69,6.5l93.07,93.07h14.28l-4.39,4.39v126.36c0,6.9,5.59,12.49,12.49,12.49h44.56c6.9,0,12.49-5.59,12.49-12.49v-92.38c0-3.32,1.32-6.49,3.66-8.83l12.43-12.42c2.34-2.34,3.66-5.52,3.66-8.84V9.19C744.85,4.12,740.74,0,735.66,0h-51.15c-5.08,0-9.2,4.12-9.2,9.2"/>
      <path class="cls-2" d="M404.37,190.52c0,6.9-5.59,12.49-12.49,12.49h-51.34c-27.17,0-53.56-5.33-78.41-15.85-23.99-10.14-45.52-24.66-64.01-43.15-18.49-18.49-33-40.02-43.15-64.01-8.78-20.77-13.95-42.6-15.41-65.07-.47-7.22,5.23-13.34,12.47-13.34h44.68c6.45,0,11.89,4.92,12.44,11.35,5.2,60.75,51.78,109.88,111.34,119.01,7.55,1.16,14.34-4.73,14.34-12.36V12.49C334.83,5.59,340.43,0,347.33,0h44.55c6.9,0,12.49,5.59,12.49,12.49v178.03Z"/>
      <path class="cls-2" d="M1043.53,281.66h-154.23c-1.27,0-2.49-.5-3.39-1.4l-56.12-56.12c-13.68-13.68-16.92-35.03-5.69-54.36.2-.36.46-.69.75-.98l47.73-47.72c.9-.9,2.12-1.4,3.39-1.4h37.89c2.65,0,4.79,2.15,4.79,4.79v59.96c0,2.64-2.14,4.79-4.79,4.79h-11.07l-4.79,4.79,16.72,16.72c.9.9,2.12,1.4,3.39,1.4h125.43c2.65,0,4.79,2.15,4.79,4.79v59.96c0,2.64-2.14,4.79-4.79,4.79"/>
      <path class="cls-2" d="M87.83,281.95H12.49C5.59,281.95,0,276.36,0,269.46V74.6C0,33.78,32.82.14,73.65.03c40.82-.11,74.07,33.06,74.07,73.86v29.19l92.48,92.48c2.34,2.34,3.66,5.52,3.66,8.83v30.29c0,6.9-5.59,12.49-12.49,12.49h-44.55c-6.9,0-12.49-5.59-12.49-12.49v-1.49c0-3.31-1.32-6.49-3.66-8.83l-92.49-92.48v-57.87c0-2.25-1.66-4.21-3.9-4.43-2.57-.24-4.73,1.78-4.73,4.3v126.03c0,6.9,5.59,12.49,12.49,12.49h5.8c6.9,0,12.49,5.59,12.49,12.49v44.55c0,6.9-5.59,12.49-12.49,12.49"/>
      <path class="cls-2" d="M804.23,281.91h-44.55c-6.9,0-12.49-5.59-12.49-12.49V75.21c0-3.32,1.32-6.49,3.66-8.84l53.86-53.86c13.43-13.43,34.24-16.79,53.28-6.3,1.03.56,1.97,1.27,2.79,2.1l53.82,53.82c2.34,2.34,3.66,5.52,3.66,8.83v33.44c0,6.9-5.59,12.49-12.49,12.49h-44.55c-6.9,0-12.49-5.59-12.49-12.49v-4.64c0-3.32-1.32-6.49-3.66-8.83l-1.39-1.38c-4.88-4.88-12.79-4.88-17.66,0l-5.63,5.63c-2.34,2.34-3.66,5.52-3.66,8.83v165.4c0,6.9-5.59,12.49-12.49,12.49"/>
      <path class="cls-2" d="M1144.38,53.68c-10.43,0-18.88-8.45-18.88-18.88s8.45-18.88,18.88-18.88,18.88,8.45,18.88,18.88-8.45,18.88-18.88,18.88M1174.12.03h-141.24c-4.24,0-7.68,3.44-7.68,7.68v64.61c0,2.06.83,4.03,2.3,5.48l71.49,71.19c3.01,2.95,7.83,2.93,10.8-.05l55.41-55.41c3-2.99,3-7.86,0-10.85-4.84-4.84-1.41-13.1,5.43-13.1h3.5c4.24,0,7.67-3.44,7.67-7.68V7.71c0-4.24-3.43-7.68-7.67-7.68"/>
      <path class="cls-2" d="M854.86,130.37c0,10.43-8.45,18.88-18.88,18.88s-18.88-8.45-18.88-18.88,8.46-18.88,18.88-18.88,18.88,8.45,18.88,18.88"/>
      <path class="cls-2" d="M275.92,38.45c21.24,0,38.45-17.21,38.45-38.45h-76.91c0,21.24,17.22,38.45,38.45,38.45"/>
    </g>
  </g>
</svg>