<?xml version="1.0" encoding="UTF-8"?>
<svg id="Layer_2" data-name="Layer 2" xmlns="http://www.w3.org/2000/svg" xmlns:xlink="http://www.w3.org/1999/xlink" viewBox="0 0 928.91 397.2">
  <defs>
    <style>
      .cls-1 {
        fill: none;
      }

      .cls-2 {
        fill: #c0fc04;
      }

      .cls-3 {
        clip-path: url(#clippath);
      }
    </style>
    <clipPath id="clippath">
      <rect class="cls-1" y="0" width="928.91" height="397.2"/>
    </clipPath>
  </defs>
  <g id="edited-map">
    <g class="cls-3">
      <path class="cls-2" d="M349.94,107.31c-6.24,17.25-14.3,37.31-20.97,54.78h41.38l-20.41-54.78ZM371.44,222.27v-8.84c15.82-1.56,16.34-3.73,13.48-11.27-3.16-8.8-6.8-18.42-10.49-28.26h-49.74c-2.6,7.15-15.41,40.38-18.09,48.23-4.42,13.04-2.6,14.95,16.03,16.77v8.84h-55.08v-8.84c16.59-2.08,18.51-2.73,26.61-22.23l55.45-136.27,10.92-2.17c14.51,37.74,29.29,75.4,43.81,113.06,7.11,18.33,9.4,20.41,26.69,22.15v8.84h-59.58Z"/>
      <path class="cls-2" d="M456.45,152.72c12.14,0,19.8-2.08,25.22-6.28,8.28-5.94,11.4-13.74,11.4-25.09,0-22.49-15.9-30.07-32.59-30.07-7.32,0-11.7,1.04-13.22,2.51-1.6,1.52-2.43,4.55-2.43,9.32v49.61h11.62ZM540.39,224.35c-3.68,0-7.45-.39-10.96-.78-14.43-1.08-24.62-5.37-35.02-19.67-7.67-10.35-15.64-23.31-22.06-33.49-3.81-5.72-7.32-7.72-17.16-7.72h-10.36v29.86c0,18.42,2.22,19.5,20.93,20.89v8.84h-62.7v-8.84c19.19-1.43,20.71-2.3,20.71-20.89v-81.6c0-18.76-2.22-19.41-20.71-20.67v-8.84h59.58c16.34,0,27.99,1.78,36.58,7.02,9.92,5.8,16.63,15.9,16.63,29.81,0,19.5-13.13,31.03-28.47,37.27,3.73,6.54,13.04,19.85,19.72,29.59,8.53,12.01,11.79,15.86,17.29,21.28,5.68,5.76,12.57,8.15,17.2,9.45l-1.21,8.49Z"/>
      <path class="cls-2" d="M506.89,176.95v-8.84c18.98-1.26,20.71-2.13,20.71-20.89v-36.01c0-18.8-1.91-19.67-20.71-20.92v-8.84h63.09v8.84c-18.85,1.43-20.93,2.12-20.93,20.92v36.01c0,18.81,2.08,19.63,20.93,20.89v8.84h-63.09Z"/>
      <path class="cls-2" d="M633.81,117.15c-4.2-16.55-9.75-29.25-29.94-29.25-17.25,0-22.92,12.18-22.92,22.92,0,13.39,9.71,20.81,27.52,28.9,20.28,9.45,40.56,20.11,40.56,43.81s-20.24,42.17-50.96,42.17c-13,0-26-3.17-35.92-7.15-1.74-5.72-4.85-22.36-6.54-35.27l9.31-2.25c5.03,18.16,15.6,34.58,37.44,34.58,16.12,0,25.13-9.27,25.13-23.88,0-15.82-11.48-23.74-29.68-32.41-18.24-8.88-37.26-19.8-37.26-42.73,0-21.54,17.77-38.35,47.75-38.35,13.87,0,25.61,3.25,31.02,4.28.87,7.63,1.91,16.81,3.82,33.16l-9.32,1.47Z"/>
      <path class="cls-2" d="M717.47,117.15c-4.2-16.55-9.75-29.25-29.94-29.25-17.25,0-22.92,12.18-22.92,22.92,0,13.39,9.71,20.81,27.52,28.9,20.28,9.45,40.56,20.11,40.56,43.81s-20.24,42.17-50.96,42.17c-13,0-26-3.17-35.92-7.15-1.74-5.72-4.85-22.36-6.54-35.27l9.32-2.25c5.02,18.16,15.6,34.58,37.44,34.58,16.12,0,25.13-9.27,25.13-23.88,0-15.82-11.49-23.74-29.68-32.41-18.25-8.88-37.27-19.8-37.27-42.73,0-21.54,17.77-38.35,47.75-38.35,13.87,0,25.61,3.25,31.03,4.28.86,7.63,1.91,16.81,3.81,33.16l-9.32,1.47Z"/>
      <path class="cls-2" d="M775.54,107.31c-6.24,17.25-14.3,37.31-20.97,54.78h41.38l-20.41-54.78ZM806.58,247.72v-8.84c15.82-1.56,16.34-3.73,13.48-11.27-3.16-8.79-16.35-43.87-20.03-53.71h-49.74c-2.6,7.15-5.5,14.91-8.19,22.75-4.42,13.04-2.6,14.95,16.03,16.77v8.84h-55.08v-8.84c16.6-2.09,18.51-2.73,26.61-22.23l45.54-110.81,10.92-2.16c14.51,37.74,38.84,100.85,53.35,138.5,7.11,18.33,9.4,20.42,26.69,22.15v8.84h-59.58Z"/>
      <path class="cls-2" d="M197.29,306.83c0,24.73-11.12,39.51-29.73,39.51-20.36,0-34.58-18.48-34.58-44.95s15.02-38.26,29.91-38.26c17.12,0,34.4,13.51,34.4,43.7M166.08,253.1c-34.88,0-53.14,26.12-53.14,51.93,0,29.35,22.16,51.48,51.54,51.48s52.66-22.28,52.66-52.98c0-28.74-21.95-50.42-51.07-50.42"/>
      <path class="cls-2" d="M201.79,257.29c12.61.82,18.22,3.34,19.33,11.92.69,6.76,1.1,16.9,1.1,37.92v83.76h10.89l88.12-110.37v49.66c0,18.98-.45,29.6-1.03,36.05-1.07,10.53-6.67,13.43-21.74,14.22v8.84h55.32v-8.84c-13.02-.74-18.26-3.82-19.41-13.39-.94-7.45-1.18-17.9-1.18-36.92v-46.41c0-13.69.41-14.04,3.93-18.98,3.89-5.07,9.67-6.71,19.21-7.45v-8.84h-34.32l-87.79,106.21v-47.53c0-21.02.57-31.03,1.35-37.01.94-9.4,6.8-11.91,22.36-12.82v-8.84h-56.14v8.84Z"/>
      <path class="cls-2" d="M511.27,231.85c-13.35.82-19.28,3.34-20.45,11.92-.74,6.76-1.17,42.34-1.17,63.36v83.76h-11.53l-93.25-110.37v49.66c0,18.98.48,29.6,1.09,36.05,1.12,10.53,7.06,13.43,23.01,14.22v8.84h-58.54v-8.84c13.78-.74,19.33-3.82,20.54-13.39,1-7.45,1.26-17.9,1.26-36.92v-46.41c0-13.7-.44-14.04-4.17-18.98-4.11-5.07-10.22-6.71-20.32-7.45v-8.84h36.31l92.91,106.21v-47.54c0-21.02-.61-56.47-1.43-62.45-1-9.4-7.19-11.91-23.66-12.82v-8.84h59.41v8.84Z"/>
      <path class="cls-2" d="M605.92,352.75c-1.3,7.19-6.8,30.55-8.62,36.53h-115.18v-8.83c22.41-1.17,23.23-3.3,23.23-20.71v-81.43c0-18.93-2.21-19.85-20.54-21.01v-8.84h73.41c13.08,0,24.65-.21,33.32-.43.21,4.2,1.26,19.06,2.29,34.02l-9.1,1.08c-2.13-7.72-4.81-14-7.19-17.51-3.12-4.72-7.24-6.41-21.28-6.41h-21.62c-7.59,0-8.02.48-8.02,7.11v44.07h23.01c18.85,0,19.76-1.17,22.7-17.98h9.32v47.24h-9.32c-3.16-16.81-5.07-17.77-22.75-17.77h-22.96v37.05c0,15.86,3.55,19.41,17.85,19.63h19.63c11.83,0,15.55-.74,20.67-6.54,3.6-3.68,8.66-12.91,11.87-20.97l9.27,1.74Z"/>
      <path class="cls-2" d="M733.38,349.85c-1.3,8.1-7.98,33.41-10.14,39.43h-125.95v-8.84c20.41-1.43,21.8-2.52,21.8-20.93v-81.33c0-18.25-1.65-19.68-21.06-20.89v-8.84h63.61v8.84c-19.41,1.21-21.1,2.08-21.1,20.89v80.9c0,11.83,1.04,15.55,6.8,17.68,2.82,1.74,10.96,1.95,20.93,1.95,14,0,36.72-1.13,41.88-6.54,4.38-4.24,10.14-14.82,13.91-24.22l9.32,1.91Z"/>
      <path class="cls-2" d="M814.42,349.85c-1.3,8.1-7.98,33.41-10.14,39.43h-108.55v-8.84c20.41-1.43,21.8-2.52,21.8-20.93v-81.33c0-18.25-1.65-19.68-21.06-20.89v-8.84h63.61v8.84c-19.41,1.21-21.1,2.08-21.1,20.89v80.9c0,11.83,1.04,15.55,6.8,17.68,2.81,1.74,10.96,1.95,20.93,1.95,14,0,19.32-1.13,24.48-6.54,4.38-4.24,10.14-14.82,13.91-24.22l9.32,1.91Z"/>
      <path class="cls-2" d="M928.9,222.18c-16.55,1.56-19.67,3.77-30.42,20.41-8.02,12.7-36.57,59.99-47.53,79.27-2.6,4.46-3.43,6.71-3.43,12.26v25.96c0,17.29,1.61,18.94,23.84,20.37v8.84h-68.08v-8.84c21.28-1.56,23.14-2.52,23.14-20.37v-25.7c0-4.33-1.04-5.76-4.68-12.39-8.97-15.47-16.51-28.43-27.87-46.72-8.79-13.87-10.96-16.46-26.91-17.98v-8.84h58.33v8.84c-16.99,2.16-15.6,5.16-11,12.87,8.57,14.43,17.55,30.64,27.16,46.54,8.32-14.35,41.04-69.61,46.93-80.66,5.33-10.14,4.33-12.13-13.3-13.87v-8.84h53.82v8.84Z"/>
      <path class="cls-2" d="M148.96,252.08c24.61,0,48.98-4.99,63.54-7.97,1.74-.36,3.32-.68,4.73-.96,5.64-10.64,14.41-35.15,19.82-53.81l-6.9-2.56c-19.55,37.6-37.72,56.68-78.16,56.68-29.11,0-55.3-11.25-73.73-31.66-19.1-21.15-29.19-50.67-29.19-85.38,0-29.53,8.51-56.25,23.94-75.24,17.43-21.44,43.05-32.78,74.09-32.78,15.95,0,29.8,2.5,41.18,7.45,17.41,7.94,28.34,22.46,36.1,48.18l6.71-1.47c-2.58-20.6-5.86-43.51-7.4-54.08-1.23-.25-2.55-.52-3.97-.8-13.29-2.71-35.52-7.24-60.56-7.24C73.74,10.43,16.33,60.28,16.33,134.47c0,56.64,41.5,117.6,132.63,117.6"/>
      <path class="cls-2" d="M132.62,397.2c24.61,0,48.98-4.99,63.54-7.97,1.74-.36,3.32-.68,4.73-.96,5.65-10.64,14.41-35.15,19.83-53.81l-6.9-2.56c-19.55,37.6-37.72,56.69-78.17,56.69-29.11,0-55.29-11.25-73.73-31.66-19.09-21.15-29.19-50.68-29.19-85.39,0-29.53,8.51-56.24,23.94-75.24,17.43-21.45,43.06-32.78,74.09-32.78,15.95,0,29.8,2.5,41.17,7.45,17.41,7.94,28.35,22.47,36.1,48.19l6.72-1.47c-2.58-20.6-5.86-43.52-7.4-54.08-1.23-.25-2.55-.52-3.97-.81-13.29-2.7-35.53-7.23-60.56-7.23C57.4,155.55,0,205.4,0,279.59,0,336.23,41.5,397.2,132.62,397.2"/>
      <path class="cls-2" d="M538.44,0c-20.29,0-36.8,16.5-36.8,36.79s16.5,36.8,36.8,36.8,36.79-16.5,36.79-36.8S558.73,0,538.44,0"/>
      <path class="cls-2" d="M330.46,119.43c-1.3,8.1-12.63,33.41-14.8,39.43h-108.55v-8.84c20.41-1.43,21.8-2.52,21.8-20.93v-23.92c0-18.24-1.65-19.67-21.06-20.88l-2.25-8.84h65.86v8.84c-19.41,1.21-21.1,2.08-21.1,20.88v23.48c0,11.83,1.04,15.56,6.8,17.68,2.82,1.74,10.96,1.95,20.93,1.95,14,0,19.33-1.13,24.49-6.54,4.37-4.24,14.8-14.82,18.57-24.22l9.32,1.91Z"/>
    </g>
  </g>
</svg>