<?xml version="1.0" encoding="UTF-8"?>
<svg id="Layer_2" data-name="Layer 2" xmlns="http://www.w3.org/2000/svg" xmlns:xlink="http://www.w3.org/1999/xlink" viewBox="0 0 658.67 417.69">
  <defs>
    <style>
      .cls-1 {
        fill: none;
      }

      .cls-2 {
        clip-path: url(#clippath-1);
      }

      .cls-3 {
        clip-path: url(#clippath-2);
      }

      .cls-4 {
        fill: #c0fc04;
      }

      .cls-5 {
        clip-path: url(#clippath);
      }
    </style>
    <clipPath id="clippath">
      <rect class="cls-1" y="0" width="658.67" height="417.69"/>
    </clipPath>
    <clipPath id="clippath-1">
      <rect class="cls-1" y="0" width="658.67" height="417.69"/>
    </clipPath>
    <clipPath id="clippath-2">
      <rect class="cls-1" y="0" width="658.67" height="417.69"/>
    </clipPath>
  </defs>
  <g id="edited-map">
    <polygon class="cls-4" points="40.55 0 40.55 200.85 188.94 200.85 188.94 166.86 81.23 166.86 81.23 112.64 174.92 112.64 174.92 79.22 81.23 79.22 81.23 34.28 188.1 34.28 188.1 0 40.55 0"/>
    <g class="cls-5">
      <path class="cls-4" d="M221.2,200.85l-49.93-144.11h38.71l23,74.72,6.45,23.04h.56c1.3-6.18,3.37-13.86,6.17-23.04l23.57-74.72h38.15l-50.22,144.11h-36.47Z"/>
    </g>
    <path class="cls-4" d="M309.57,200.85h38.16V56.74h-38.16v144.11ZM309.57,34.27h38.16V0h-38.16v34.27Z"/>
    <g class="cls-2">
      <path class="cls-4" d="M413.64,177.54c10.47,0,18.75-2.71,24.83-8.15,6.08-5.43,9.12-11.89,9.12-19.38v-21.63c-4.11,2.44-13,5.25-26.65,8.43-10.85,2.44-18.52,5.2-23,8.29-4.49,3.09-6.73,7.82-6.73,14.18,0,12.18,7.48,18.26,22.44,18.26M451.8,200.85c-1.87-2.43-3.37-7.77-4.49-16.01h-.56c-4.11,6.18-9.35,10.95-15.71,14.33-6.36,3.37-15.25,5.06-26.66,5.06-15.14,0-27.3-3.84-36.47-11.52-9.16-7.68-13.75-18.54-13.75-32.59s5.05-25.32,15.15-32.16c10.1-6.83,24.31-11.56,42.64-14.18,13.47-1.87,22.63-3.79,27.49-5.76,4.86-1.96,7.3-5.48,7.3-10.53s-2.06-9.41-6.17-12.5c-4.11-3.09-10.1-4.64-17.95-4.64-17.39,0-26.65,6.75-27.77,20.23h-33.95c.56-13.67,6.08-25,16.55-33.99,10.47-8.99,25.62-13.48,45.45-13.48,40.4,0,60.6,17.69,60.6,53.09v73.32c0,10.87,1.68,17.52,5.05,19.95v1.4h-36.75Z"/>
      <path class="cls-4" d="M528.1,56.75v19.66h.84c9.91-15.73,24.12-23.6,42.64-23.6,14.78,0,26.74,5.01,35.91,15.03,9.16,10.02,13.75,22.99,13.75,38.91v94.1h-38.15v-88.49c0-7.87-2.2-14.23-6.59-19.1-4.4-4.87-10.52-7.3-18.38-7.3-8.42,0-15.39,3.09-20.9,9.26-5.52,6.18-8.27,14.14-8.27,23.88v81.75h-38.15V56.75h37.31Z"/>
      <path class="cls-4" d="M96.5,417.69c-28.24,0-51.38-9.78-69.43-29.35C9.02,368.77,0,343.91,0,313.75s8.79-55.43,26.37-75.28c17.58-19.85,40.86-29.78,69.86-29.78,23.94,0,43.15,6.32,57.64,18.96,14.49,12.64,22.87,28.89,25.11,48.74h-40.4c-1.87-10.3-6.5-18.44-13.89-24.44-7.39-5.99-16.88-8.99-28.47-8.99-17.77,0-31.33,6.56-40.68,19.66-9.35,13.11-14.02,30.15-14.02,51.12s5,37.74,15.01,50.85c10.01,13.11,23.33,19.66,39.97,19.66,11.78,0,21.61-3.23,29.45-9.69,7.85-6.46,12.44-15.03,13.75-25.71h39.83c-1.13,18.92-8.51,34.74-22.16,47.47-15.15,14.24-35.44,21.35-60.88,21.35"/>
      <path class="cls-4" d="M224.42,212.63v75.56h.84c5.42-7.87,11.36-13.62,17.81-17.27,6.46-3.65,14.45-5.48,23.99-5.48,14.77,0,26.74,5.01,35.9,15.03,9.16,10.02,13.75,22.99,13.75,38.91v94.1h-38.15v-88.49c0-7.87-2.2-14.23-6.59-19.1-4.4-4.87-10.52-7.3-18.38-7.3-8.42,0-15.39,3.09-20.9,9.26-5.52,6.18-8.27,14.14-8.27,23.88v81.75h-38.16v-200.85h38.16Z"/>
      <path class="cls-4" d="M360.19,269.37v23.03h.84c4.49-8.43,9.44-14.65,14.87-18.68,5.42-4.02,12.25-6.04,20.48-6.04,3.93,0,6.92.37,8.98,1.12v33.43h-.84c-12.9-1.31-23.29,1.5-31.14,8.43-7.85,6.93-11.78,17.79-11.78,32.58v70.23h-38.16v-144.11h36.75Z"/>
    </g>
    <path class="cls-4" d="M410.69,413.48h38.15v-144.11h-38.15v144.11ZM410.69,246.9h38.15v-34.27h-38.15v34.27Z"/>
    <g class="cls-3">
      <path class="cls-4" d="M520.65,417.69c-20.57,0-36.66-4.54-48.25-13.62-11.6-9.09-17.95-21.49-19.07-37.22h35.35c2.43,15.92,12.9,23.88,31.42,23.88,8.42,0,14.91-1.5,19.5-4.5,4.58-2.99,6.87-7.02,6.87-12.08,0-1.87-.33-3.55-.98-5.06-.65-1.49-1.78-2.85-3.36-4.07-1.59-1.22-2.99-2.2-4.21-2.95-1.22-.75-3.33-1.5-6.31-2.25-2.99-.75-5.29-1.31-6.87-1.69-1.59-.37-4.31-.89-8.14-1.55-3.84-.65-6.5-1.16-8-1.54-7.85-1.5-14.26-3.04-19.22-4.64-4.96-1.59-10.15-3.94-15.57-7.02-5.43-3.09-9.5-7.3-12.2-12.64-2.71-5.34-4.07-11.75-4.07-19.25,0-14.98,5.47-26.41,16.41-34.27,10.94-7.86,25.01-11.8,42.22-11.8,18.52,0,33.05,4.26,43.62,12.78,10.56,8.52,16.6,20.18,18.1,34.98h-34.51c-1.49-14.05-10.75-21.07-27.77-21.07-7.67,0-13.7,1.4-18.09,4.21-4.4,2.81-6.6,6.75-6.6,11.8,0,1.68.33,3.23.98,4.64.65,1.4,1.78,2.62,3.37,3.65,1.59,1.03,3.13,1.87,4.63,2.53,1.49.66,3.65,1.31,6.45,1.97,2.81.66,5.23,1.22,7.3,1.68,2.06.47,4.86,1.03,8.42,1.68,3.55.66,6.35,1.17,8.42,1.55,5.98,1.32,10.89,2.48,14.72,3.51,3.84,1.04,8.28,2.72,13.32,5.06,5.05,2.35,9.02,4.97,11.92,7.87,2.9,2.9,5.42,6.83,7.58,11.8,2.15,4.97,3.23,10.72,3.23,17.28,0,14.23-5.57,25.52-16.69,33.85-11.13,8.33-25.77,12.5-43.9,12.5"/>
      <path class="cls-4" d="M575.91,294.65v-25.28h19.92v-44.95h37.31v44.95h24.68v25.28h-24.68v76.41c0,9.55,4.77,14.32,14.3,14.32l11.22-.28v28.09c-5.8.37-13.75.56-23.85.56-11.03,0-20.29-2.67-27.77-8.01-7.48-5.33-11.22-14.18-11.22-26.54v-84.56h-19.92Z"/>
    </g>
  </g>
</svg>