<?xml version="1.0" encoding="UTF-8"?>
<svg id="Layer_2" data-name="Layer 2" xmlns="http://www.w3.org/2000/svg" xmlns:xlink="http://www.w3.org/1999/xlink" viewBox="0 0 1061.54 452.79">
  <defs>
    <style>
      .cls-1 {
        fill: none;
      }

      .cls-2 {
        clip-path: url(#clippath-1);
      }

      .cls-3 {
        clip-path: url(#clippath-3);
      }

      .cls-4 {
        clip-path: url(#clippath-4);
      }

      .cls-5 {
        clip-path: url(#clippath-2);
      }

      .cls-6 {
        clip-path: url(#clippath-6);
      }

      .cls-7 {
        clip-path: url(#clippath-5);
      }

      .cls-8 {
        fill: #c0fc04;
      }

      .cls-9 {
        clip-path: url(#clippath);
      }
    </style>
    <clipPath id="clippath">
      <rect class="cls-1" y="0" width="1061.54" height="452.79"/>
    </clipPath>
    <clipPath id="clippath-1">
      <rect class="cls-1" y="0" width="1061.54" height="452.79"/>
    </clipPath>
    <clipPath id="clippath-2">
      <rect class="cls-1" y="0" width="1061.54" height="452.79"/>
    </clipPath>
    <clipPath id="clippath-3">
      <rect class="cls-1" y="0" width="1061.54" height="452.79"/>
    </clipPath>
    <clipPath id="clippath-4">
      <rect class="cls-1" y="0" width="1061.54" height="452.79"/>
    </clipPath>
    <clipPath id="clippath-5">
      <rect class="cls-1" y="0" width="1061.54" height="452.79"/>
    </clipPath>
    <clipPath id="clippath-6">
      <rect class="cls-1" y="0" width="1061.54" height="452.79"/>
    </clipPath>
  </defs>
  <g id="edited-map">
    <g class="cls-9">
      <path class="cls-8" d="M187.18,60.99c-8.15,7.35-18.88,14.69-31.32,22.93-10.3,6.68-21.24,12.69-31.54,17.58,10.3,17.58,20.39,30.05,39.69,30.05,21.03,0,35.83-15.8,35.83-36.5,0-13.58-4.72-24.92-12.66-34.06M85.91,103.95c8.8,0,19.74-3.12,31.76-8.24l-7.08-12.02c-10.3-17.81-22.31-23.6-35.4-23.6-10.94,0-23.6,5.12-23.6,20.48,0,16.91,17.38,23.37,34.33,23.37M180.53,0c10.09,3.11,23.82,13.58,23.82,30.5,0,10.24-5.58,19.36-15.02,28.49,9.87,11.13,15.88,24.49,15.88,39.62,0,28.27-19.31,41.62-36.48,41.62-20.81,0-33.47-14.47-47.2-37.62-13.3,5.79-25.96,9.35-35.83,9.35-18.67,0-36.04-11.57-36.04-31.39,0-17.58,11.37-28.49,26.39-28.49,13.95,0,26.39,10.91,38.41,32.05l6.01,10.46c9.87-4.68,20.39-10.46,30.47-16.91,12.23-8.01,22.96-15.14,30.89-22.26-13.73-12.69-34.33-20.26-55.78-22.49-4.72-.44-8.15-.44-9.02,10.24l-.64,8.68h-2.14V2.89h2.14l.86,8.9c1.07,11.35,4.5,11.8,9.87,13.13,22.1,5.57,42.48,15.13,56.86,28.72,9.23-8.68,14.59-17.59,14.59-28.27,0-11.8-9.44-19.81-18.67-22.92L180.53,0Z"/>
    </g>
    <rect class="cls-8" x="969.76" y="386.27" width="41.79" height="43.36"/>
    <rect class="cls-8" x="181.3" y="386.27" width="41.79" height="43.36"/>
    <g class="cls-2">
      <path class="cls-8" d="M613.54,221.49h0v39.1c40.71,0,73.72,34.24,73.72,76.48h37.69c0-63.83-49.87-115.57-111.4-115.57"/>
      <path class="cls-8" d="M724.94,337.22h-37.69c0,42.24-33,76.47-73.72,76.47v39.1c61.53,0,111.4-51.74,111.4-115.57"/>
      <path class="cls-8" d="M613.53,452.79h0v-39.1c-40.71,0-73.72-34.24-73.72-76.48h-37.69c0,63.83,49.87,115.57,111.4,115.57"/>
    </g>
    <rect class="cls-8" x="223.1" y="337.23" width="276.51" height="43.36"/>
    <rect class="cls-8" x="969.76" y="91.11" width="41.79" height="286.86"/>
    <rect class="cls-8" x="1019.75" y="155.59" width="41.79" height="43.36"/>
    <rect class="cls-8" x="539.82" y="138.52" width="74.01" height="198.55"/>
    <g class="cls-5">
      <path class="cls-8" d="M844.23,198.49v65.53c25.29,1.42,45.39,23.14,45.39,49.73s-20.09,48.32-45.39,49.73v66.15h110.63v-231.14h-110.63Z"/>
      <path class="cls-8" d="M263.11,164.8c0-42.24,33-76.48,73.72-76.48v-39.1c-61.53,0-111.41,51.74-111.41,115.57s49.88,115.57,111.41,115.57v-39.1c-40.72,0-73.72-34.24-73.72-76.47"/>
      <path class="cls-8" d="M448.33,165.07h0v-39.1c-61.43,0-111.24,51.58-111.4,115.27h37.69c.16-42.09,33.09-76.17,73.71-76.17"/>
      <path class="cls-8" d="M538.84,260.09c0,42.24-33,76.47-73.72,76.47s-73.72-34.24-73.72-76.47,33-76.48,73.72-76.48,73.72,34.24,73.72,76.48"/>
      <path class="cls-8" d="M111.4,341.18c-40.72,0-73.72-34.24-73.72-76.47s33-76.47,73.72-76.47c.88,0,1.75.03,2.63.07,1.23.05,2.45.12,3.66.23.01,0,.02,0,.02,0,1.2.11,2.4.24,3.58.41.02,0,.04,0,.06,0,1.17.17,2.34.35,3.49.57.03.01.06.02.09.02,1.14.22,2.27.46,3.39.74.05.01.09.02.14.03,1.11.27,2.2.57,3.29.9.06.02.12.03.18.05,1.07.33,2.13.67,3.18,1.04.08.03.15.06.23.08,1.03.36,2.06.76,3.06,1.17l.28.12c.99.41,1.97.84,2.94,1.29l.33.15c.95.45,1.88.91,2.8,1.4.13.07.25.13.38.2.9.49,1.79.98,2.67,1.5.14.08.29.17.43.26.86.51,1.7,1.04,2.53,1.59.16.11.32.21.48.32.81.54,1.61,1.09,2.4,1.67.17.13.34.25.52.38.76.56,1.51,1.14,2.26,1.74.19.15.38.31.57.46.71.58,1.42,1.18,2.11,1.79.2.18.4.36.61.54.66.6,1.32,1.21,1.97,1.84.22.21.43.42.64.63.62.62,1.23,1.24,1.82,1.87.23.24.45.48.67.72.57.62,1.14,1.25,1.69,1.9.24.27.46.55.69.82.53.64,1.04,1.27,1.55,1.91.24.31.47.62.7.93.48.64.96,1.27,1.42,1.92.24.34.48.69.71,1.03.44.64.87,1.28,1.29,1.92.24.38.46.76.7,1.14.39.64.78,1.27,1.16,1.92.24.41.46.83.69,1.24.35.64.7,1.27,1.03,1.91.23.45.45.9.67,1.36.31.62.62,1.25.91,1.89.22.49.43.98.64,1.46.27.62.54,1.25.8,1.88.21.52.4,1.04.6,1.56.23.62.48,1.24.69,1.87.19.55.36,1.11.55,1.67.2.61.4,1.22.59,1.84.17.59.33,1.18.49,1.77.16.6.33,1.2.48,1.81.15.63.29,1.27.43,1.9.13.59.27,1.17.38,1.75.13.68.24,1.37.35,2.05.09.56.2,1.11.28,1.67.11.73.18,1.48.27,2.21.06.53.14,1.04.19,1.58.08.83.13,1.67.18,2.5.03.45.07.89.09,1.34.07,1.29.1,2.59.1,3.89s-.03,2.6-.1,3.9c-.02.45-.06.89-.09,1.33-.06.84-.11,1.68-.18,2.5-.05.53-.13,1.05-.19,1.58-.09.74-.17,1.48-.27,2.21-.08.56-.19,1.12-.28,1.67-.12.69-.22,1.37-.35,2.05-.12.59-.25,1.17-.38,1.75-.14.64-.27,1.27-.43,1.9-.15.61-.32,1.21-.48,1.81-.16.59-.32,1.19-.49,1.78-.18.62-.39,1.23-.59,1.84-.18.56-.35,1.12-.55,1.67-.22.62-.46,1.24-.69,1.86-.2.52-.39,1.05-.6,1.56-.25.64-.53,1.25-.8,1.88-.22.49-.42.98-.64,1.46-.29.64-.6,1.27-.91,1.9-.22.45-.44.91-.67,1.35-.33.65-.68,1.28-1.03,1.91-.23.42-.45.83-.69,1.24-.38.65-.76,1.29-1.16,1.92-.23.38-.46.76-.7,1.14-.42.65-.85,1.29-1.28,1.92-.24.34-.47.69-.71,1.03-.46.65-.93,1.29-1.42,1.92-.23.31-.46.62-.7.93-.5.65-1.02,1.28-1.55,1.91-.23.27-.45.55-.69.83-.55.64-1.11,1.27-1.68,1.89-.23.24-.45.49-.67.73-.6.63-1.21,1.25-1.82,1.86-.22.22-.43.43-.65.64-.64.62-1.3,1.23-1.96,1.83-.2.18-.41.36-.61.55-.69.61-1.39,1.21-2.11,1.79-.19.16-.38.32-.57.47-.74.59-1.49,1.17-2.24,1.73-.18.13-.35.26-.53.39-.78.57-1.58,1.13-2.39,1.66-.15.11-.32.22-.48.33-.83.54-1.67,1.07-2.53,1.59l-.44.26c-.87.52-1.76,1.02-2.66,1.5-.13.07-.26.14-.39.2-.92.49-1.85.96-2.8,1.4-.11.06-.22.11-.34.16-.96.45-1.94.88-2.93,1.29-.09.04-.19.08-.28.12-1.01.41-2.03.8-3.06,1.17-.07.02-.15.05-.23.08-1.04.37-2.1.72-3.17,1.04-.07.02-.13.03-.19.06-1.09.32-2.18.62-3.28.9-.05,0-.1.02-.15.03-1.12.27-2.25.52-3.39.74-.03,0-.07.01-.1.02-1.16.22-2.32.41-3.49.58h-.06c-1.19.17-2.38.31-3.58.41h-.02c-1.22.11-2.44.18-3.66.23-.87.03-1.75.07-2.63.07M119.11,149.44c-2.55-.18-5.11-.3-7.71-.3C49.88,149.14,0,200.88,0,264.71s49.88,115.57,111.41,115.57c.88,0,1.75-.05,2.63-.07v.37h110.63v-231.14h-105.55Z"/>
    </g>
    <polygon class="cls-8" points="439.92 76.45 416.01 76.45 429.7 26.84 403.45 76.45 381.22 76.45 382.34 26.74 368.94 76.45 347.18 76.45 366.6 6.12 401.57 6.12 399.32 49.7 421.54 6.12 459.34 6.12 439.92 76.45"/>
    <g class="cls-3">
      <path class="cls-8" d="M478.28,54.17c-2.13,0-3.83.1-5.11.29-1.28.2-2.52.55-3.7,1.07-1.44.65-2.55,1.53-3.33,2.63-.78,1.11-1.17,2.33-1.17,3.7,0,1.49.5,2.68,1.5,3.55,1,.88,2.35,1.32,4.04,1.32,2.44,0,4.78-1.04,7.03-3.12,2.26-2.07,4.04-5.22,5.35-9.44h-4.59ZM509.97,41.43c0,.78-.15,1.95-.47,3.5-.32,1.56-.91,3.86-1.78,6.91l-4.12,14.69c-.44,1.55-.78,2.8-1.03,3.74-.25.94-.45,1.74-.61,2.38-.16.65-.28,1.25-.38,1.8-.09.55-.17,1.22-.24,1.99h-23.35c.19-1.23.33-2.19.43-2.87.09-.68.18-1.24.28-1.7.09-.45.18-.89.24-1.31.06-.42.19-1.02.38-1.8-1.44,1.69-2.88,3.11-4.32,4.28-1.44,1.17-2.98,2.09-4.64,2.77-1.66.68-3.41,1.17-5.26,1.46-1.84.29-3.89.44-6.14.44s-4.34-.24-6.28-.72c-1.94-.49-3.61-1.28-5.02-2.39-1.4-1.1-2.5-2.54-3.28-4.33-.78-1.78-1.17-3.94-1.17-6.47,0-2.85.58-5.28,1.74-7.3,1.16-2.01,2.7-3.66,4.64-4.96,1.93-1.29,4.14-2.32,6.61-3.06,2.47-.75,4.99-1.3,7.55-1.65,2.56-.36,5.09-.59,7.59-.68,2.5-.1,4.75-.15,6.75-.15h7.22l.56-1.56c.5-1.42.75-2.66.75-3.7,0-2.98-1.91-4.47-5.72-4.47-2.38,0-4.16.52-5.35,1.56-1.19,1.04-2.03,2.4-2.53,4.08h-22.78c.93-3.76,2.65-6.68,5.15-8.76,2.5-2.08,5.35-3.63,8.53-4.67,3.19-1.03,6.44-1.67,9.76-1.9,3.31-.23,6.22-.34,8.72-.34,3.38,0,6.7.18,9.98.54,3.28.36,6.22,1.07,8.82,2.14,2.59,1.07,4.7,2.6,6.33,4.57,1.63,1.98,2.44,4.62,2.44,7.93"/>
      <path class="cls-8" d="M552.26,46.59c-2-.58-3.91-.87-5.72-.87-2.44,0-4.75.47-6.94,1.41-2.19.94-4,2.25-5.43,3.94-1.25,1.43-2.28,3.01-3.1,4.76-.81,1.75-1.66,4.18-2.53,7.3l-3.66,13.33h-25.03l8.9-32.4c.56-1.95,1.05-3.65,1.45-5.1.41-1.46.77-2.82,1.08-4.09.32-1.27.6-2.49.85-3.7.25-1.19.5-2.51.75-3.94h24.76c-.25,1.69-.52,3.27-.8,4.76-.28,1.49-.74,3.37-1.36,5.64,3-3.83,5.93-6.55,8.77-8.18,2.85-1.62,6.11-2.43,9.8-2.43.62,0,1.28.05,1.97.15.69.09,1.19.21,1.5.34l-5.25,19.06Z"/>
    </g>
    <path class="cls-8" d="M598.68,50.28l7.03,26.17h-25.22l-6.38-27.82,16.04-21.4h27.57l-19.04,23.06ZM566.04,76.45h-25.5l19.97-70.33h25.5l-19.97,70.33Z"/>
    <polygon class="cls-8" points="757.24 76.45 702.29 76.45 721.71 6.12 748.8 6.12 733.52 61.37 761.37 61.37 757.24 76.45"/>
    <g class="cls-4">
      <path class="cls-8" d="M798.41,41.53c0-1.88-.51-3.34-1.55-4.38-1.03-1.03-2.48-1.56-4.36-1.56-2.5,0-4.52.8-6.05,2.38-1.53,1.59-2.83,4.17-3.89,7.74h15.28c.25-.91.41-1.65.47-2.24.06-.59.09-1.23.09-1.95M820.35,44.64c0,1.49-.17,3.16-.52,5.01-.34,1.85-.8,3.62-1.36,5.31h-38.44c-.5,1.88-.83,3.22-.98,4.04-.15.81-.24,1.64-.24,2.48,0,1.75.54,3.12,1.6,4.09,1.06.97,2.59,1.46,4.59,1.46,2.63,0,4.66-.55,6.1-1.65,1.44-1.11,2.59-3.02,3.47-5.74h22.79c-1.13,3.31-2.53,6.11-4.22,8.41-1.69,2.3-3.76,4.15-6.23,5.55-2.47,1.39-5.42,2.42-8.86,3.06-3.44.65-7.47.97-12.09.97-5.06,0-9.23-.34-12.47-1.02-3.26-.68-6.19-1.86-8.82-3.55-2.63-1.69-4.72-3.97-6.28-6.86-1.56-2.89-2.34-5.95-2.34-9.19,0-4.67,1.09-9.13,3.28-13.38,2.19-4.25,5.16-7.73,8.9-10.46,3.38-2.46,7.16-4.25,11.35-5.35,4.19-1.11,9-1.66,14.44-1.66,3.01,0,6.07.26,9.19.78,3.13.52,5.96,1.48,8.49,2.87,2.53,1.4,4.61,3.29,6.24,5.69,1.63,2.4,2.44,5.44,2.44,9.14"/>
      <path class="cls-8" d="M877.83,45.42c0,.33-.02.73-.04,1.22-.03.49-.08.99-.14,1.51h-23.91c.19-.91.36-1.8.51-2.65.16-.85.24-1.74.24-2.65,0-1.7-.49-3.03-1.45-3.98-.97-.95-2.33-1.42-4.08-1.42-2,0-3.63.62-4.88,1.86-1.25,1.23-2.4,3.42-3.47,6.54-.32.91-.67,2.02-1.08,3.32-.4,1.3-.8,2.64-1.17,4-.38,1.37-.69,2.72-.94,4.05-.25,1.34-.37,2.49-.37,3.47,0,1.69.47,3.03,1.4,4,.93.98,2.22,1.46,3.84,1.46,2.19,0,3.94-.73,5.26-2.19,1.31-1.46,2.59-4.07,3.84-7.83h25.22c-1.13,4.08-2.9,7.51-5.3,10.26-2.4,2.76-5.2,4.96-8.39,6.62-3.19,1.65-6.64,2.84-10.36,3.55-3.72.71-7.45,1.07-11.2,1.07-3.38,0-6.74-.33-10.08-.98-3.34-.65-6.35-1.8-9-3.45-2.66-1.65-4.83-3.84-6.52-6.57-1.69-2.73-2.53-6.2-2.53-10.41,0-5.38,1.12-9.97,3.37-13.77,2.26-3.79,5.17-6.9,8.77-9.34,3.6-2.43,7.6-4.2,12.01-5.3,4.41-1.11,8.77-1.65,13.08-1.65,3.07,0,6.22.25,9.47.77,3.25.52,6.2,1.49,8.86,2.92,2.66,1.42,4.83,3.39,6.52,5.88,1.69,2.5,2.53,5.73,2.53,9.68"/>
    </g>
    <path class="cls-8" d="M923.97,50.28l7.03,26.17h-25.23l-6.37-27.82,16.04-21.4h27.57l-19.04,23.06ZM891.34,76.45h-25.51l19.98-70.33h25.5l-19.97,70.33Z"/>
    <g class="cls-7">
      <path class="cls-8" d="M969.92,41.53c0-1.88-.51-3.34-1.55-4.38-1.03-1.03-2.48-1.56-4.36-1.56-2.5,0-4.52.8-6.05,2.38-1.53,1.59-2.83,4.17-3.89,7.74h15.28c.25-.91.41-1.65.47-2.24.06-.59.09-1.23.09-1.95M991.86,44.64c0,1.49-.17,3.16-.51,5.01-.35,1.85-.8,3.62-1.36,5.31h-38.45c-.5,1.88-.83,3.22-.98,4.04-.15.81-.23,1.64-.23,2.48,0,1.75.53,3.12,1.59,4.09,1.06.97,2.59,1.46,4.59,1.46,2.63,0,4.66-.55,6.1-1.65,1.44-1.11,2.59-3.02,3.47-5.74h22.79c-1.13,3.31-2.53,6.11-4.22,8.41-1.69,2.3-3.77,4.15-6.24,5.55-2.47,1.39-5.42,2.42-8.86,3.06-3.44.65-7.47.97-12.09.97-5.06,0-9.23-.34-12.47-1.02-3.25-.68-6.19-1.86-8.82-3.55-2.63-1.69-4.72-3.97-6.28-6.86-1.57-2.89-2.35-5.95-2.35-9.19,0-4.67,1.09-9.13,3.28-13.38,2.19-4.25,5.16-7.73,8.91-10.46,3.37-2.46,7.15-4.25,11.35-5.35,4.18-1.11,9-1.66,14.44-1.66,3,0,6.06.26,9.19.78,3.12.52,5.95,1.48,8.48,2.87,2.53,1.4,4.61,3.29,6.24,5.69,1.63,2.4,2.44,5.44,2.44,9.14"/>
    </g>
    <polygon class="cls-8" points="1009.21 95.13 981.74 95.13 997.11 74.02 986.05 27.23 1011.93 27.23 1013.61 57.48 1028.43 27.23 1054.97 27.23 1009.21 95.13"/>
    <polygon class="cls-8" points="620.54 64.19 694.58 64.19 703.08 34.64 629.04 34.64 620.54 64.19"/>
    <g class="cls-6">
      <path class="cls-8" d="M841.61,363.56c-26.52,0-48.02-22.3-48.02-49.81s21.5-49.81,48.02-49.81,48.01,22.3,48.01,49.81-21.5,49.81-48.01,49.81M841.61,198.18h0c-61.53,0-111.41,51.74-111.41,115.57h0c0,63.83,49.88,115.57,111.41,115.57s111.4-51.74,111.4-115.57h0c0-63.83-49.87-115.57-111.4-115.57"/>
    </g>
  </g>
</svg>