<?xml version="1.0" encoding="UTF-8"?>
<svg id="Layer_2" data-name="Layer 2" xmlns="http://www.w3.org/2000/svg" xmlns:xlink="http://www.w3.org/1999/xlink" viewBox="0 0 983.32 254.25">
  <defs>
    <style>
      .cls-1 {
        fill: none;
      }

      .cls-2 {
        fill: #c0fc04;
      }

      .cls-3 {
        clip-path: url(#clippath);
      }
    </style>
    <clipPath id="clippath">
      <rect class="cls-1" width="983.32" height="254.25"/>
    </clipPath>
  </defs>
  <g id="edited-map">
    <g class="cls-3">
      <path class="cls-2" d="M65.62,5.15c6.41,0,12.25.57,17.52,1.72,5.27,1.14,10.08,2.35,14.43,3.6,4.35,1.26,8.3,2.46,11.85,3.61,3.55,1.15,6.7,1.72,9.45,1.72,2.29,0,4.29-.51,6.01-1.55,1.72-1.03,3.49-3.14,5.32-6.36l3.78,1.03v73.52h-3.78c-1.38-12.14-4.35-22.5-8.93-31.09-4.58-8.59-9.96-15.63-16.15-21.13-6.19-5.5-12.95-9.56-20.27-12.2-7.33-2.63-14.55-3.95-21.64-3.95-11.23,0-21.02,3.15-29.38,9.45-8.37,6.31-12.55,15.64-12.55,28,0,7.56,1.55,14.09,4.64,19.58,3.09,5.5,6.98,10.31,11.68,14.43,4.69,4.12,9.73,7.62,15.11,10.48,5.38,2.86,10.36,5.32,14.95,7.39,11.45,5.27,22.16,10.54,32.12,15.8,9.96,5.28,18.61,11.06,25.94,17.35,7.33,6.3,13.17,13.52,17.52,21.64,4.35,8.14,6.53,17.7,6.53,28.69s-2.12,20.67-6.36,29.03c-4.24,8.36-9.85,15.41-16.84,21.13-6.99,5.73-15,10.02-24.05,12.89-9.05,2.86-18.38,4.29-28,4.29-6.87,0-13.12-.63-18.72-1.89-5.62-1.26-10.65-2.58-15.12-3.95-4.47-1.37-8.54-2.69-12.2-3.95-3.67-1.26-6.99-1.89-9.96-1.89-5.27,0-10.19,2.98-14.77,8.93l-3.43-.69v-81.43h4.12c.91,12.83,3.67,23.99,8.24,33.5,4.58,9.51,10.19,17.35,16.84,23.53,6.64,6.19,13.97,10.77,21.99,13.74,8.02,2.98,16.03,4.47,24.05,4.47,6.64,0,13-1.03,19.07-3.09,6.07-2.06,11.45-5.03,16.15-8.93,4.69-3.89,8.42-8.7,11.17-14.43,2.75-5.72,4.12-12.25,4.12-19.58,0-8.47-1.84-15.92-5.5-22.33-3.67-6.41-8.59-12.2-14.77-17.35-6.19-5.15-13.23-9.79-21.13-13.91-7.9-4.12-16.09-8.13-24.56-12.03-7.1-3.2-14.26-6.7-21.48-10.48-7.21-3.78-13.69-8.3-19.41-13.57-5.73-5.26-10.36-11.45-13.91-18.55C1.77,83.26,0,74.79,0,64.93s1.66-17.75,4.98-25.08c3.32-7.33,7.9-13.57,13.74-18.72,5.84-5.15,12.76-9.11,20.79-11.85,8.01-2.75,16.72-4.12,26.11-4.12"/>
      <path class="cls-2" d="M260.43,137.43c7.78,0,13-.74,15.64-2.23,2.63-1.48,3.95-4.75,3.95-9.79,0-8.7-2.86-15.81-8.59-21.3-5.73-5.5-13.4-8.24-23.02-8.24s-18.9,3.26-27.83,9.79c-8.93,6.53-15.01,17.13-18.21,31.78h58.06ZM177.97,170.41c0-14.89,2.18-27.66,6.53-38.31,4.34-10.65,10.01-19.35,17-26.11,6.99-6.76,14.83-11.74,23.54-14.95,8.7-3.2,17.4-4.81,26.11-4.81,16.95,0,30.52,4.98,40.71,14.95,10.19,9.96,15.29,23.31,15.29,40.02v1.72c0,1.61-.12,2.87-.34,3.78l-1.03,1.38h-104.1c-.23,1.6-.4,3.26-.52,4.98-.12,1.72-.17,3.61-.17,5.67,0,9.16,1.08,18.33,3.26,27.49,2.17,9.16,5.55,17.35,10.13,24.56,4.58,7.22,10.31,13.06,17.18,17.52,6.87,4.47,15.11,6.7,24.73,6.7,10.31,0,19.98-2.86,29.03-8.59,9.05-5.72,16.32-14.2,21.82-25.42l4.12,2.06c-6.64,17.18-16.03,30.01-28.17,38.48-12.14,8.48-24.73,12.71-37.79,12.71-8.48,0-16.78-1.78-24.91-5.32-8.13-3.55-15.35-8.82-21.64-15.81-6.3-6.99-11.34-15.68-15.12-26.11-3.78-10.42-5.67-22.62-5.67-36.59"/>
      <path class="cls-2" d="M416.41,137.43c7.78,0,13-.74,15.64-2.23,2.63-1.48,3.95-4.75,3.95-9.79,0-8.7-2.86-15.81-8.59-21.3-5.73-5.5-13.4-8.24-23.02-8.24s-18.9,3.26-27.83,9.79c-8.93,6.53-15.01,17.13-18.21,31.78h58.06ZM333.96,170.41c0-14.89,2.18-27.66,6.53-38.31,4.34-10.65,10.02-19.35,17-26.11,6.99-6.76,14.83-11.74,23.54-14.95,8.7-3.2,17.4-4.81,26.11-4.81,16.95,0,30.52,4.98,40.71,14.95,10.19,9.96,15.29,23.31,15.29,40.02v1.72c0,1.61-.12,2.87-.34,3.78l-1.04,1.38h-104.1c-.23,1.6-.4,3.26-.52,4.98-.11,1.72-.17,3.61-.17,5.67,0,9.16,1.08,18.33,3.26,27.49,2.17,9.16,5.55,17.35,10.13,24.56,4.58,7.22,10.31,13.06,17.18,17.52,6.87,4.47,15.11,6.7,24.73,6.7,10.31,0,19.98-2.86,29.04-8.59,9.04-5.72,16.32-14.2,21.81-25.42l4.13,2.06c-6.65,17.18-16.04,30.01-28.18,38.48-12.14,8.48-24.73,12.71-37.79,12.71-8.48,0-16.78-1.78-24.91-5.32s-15.34-8.82-21.64-15.81c-6.3-6.99-11.34-15.68-15.12-26.11-3.78-10.42-5.67-22.62-5.67-36.59"/>
      <path class="cls-2" d="M486.5,89.67h29.21c0-10.53,1.89-21.13,5.67-31.78,3.78-10.65,9.05-20.27,15.81-28.86,6.75-8.59,14.89-15.58,24.39-20.96C571.08,2.69,581.45,0,592.67,0c8.7,0,14.83,1.44,18.38,4.3,3.55,2.86,5.32,5.9,5.32,9.1s-1.38,6.19-4.12,8.93c-2.75,2.75-6.41,4.13-11,4.13-2.52,0-4.93-.46-7.21-1.38-2.29-.91-4.64-1.89-7.04-2.92-2.4-1.03-4.93-2-7.56-2.92-2.64-.91-5.56-1.38-8.76-1.38-5.73,0-10.6,1.5-14.6,4.47-4.01,2.98-7.16,6.7-9.45,11.17-2.29,4.47-3.95,9.33-4.98,14.6-1.03,5.27-1.55,10.31-1.55,15.11s.11,9,.34,13.23c.23,4.24.34,8.65.34,13.23h37.45l-3.78,13.06h-33.67v128.5c0,9.39,9.96,14.43,29.89,15.12v4.47h-84.86v-4.47c19.92-.69,29.89-5.72,29.89-15.12V102.73h-32.98l3.78-13.06Z"/>
      <path class="cls-2" d="M676.5,137.43c7.78,0,13-.74,15.64-2.23,2.63-1.48,3.95-4.75,3.95-9.79,0-8.7-2.86-15.81-8.59-21.3-5.73-5.5-13.4-8.24-23.02-8.24s-18.9,3.26-27.83,9.79c-8.93,6.53-15.01,17.13-18.21,31.78h58.06ZM594.05,170.41c0-14.89,2.17-27.66,6.53-38.31,4.34-10.65,10.02-19.35,17-26.11,6.98-6.76,14.83-11.74,23.54-14.95,8.7-3.2,17.4-4.81,26.11-4.81,16.95,0,30.52,4.98,40.71,14.95,10.19,9.96,15.29,23.31,15.29,40.02v1.72c0,1.61-.12,2.87-.34,3.78l-1.03,1.38h-104.1c-.23,1.6-.4,3.26-.52,4.98-.12,1.72-.17,3.61-.17,5.67,0,9.16,1.08,18.33,3.26,27.49,2.17,9.16,5.55,17.35,10.13,24.56,4.58,7.22,10.31,13.06,17.18,17.52,6.87,4.47,15.11,6.7,24.73,6.7,10.31,0,19.98-2.86,29.03-8.59,9.05-5.72,16.32-14.2,21.82-25.42l4.12,2.06c-6.64,17.18-16.04,30.01-28.17,38.48-12.14,8.48-24.73,12.71-37.79,12.71-8.48,0-16.78-1.78-24.91-5.32-8.13-3.55-15.35-8.82-21.64-15.81-6.3-6.99-11.34-15.68-15.12-26.11-3.78-10.42-5.67-22.62-5.67-36.59"/>
      <path class="cls-2" d="M832.48,137.43c7.79,0,13-.74,15.64-2.23,2.63-1.48,3.95-4.75,3.95-9.79,0-8.7-2.86-15.81-8.59-21.3-5.73-5.5-13.4-8.24-23.02-8.24s-18.9,3.26-27.83,9.79c-8.93,6.53-15.01,17.13-18.21,31.78h58.06ZM750.03,170.41c0-14.89,2.18-27.66,6.53-38.31,4.34-10.65,10.02-19.35,17.01-26.11,6.98-6.76,14.83-11.74,23.53-14.95,8.7-3.2,17.4-4.81,26.11-4.81,16.95,0,30.52,4.98,40.71,14.95,10.19,9.96,15.29,23.31,15.29,40.02v1.72c0,1.61-.12,2.87-.34,3.78l-1.03,1.38h-104.11c-.23,1.6-.4,3.26-.52,4.98-.12,1.72-.17,3.61-.17,5.67,0,9.16,1.08,18.33,3.26,27.49,2.17,9.16,5.55,17.35,10.13,24.56,4.58,7.22,10.31,13.06,17.18,17.52,6.87,4.47,15.11,6.7,24.73,6.7,10.31,0,19.98-2.86,29.03-8.59,9.05-5.72,16.32-14.2,21.82-25.42l4.12,2.06c-6.64,17.18-16.03,30.01-28.17,38.48-12.14,8.48-24.74,12.71-37.79,12.71-8.48,0-16.78-1.78-24.91-5.32-8.14-3.55-15.35-8.82-21.65-15.81-6.3-6.99-11.34-15.68-15.12-26.11-3.78-10.42-5.67-22.62-5.67-36.59"/>
      <path class="cls-2" d="M898.45,250.81v-4.47c7.1-.46,12.65-1.14,16.66-2.06,4.01-.91,6.98-2.06,8.93-3.43,1.94-1.38,3.15-2.92,3.61-4.64.46-1.72.69-3.38.69-4.98V44.66c0-8.01-1.55-13.45-4.64-16.32-3.09-2.86-7.04-4.29-11.85-4.29-3.44,0-7.45.57-12.03,1.72l-1.38-4.47c5.96-2.06,11.17-3.96,15.63-5.67,4.47-1.72,8.71-3.38,12.71-4.98,4.01-1.6,7.91-3.26,11.68-4.98,3.78-1.72,7.96-3.61,12.54-5.67l2.4,1.03v230.19c0,1.61.23,3.26.69,4.98.46,1.72,1.66,3.26,3.61,4.64,1.94,1.37,4.92,2.52,8.93,3.43,4.01.92,9.56,1.61,16.66,2.06v4.47h-84.86Z"/>
    </g>
  </g>
</svg>