<?xml version="1.0" encoding="UTF-8"?>
<svg id="Layer_2" data-name="Layer 2" xmlns="http://www.w3.org/2000/svg" xmlns:xlink="http://www.w3.org/1999/xlink" viewBox="0 0 733.65 397.84">
  <defs>
    <style>
      .cls-1 {
        fill: none;
      }

      .cls-2 {
        fill: #c0fc04;
      }

      .cls-3 {
        clip-path: url(#clippath);
      }
    </style>
    <clipPath id="clippath">
      <rect class="cls-1" y="0" width="733.65" height="397.84"/>
    </clipPath>
  </defs>
  <g id="edited-map">
    <g class="cls-3">
      <path class="cls-2" d="M4.5,188.29c6.31,13.97,13.37,24.34,21.18,31.1,7.81,6.76,16.68,10.14,26.59,10.14,4.06,0,7.89-.6,11.49-1.8,3.6-1.2,6.76-2.93,9.47-5.18,2.71-2.26,4.8-4.96,6.31-8.11,1.5-3.16,2.25-6.61,2.25-10.36,0-4.51-1.54-8.83-4.62-12.96-3.09-4.13-7.17-8.26-12.28-12.39-5.11-4.13-10.93-8.41-17.46-12.85-6.54-4.43-13.26-9.13-20.17-14.08-7.36-5.26-12.96-10.62-16.79-16.12-3.83-5.48-5.75-11.6-5.75-18.36,0-6.16,1.13-11.83,3.38-17.01,2.26-5.18,5.37-9.61,9.36-13.3,3.98-3.68,8.75-6.57,14.31-8.68,5.56-2.1,11.64-3.16,18.25-3.16,4.51,0,8.3.38,11.38,1.13,3.08.75,5.86,1.58,8.34,2.48,2.48.9,4.77,1.73,6.87,2.48,2.1.75,4.51,1.13,7.21,1.13s4.06-1.05,4.06-3.16v-.9c0-.45-.08-.97-.22-1.58h4.5l5.18,46.43h-4.5c-4.36-13.52-10.33-23.51-17.92-29.98-7.59-6.46-15.96-9.69-25.12-9.69-3.6,0-6.95.64-10.03,1.91-3.08,1.28-5.75,3.04-8,5.3-2.26,2.25-4.02,4.84-5.3,7.77-1.28,2.93-1.91,6.05-1.91,9.35s.86,6.39,2.59,9.69c1.72,3.31,4.99,6.91,9.8,10.82,5.41,4.36,11.19,8.26,17.35,11.72,6.16,3.45,12.25,6.98,18.25,10.59,11.27,6.76,19.5,13.67,24.68,20.73,5.18,7.06,7.77,14.57,7.77,22.53,0,6.17-1.24,11.91-3.72,17.24-2.48,5.34-5.9,10-10.25,13.97-4.36,3.98-9.43,7.1-15.21,9.35-5.79,2.25-12.06,3.38-18.82,3.38-3.75,0-7.66-.34-11.72-1.01-4.06-.68-7.85-1.43-11.38-2.26-3.53-.82-6.62-1.58-9.24-2.25-2.63-.67-4.39-1.01-5.3-1.01-1.35,0-2.63.41-3.83,1.24-1.2.83-1.96,2.07-2.25,3.72h-4.51L0,188.29h4.5Z"/>
      <path class="cls-2" d="M112.22,234.26v-4.51h1.13c6.46,0,10.66-1.12,12.62-3.38,1.95-2.25,2.93-6.09,2.93-11.49v-118.98c0-3.3-1.2-5.56-3.6-6.76-2.41-1.2-5.79-1.8-10.14-1.8h-1.57v-4.51c6.01-1.2,12.09-2.71,18.25-4.51,6.16-1.8,11.79-3.52,16.9-5.18v141.74c0,5.41.97,9.24,2.93,11.49,1.95,2.26,6.16,3.38,12.62,3.38h1.13v4.51h-53.18Z"/>
      <path class="cls-2" d="M186.81,206.09c0,12.77,6.39,19.15,19.16,19.15,2.26,0,4.69-.45,7.32-1.35,2.63-.9,5.03-2.06,7.21-3.49,2.17-1.42,3.97-2.93,5.41-4.5,1.42-1.58,2.14-3.04,2.14-4.39v-38.99c-.6.3-1.28.56-2.03.79-.75.22-1.69.56-2.82,1.01-1.13.45-2.52,1.01-4.17,1.69-1.65.67-3.75,1.54-6.31,2.59-7.21,2.86-13.33,6.5-18.36,10.93-5.04,4.43-7.55,9.95-7.55,16.57M181.4,186.03c4.66-3.45,10.51-6.61,17.58-9.47,7.06-2.85,16.75-6.08,29.07-9.69v-12.17c0-8.56-1.84-14.34-5.52-17.35-3.68-3.01-8.23-4.51-13.63-4.51-1.8,0-3.72.15-5.75.45-2.03.3-3.91.87-5.63,1.69-1.73.82-3.16,1.88-4.28,3.16-1.13,1.28-1.69,2.89-1.69,4.84,0,.9.07,1.99.23,3.27.14,1.28.22,2.52.22,3.71,0,3.31-.79,6.13-2.37,8.45-1.58,2.33-4.25,3.49-8,3.49-3.31,0-5.71-1.05-7.21-3.16-1.5-2.1-2.26-4.73-2.26-7.89,0-4.06,1.2-7.62,3.61-10.7,2.4-3.08,5.44-5.67,9.13-7.77,3.68-2.1,7.85-3.68,12.51-4.73,4.65-1.05,9.24-1.58,13.74-1.58,6.91,0,12.73.9,17.46,2.71,4.73,1.8,8.53,4.36,11.38,7.66,2.85,3.31,4.88,7.32,6.09,12.06,1.2,4.73,1.8,10.03,1.8,15.89v50.7c0,1.95.34,4.13,1.02,6.54.67,2.4,2.51,3.6,5.52,3.6,1.65,0,3.15-.52,4.5-1.58,1.35-1.05,2.63-2.25,3.83-3.6l2.71,2.48c-2.86,4.36-6.16,7.78-9.92,10.25-3.75,2.48-8.26,3.72-13.52,3.72-4.05,0-7.29-1.62-9.69-4.84-2.41-3.23-3.68-6.58-3.83-10.03-5.26,3.91-10.89,7.36-16.9,10.36-6.01,3.01-12.47,4.51-19.38,4.51s-13.22-2.33-18.03-6.99c-4.81-4.65-7.21-10.59-7.21-17.8,0-4.81,1.09-9.32,3.27-13.52s5.9-8.26,11.15-12.17"/>
      <path class="cls-2" d="M255.99,128.34l36.06-2.25v75.94c0,5.41,1.54,10.17,4.62,14.31,3.08,4.13,8.07,6.2,14.98,6.2,4.66,0,9.24-1.39,13.75-4.17,4.51-2.78,7.96-6.12,10.36-10.03v-63.99c0-3.45-1.13-6.23-3.38-8.34-2.25-2.1-6.24-3.16-11.94-3.16h-.9v-4.51l36.05-2.25v85.63c0,3.16,1.13,5.67,3.38,7.54,2.26,1.88,6.54,2.82,12.85,2.82v4.51l-16,4.05c-3.01.75-6.2,1.66-9.58,2.71-3.38,1.05-6.35,2.1-8.9,3.16h-.9v-18.48c-6.91,7.06-12.85,11.91-17.8,14.53-4.96,2.63-10.14,3.95-15.55,3.95-9.62,0-17.17-2.4-22.65-7.21-5.49-4.81-8.22-11.49-8.22-20.06v-64.9c0-3.45-1.13-6.23-3.38-8.34-2.26-2.1-6.24-3.16-11.94-3.16h-.9v-4.51Z"/>
      <path class="cls-2" d="M375.2,154.03c0-4.36.9-8.26,2.71-11.72,1.8-3.45,4.2-6.38,7.21-8.79,3-2.4,6.54-4.24,10.59-5.52,4.05-1.28,8.41-1.92,13.07-1.92,3.31,0,6.87.6,10.7,1.8,3.83,1.2,7.25,1.8,10.25,1.8,2.55,0,4.05-1.2,4.5-3.6h4.06l.67,32h-4.05c-2.71-9.16-6.24-15.66-10.59-19.49-4.36-3.83-9.77-5.75-16.22-5.75-4.51,0-8.49,1.17-11.95,3.49-3.45,2.33-5.18,5.67-5.18,10.03s1.69,8.11,5.07,11.27c3.38,3.16,8.37,6.46,14.98,9.92,4.21,2.26,7.96,4.25,11.27,5.97,3.31,1.73,6.24,3.49,8.79,5.3,5.71,3.91,9.77,7.89,12.17,11.94,2.4,4.06,3.6,8.49,3.6,13.3s-.86,9.43-2.59,13.41-4.06,7.36-6.98,10.14c-2.93,2.78-6.39,4.96-10.37,6.54-3.98,1.58-8.3,2.37-12.96,2.37-2.86,0-5.79-.26-8.79-.79-3.01-.53-5.83-1.17-8.45-1.91-2.63-.75-4.96-1.39-6.98-1.92-2.03-.52-3.42-.79-4.17-.79-1.2,0-1.95.19-2.25.56-.3.37-.6,1.24-.9,2.59h-4.5l-1.58-35.38h5.41c.3,4.51,1.31,8.64,3.04,12.4s3.98,6.98,6.76,9.69c2.78,2.7,5.9,4.84,9.36,6.42,3.45,1.58,7.06,2.37,10.81,2.37,5.26,0,9.8-1.43,13.63-4.28,3.83-2.86,5.75-6.69,5.75-11.5,0-6.01-3.31-11.41-9.91-16.23-2.26-1.65-5.07-3.37-8.45-5.18-3.38-1.8-7.02-3.75-10.93-5.86-9.32-4.81-16.08-9.77-20.28-14.87-4.21-5.11-6.31-11.04-6.31-17.8"/>
      <path class="cls-2" d="M471.87,173.87c0,6.46.71,13,2.14,19.61,1.43,6.61,3.6,12.62,6.54,18.02,2.93,5.41,6.72,9.81,11.38,13.19,4.66,3.38,10.14,5.07,16.45,5.07,4.36,0,8.26-1.05,11.72-3.16,3.45-2.11,6.42-4.96,8.9-8.56,2.48-3.61,4.39-7.78,5.75-12.51,1.35-4.73,2.03-9.8,2.03-15.21,0-8.11-.72-15.7-2.14-22.76-1.43-7.06-3.57-13.15-6.42-18.25-2.86-5.11-6.43-9.13-10.7-12.06-4.28-2.93-9.36-4.39-15.21-4.39-9.47,0-16.9,3.64-22.31,10.93-5.41,7.29-8.11,17.31-8.11,30.09M504.1,126.09c8.41,0,15.96,1.24,22.65,3.72,6.69,2.48,12.36,6.12,17.01,10.93,4.65,4.81,8.26,10.63,10.82,17.46,2.55,6.83,3.83,14.69,3.83,23.54,0,7.66-1.39,14.84-4.17,21.52-2.78,6.69-6.62,12.47-11.49,17.35-4.88,4.88-10.63,8.75-17.24,11.6-6.62,2.86-13.74,4.28-21.41,4.28s-15.02-1.39-21.63-4.17c-6.62-2.78-12.32-6.65-17.13-11.61-4.81-4.96-8.53-10.78-11.15-17.46-2.63-6.68-3.94-13.86-3.94-21.52s1.39-14.87,4.17-21.63c2.78-6.76,6.61-12.65,11.49-17.69,4.88-5.03,10.59-9.01,17.13-11.94,6.54-2.93,13.55-4.39,21.07-4.39"/>
      <path class="cls-2" d="M589.73,126.09v17.58c4.51-3.75,8.49-6.8,11.94-9.13,3.45-2.33,6.54-4.09,9.24-5.29,2.71-1.2,5.18-2.03,7.43-2.48,2.26-.45,4.43-.67,6.54-.67,9.16,0,16.18,2.78,21.07,8.34,4.88,5.56,7.32,14.72,7.32,27.49v52.73c0,5.26.9,9.1,2.7,11.5,1.8,2.4,5.93,3.6,12.39,3.6h1.13v4.51h-52.73v-4.51h1.12c6.31,0,10.48-1.13,12.51-3.38,2.03-2.25,3.04-6.08,3.04-11.49v-52.96c0-7.66-1.84-13.22-5.52-16.68-3.68-3.45-8.45-5.18-14.31-5.18-4.66,0-8.94,1.13-12.85,3.38-3.9,2.26-7.58,4.89-11.04,7.89v63.55c0,5.41.97,9.24,2.93,11.49,1.95,2.26,6.16,3.38,12.62,3.38h1.13v4.51h-52.73v-4.51h1.13c6.16,0,10.21-1.13,12.17-3.38,1.95-2.25,2.93-6.08,2.93-11.49v-61.97c0-3.9-.98-6.87-2.93-8.9-1.95-2.03-5.71-3.04-11.26-3.04h-2.03v-4.51c6.31-1.05,12.43-2.55,18.37-4.51,5.93-1.95,11.83-3.9,17.69-5.86"/>
      <path class="cls-2" d="M30.2,244.6v-4.5h45.07l55.89,118.53,55.66-118.53h45.74v4.5h-.9c-8.72,0-14.61,1.62-17.69,4.85-3.09,3.23-4.62,8.83-4.62,16.79v99.15c0,5.11.3,9.28.9,12.51.6,3.24,1.73,5.79,3.38,7.66s3.98,3.2,6.98,3.94c3.01.75,6.99,1.28,11.94,1.58v4.51h-68.28v-4.51c3.9,0,7.21-.34,9.92-1.01,2.71-.68,4.96-1.88,6.76-3.6,1.8-1.73,3.12-4.09,3.94-7.1.82-3.01,1.24-6.91,1.24-11.72v-103.44h-.45l-59.49,131.38h-3.83l-59.94-126.2h-.45v92.85c0,5.86.22,10.62.68,14.31.45,3.68,1.42,6.53,2.93,8.56,1.5,2.03,3.68,3.45,6.54,4.28,2.85.83,6.69,1.39,11.49,1.69v4.51H30.2v-4.51c4.8-.3,8.6-.82,11.38-1.58,2.78-.75,4.96-2.18,6.54-4.28,1.58-2.11,2.59-5,3.04-8.68.45-3.68.68-8.6.68-14.76v-92.17c0-5.41-.41-9.72-1.24-12.96-.82-3.23-2.1-5.75-3.83-7.55-1.73-1.8-3.94-3.01-6.65-3.6-2.71-.6-6.01-.9-9.92-.9"/>
      <path class="cls-2" d="M249.9,367.42c0,12.77,6.39,19.16,19.16,19.16,2.25,0,4.69-.45,7.32-1.35,2.63-.9,5.03-2.07,7.21-3.49,2.18-1.42,3.98-2.93,5.41-4.51,1.42-1.57,2.14-3.04,2.14-4.39v-38.98c-.6.3-1.28.56-2.03.79-.75.22-1.69.56-2.82,1.01-1.13.45-2.52,1.01-4.17,1.69-1.65.68-3.76,1.54-6.31,2.59-7.21,2.86-13.34,6.51-18.37,10.93s-7.55,9.95-7.55,16.56M244.5,347.36c4.66-3.45,10.51-6.61,17.58-9.47,7.06-2.85,16.75-6.09,29.07-9.69v-12.17c0-8.56-1.84-14.34-5.52-17.35-3.68-3-8.22-4.5-13.63-4.5-1.8,0-3.72.15-5.75.45-2.03.3-3.9.86-5.63,1.69-1.73.83-3.16,1.88-4.28,3.16-1.13,1.28-1.69,2.9-1.69,4.85,0,.9.07,1.99.22,3.27.15,1.28.23,2.52.23,3.72,0,3.31-.79,6.12-2.37,8.45-1.57,2.33-4.24,3.49-8,3.49-3.31,0-5.71-1.05-7.21-3.16-1.5-2.1-2.26-4.73-2.26-7.89,0-4.05,1.2-7.62,3.61-10.7,2.4-3.08,5.44-5.67,9.13-7.77,3.68-2.1,7.84-3.67,12.51-4.73,4.65-1.05,9.24-1.58,13.74-1.58,6.91,0,12.73.9,17.46,2.7,4.73,1.8,8.53,4.36,11.38,7.66,2.86,3.31,4.88,7.32,6.09,12.06,1.2,4.73,1.8,10.03,1.8,15.89v50.7c0,1.96.34,4.13,1.02,6.54.67,2.41,2.51,3.61,5.52,3.61,1.65,0,3.16-.52,4.51-1.58,1.35-1.05,2.63-2.26,3.83-3.61l2.71,2.48c-2.86,4.36-6.16,7.77-9.92,10.25-3.76,2.48-8.26,3.71-13.52,3.71-4.06,0-7.29-1.61-9.69-4.84-2.41-3.23-3.68-6.57-3.83-10.03-5.26,3.91-10.9,7.36-16.9,10.37-6.01,3.01-12.47,4.5-19.38,4.5s-13.23-2.32-18.03-6.98c-4.81-4.65-7.21-10.59-7.21-17.8,0-4.81,1.09-9.32,3.27-13.52,2.18-4.2,5.89-8.26,11.15-12.17"/>
      <path class="cls-2" d="M323.59,395.59v-4.51h1.13c6.46,0,10.66-1.12,12.62-3.38,1.96-2.25,2.93-6.08,2.93-11.49v-118.98c0-3.3-1.2-5.56-3.6-6.76-2.41-1.2-5.79-1.8-10.14-1.8h-1.58v-4.51c6.01-1.2,12.09-2.71,18.25-4.5,6.16-1.81,11.79-3.53,16.9-5.19v141.74c0,5.41.98,9.24,2.93,11.49,1.95,2.26,6.16,3.38,12.62,3.38h1.12v4.51h-53.18Z"/>
      <path class="cls-2" d="M389.17,335.19c0,6.46.71,13,2.14,19.61,1.43,6.61,3.61,12.62,6.54,18.02,2.93,5.41,6.73,9.81,11.38,13.19,4.66,3.38,10.14,5.07,16.45,5.07,4.36,0,8.26-1.05,11.72-3.16,3.45-2.1,6.42-4.96,8.9-8.56,2.48-3.61,4.39-7.78,5.75-12.51,1.35-4.73,2.03-9.81,2.03-15.21,0-8.11-.71-15.7-2.14-22.76-1.43-7.06-3.57-13.15-6.42-18.25-2.86-5.11-6.43-9.13-10.7-12.06-4.28-2.93-9.36-4.39-15.21-4.39-9.47,0-16.9,3.64-22.31,10.93-5.41,7.29-8.11,17.32-8.11,30.09M421.4,287.42c8.41,0,15.96,1.24,22.65,3.72,6.69,2.48,12.36,6.12,17.01,10.93,4.65,4.81,8.26,10.63,10.82,17.46,2.55,6.84,3.83,14.69,3.83,23.54,0,7.66-1.39,14.84-4.17,21.52-2.78,6.69-6.61,12.47-11.49,17.35-4.88,4.88-10.63,8.75-17.24,11.6-6.62,2.86-13.74,4.28-21.41,4.28s-15.02-1.39-21.63-4.17c-6.62-2.78-12.32-6.65-17.13-11.61-4.81-4.96-8.53-10.78-11.15-17.46-2.63-6.68-3.94-13.86-3.94-21.52s1.39-14.87,4.17-21.63c2.78-6.76,6.61-12.65,11.5-17.69,4.88-5.03,10.59-9.01,17.12-11.94,6.54-2.93,13.55-4.39,21.07-4.39"/>
      <path class="cls-2" d="M502.52,287.42v17.58c4.51-3.75,8.49-6.79,11.95-9.13,3.45-2.32,6.53-4.09,9.24-5.29,2.71-1.2,5.18-2.03,7.43-2.48,2.26-.45,4.43-.67,6.54-.67,9.16,0,16.19,2.78,21.07,8.34,4.88,5.56,7.32,14.72,7.32,27.49v52.73c0,5.26.9,9.09,2.7,11.49,1.8,2.4,5.93,3.6,12.4,3.6h1.13v4.51h-52.73v-4.51h1.12c6.31,0,10.48-1.13,12.51-3.38,2.03-2.25,3.05-6.08,3.05-11.49v-52.96c0-7.66-1.84-13.22-5.52-16.68-3.68-3.45-8.45-5.18-14.31-5.18-4.66,0-8.94,1.13-12.85,3.38-3.91,2.25-7.59,4.88-11.04,7.88v63.55c0,5.41.97,9.24,2.93,11.49,1.95,2.26,6.16,3.38,12.62,3.38h1.12v4.51h-52.73v-4.51h1.13c6.16,0,10.21-1.13,12.17-3.38,1.95-2.25,2.93-6.08,2.93-11.49v-61.97c0-3.9-.98-6.87-2.93-8.9-1.95-2.03-5.71-3.04-11.26-3.04h-2.03v-4.51c6.31-1.05,12.43-2.55,18.37-4.51,5.94-1.95,11.83-3.9,17.69-5.86"/>
      <path class="cls-2" d="M590.63,323.7h51.38c0-9.61-1.99-16.93-5.97-21.97-3.98-5.03-10.11-7.55-18.37-7.55-3.6,0-7.02.87-10.25,2.59-3.23,1.73-6.08,3.98-8.56,6.76-2.48,2.79-4.47,5.94-5.97,9.47-1.5,3.53-2.25,7.1-2.25,10.7M573.05,346.68c0-7.51,1.05-14.83,3.16-21.97,2.1-7.14,5.26-13.45,9.46-18.93,4.21-5.48,9.39-9.92,15.55-13.3,6.16-3.38,13.37-5.07,21.63-5.07,5.86,0,11.3,1.05,16.34,3.16,5.03,2.11,9.35,5.07,12.96,8.9,3.6,3.83,6.42,8.38,8.45,13.63,2.03,5.26,3.04,11.04,3.04,17.35h-73.47v1.58c0,15.18,3.23,27.08,9.69,35.72,6.46,8.64,15.32,12.96,26.59,12.96,8.11,0,15.36-1.99,21.75-5.97,6.39-3.98,12.13-9.88,17.24-17.69l3.83,2.48c-5.71,12.17-12.81,21.6-21.29,28.28-8.49,6.69-17.39,10.03-26.71,10.03-7.36,0-14.01-1.24-19.94-3.72-5.94-2.48-11.01-5.97-15.21-10.48-4.21-4.5-7.44-9.88-9.69-16.11-2.25-6.23-3.38-13.18-3.38-20.84"/>
      <path class="cls-2" d="M670.7,96.91h-75.77v-53.21h12.59c46.56,0,64.61-5.94,77.43-43.71h48.7v396.2h-62.95V96.91Z"/>
    </g>
  </g>
</svg>