<?xml version="1.0" encoding="UTF-8"?>
<svg id="Layer_2" data-name="Layer 2" xmlns="http://www.w3.org/2000/svg" xmlns:xlink="http://www.w3.org/1999/xlink" viewBox="0 0 374.29 199.46">
  <defs>
    <style>
      .cls-1 {
        fill: none;
      }

      .cls-2 {
        fill: #1c1c1c;
      }

      .cls-3 {
        clip-path: url(#clippath);
      }
    </style>
    <clipPath id="clippath">
      <rect class="cls-1" y="0" width="374.29" height="199.46"/>
    </clipPath>
  </defs>
  <g id="edited-map">
    <g class="cls-3">
      <path class="cls-2" d="M109.12,32.57c.48,0,.48-.75,0-.75s-.48.75,0,.75"/>
      <path class="cls-2" d="M184.56,0c.19.48.29,1.03.59,1.43,5.13,6.96,9.22,14.53,12.84,22.35,1.81,3.9,3.35,7.93,5.1,12.11-3.25.15-6.27.35-9.29.41-6.32.12-12.64.24-18.96.24-3.03,0-6.05-.33-9.08-.46-1.1-.04-.81-.65-.58-1.2,1.31-3.16,2.6-6.33,3.97-9.46,3.37-7.73,7.69-14.92,12.42-21.88.78-1.15,1.5-2.35,2.25-3.53h.75Z"/>
      <path class="cls-2" d="M183.57,199.46c-.65-1.1-1.23-2.25-1.97-3.29-4.75-6.65-8.57-13.84-12.1-21.18-1.36-2.82-2.41-5.79-3.62-8.73,1.01-.13,1.96-.33,2.91-.36,5.76-.19,11.52-.4,17.28-.49,3.08-.05,6.18.1,9.26.24,2.16.1,4.31.33,6.64.51-1.02,2.52-1.97,4.98-3.01,7.4-3.6,8.35-8.06,16.22-13.19,23.71-.47.69-.81,1.46-1.21,2.19h-.99Z"/>
      <path class="cls-2" d="M271.46,95.82c2.55-.28,5.01-.65,7.48-.79,3.48-.2,6.85-.85,9.9-2.57,4.35-2.46,7.07-5.95,6.93-11.27-.07-2.72-1.26-4.63-3.59-5.82-3.2-1.64-6.61-1.68-10.13-1.31-3.98.42-7.99.55-11.99.79-1.8.11-3.61.15-5.41.27-.67.05-1.32.22-1.5,1.06-.31,1.48-.64,2.95-.99,4.41-1.29,5.32-2.59,10.63-3.88,15.95-.8,3.3-1.54,6.61-2.37,9.9-.17.69.07.79.6.73,4.17-.5,8.35-1.01,12.51-1.52.82-3.29,1.62-6.55,2.44-9.83M231.85,94.66c-.03-.08-.05-.17-.07-.25.46-.22.92-.42,1.37-.66,3.04-1.59,5.54-3.65,6.47-7.16,1.03-3.88-.14-7.76-4.7-8.92-2.57-.65-5.19-.71-7.87-.38-3.08.38-6.21.38-9.32.56-2.82.16-5.63.31-8.45.53-.29.02-.71.44-.81.76-.72,2.25-1.39,4.52-2.03,6.8-1.66,5.89-3.31,11.78-4.96,17.67-.93,3.31-1.86,6.62-2.84,10.12,1.44-.2,2.74-.4,4.05-.56,2.99-.35,5.98-.64,8.96-1.03.62-.08,1.1-.38,1.31-1.24.89-3.72,1.93-7.41,2.94-11.1.08-.3.33-.75.54-.78,1.3-.15,2.63-.4,3.91-.24,1.79.22,2.5.41,2.22,2.51-.25,1.82-.74,3.61-1.13,5.42-.3,1.38-.6,2.76-.94,4.34,4.4-.49,8.52-.95,12.64-1.41.92-.1,1.21-.75,1.4-1.54.72-3.08,1.44-6.16,2.18-9.23.5-2.1-.13-3.37-2.15-3.93-.87-.24-1.82-.2-2.73-.29M181.19,79.7c-1.93.14-3.57.26-5.2.38-2.44.17-4.89.35-7.33.49-3.31.19-6.63.37-9.95.48-.75.03-1.17.22-1.5.92-1.77,3.72-3.57,7.43-5.4,11.12-4.35,8.75-8.72,17.48-13.08,26.22-.19.39-.31.81-.52,1.38,1.94-.3,3.6-.6,5.28-.81,2.85-.36,5.71-.65,8.56-1.02.65-.08,1.19-.33,1.51-1.09.82-1.9,1.82-3.73,2.71-5.61.33-.71.86-.93,1.6-1.01,1.56-.18,3.11-.48,4.67-.67,1.35-.17,2.71-.25,3.99-.37-.15,2.46-.29,4.73-.43,7.07,4.8-.59,9.39-1.17,13.85-1.72.14-2.19.3-4.11.37-6.04.12-2.84.2-5.68.25-8.52.1-4.99.15-9.99.27-14.98.05-2,.22-3.99.35-6.23M108.2,106.7v-22.35c-.39-.02-.59-.05-.79-.04-3.19.16-6.39.3-9.58.54-.37.03-.85.54-1.03.94-.84,1.89-1.6,3.82-2.4,5.73-1.61,3.86-3.23,7.72-4.85,11.58-.77,1.84-1.56,3.67-2.34,5.5-.07-.02-.14-.04-.21-.06.14-7.64.28-15.29.43-23.08-4.02.26-8.03.52-12.17.79.13,2.49.3,4.74.36,7,.12,3.92.19,7.83.25,11.75.1,5.66.18,11.31.25,16.97.03,1.94,0,3.87,0,5.82,1.47-.08,2.81-.09,4.15-.23,2.65-.29,5.31-.6,7.95-1.01.66-.1,1.53.09,1.93-.89,1.34-3.33,2.75-6.62,4.13-9.93,1.13-2.69,2.27-5.38,3.4-8.07.27.36.31.7.33,1.03.09,1.3.15,2.61.26,3.92.31,3.65.69,7.29.96,10.95.12,1.59.36,1.8,1.96,1.46,1.42-.3,2.86-.5,4.3-.66,2.58-.29,5.18-.49,7.76-.78.25-.03.54-.4.66-.67,1.06-2.32,2.07-4.67,3.11-7,1.35-3.02,2.72-6.03,4.05-9.07,2.33-5.29,4.64-10.59,6.95-15.89,1.17-2.69,2.32-5.39,3.51-8.16-4.75.27-9.41.53-14.01.79-1.38,3.52-2.74,6.97-4.1,10.41-1.66,4.22-3.33,8.44-4.99,12.67-.08.02-.16.03-.24.03M7.72,153.77c11.08-21.64,22-42.96,33.02-64.49-1.71.1-3.21.13-4.69.27-1.97.2-3.93.52-5.91.72-3.6.36-7.21.68-10.82,1-2.07.18-4.15.31-6.22.51-3.32.31-6.63.68-9.95.97-1.02.09-2.06.01-3.16.01.22-.16.44-.35.69-.48,4.94-2.48,9.89-4.93,14.83-7.41,7.98-4,15.95-8.01,23.92-12.03,7.86-3.97,15.72-7.94,23.58-11.92,7.9-3.99,15.79-7.98,23.69-11.97,7.86-3.97,15.73-7.93,23.58-11.91,1.18-.6,2.31-1.29,3.48-1.9.38-.2.82-.27,1.39-.45-6.04,12.03-11.99,23.88-18.09,36.03,1.68-.11,3.12-.2,4.56-.29.37-.02.74-.03,1.11-.05,4.31-.17,8.62-.31,12.93-.51,2.82-.12,5.64-.35,8.46-.48,4.1-.19,8.21-.32,12.31-.51,2.86-.13,5.72-.34,8.58-.49,3.32-.18,6.63-.33,9.95-.5,3.24-.16,6.47-.33,9.7-.5,3.32-.17,6.63-.34,9.95-.5,3.65-.17,7.3-.32,10.95-.5,2.94-.15,5.89-.33,8.83-.49,3.23-.17,6.47-.34,9.7-.5,3.4-.17,6.8-.33,10.2-.5,3.15-.16,6.3-.34,9.46-.5,3.4-.17,6.8-.33,10.2-.5,3.48-.17,6.97-.32,10.45-.5,4.75-.24,9.49-.49,14.24-.75,2.99-.16,5.97-.35,8.96-.49,3.94-.18,7.88-.32,11.82-.51,2.86-.14,5.72-.34,8.58-.49,3.65-.18,7.3-.32,10.94-.51,2.95-.14,5.89-.33,8.83-.49,3.24-.17,6.47-.34,9.7-.5,3.4-.17,6.8-.33,10.2-.5,3.15-.16,6.3-.34,9.45-.5,3.4-.17,6.8-.32,10.2-.51.89-.05,1.77-.22,2.94-.37-7.1,14.05-14.1,27.88-21.24,41.99,1.48-.13,2.67-.23,3.87-.33,1.91-.16,3.81-.33,5.72-.49,4.7-.41,9.41-.85,14.11-1.23,1.84-.15,3.69-.14,5.53-.27,4.07-.31,8.12-.67,12.19-1,1.24-.1,2.47-.18,3.71-.26.03.11.06.21.09.32-34.08,15.03-68.15,30.06-102.23,45.09-.1-.07-.2-.15-.3-.22,3.21-8.28,6.41-16.56,9.73-25.12-1.02.14-1.8.25-2.59.35-3.77.5-7.54.97-11.3,1.5-4.52.63-9.02,1.36-13.54,1.97-4.17.56-8.37.95-12.54,1.52-3.67.5-7.33,1.18-11,1.71-2.81.4-5.63.64-8.44,1.02-2.64.36-5.26.85-7.9,1.22-2.77.38-5.55.64-8.32,1.02-3.24.44-6.48.96-9.72,1.42-2.12.3-4.26.53-6.39.82-1.96.26-3.92.56-5.88.83-2.2.3-4.41.58-6.61.89-3.41.47-6.8.97-10.21,1.44-2.09.29-4.18.54-6.26.82-2,.27-4,.55-6,.82-2.2.3-4.41.62-6.61.92-2.44.33-4.89.66-7.33.98-2.52.34-5.05.65-7.57,1.01-2.59.37-5.18.8-7.78,1.17-2.17.31-4.34.54-6.51.82-2.41.31-4.81.64-7.21.96-2.52.34-5.05.67-7.57,1.03-2.63.38-5.26.84-7.89,1.21-2.12.3-4.26.52-6.39.78-2.73.33-5.46.66-8.19,1.03-2.16.29-4.31.64-6.47.96-2.76.41-5.51.84-8.27,1.2-2.29.3-4.59.5-6.88.8-1.96.25-3.92.57-5.87.85-1.56.22-3.12.42-4.69.63-1.88.26-3.76.52-5.64.79-1.64.23-3.28.46-4.92.71-2.2.32-4.39.67-6.59.96-2.17.29-4.35.5-6.52.78-1.88.24-3.76.54-5.64.8-2.37.32-4.73.61-7.1.94-1.32.18-2.63.41-3.95.61-.39.06-.78.1-1.51.2"/>
      <path class="cls-2" d="M212.54,159.58c1.16-4.44,2.39-8.67,3.34-12.95,1.05-4.72,1.83-9.49,2.79-14.23.07-.32.55-.75.89-.8,2.91-.46,5.83-.89,8.75-1.26,2.37-.3,4.76-.49,7.14-.77,1.93-.22,3.85-.48,5.77-.75,2.11-.31,4.22-.67,6.33-.98,3.99-.59,7.98-1.2,11.98-1.73,3.05-.41,6.11-.7,9.44-1.08-1.27,3.61-2.36,7.09-3.71,10.46-1.48,3.7-3.11,7.35-4.86,10.92-2.82,5.77-6.33,11.13-10.13,16.3-.62.85-1.3,1.65-1.96,2.47-.54.68-1.2.91-2.09.7-5.05-1.19-10.1-2.41-15.18-3.46-3.82-.79-7.67-1.39-11.52-2-2.3-.36-4.63-.57-6.97-.85"/>
      <path class="cls-2" d="M255.81,168.46c1.29-1.82,2.58-3.56,3.76-5.36,1.97-3.01,3.86-6.08,5.83-9.1.32-.49.81-.97,1.33-1.21,2.78-1.29,5.61-2.49,8.41-3.74,5.5-2.44,11.01-4.88,16.5-7.35,2.8-1.26,5.54-2.65,8.34-3.9,3.82-1.71,7.69-3.33,11.52-5.04,2.95-1.31,5.88-2.69,8.81-4.03,1.09-.5,2.16-1.02,3.26-1.5.27-.12.61-.11,1.19-.2-.61,1.44-1.12,2.68-1.65,3.9-2.46,5.66-5.64,10.91-9.53,15.67-3.15,3.85-6.46,7.6-9.98,11.12-4.05,4.05-8.45,7.75-13.24,10.94-4.04,2.68-8.11,5.3-12.2,7.91-.29.19-.85.18-1.2.04-2.52-.99-4.99-2.1-7.52-3.05-4.29-1.61-8.61-3.12-12.92-4.68-.22-.08-.41-.22-.73-.4"/>
      <path class="cls-2" d="M158.61,139.89c17.36-2.35,34.5-4.67,51.86-7.02-.2,1.49-.28,2.77-.57,3.99-1.53,6.46-3.08,12.91-4.71,19.34-.63,2.49-.74,2.52-3.27,2.45-4.27-.12-8.54-.35-12.8-.48-4.41-.13-8.82-.26-13.24-.23-3.11.02-6.22.3-9.32.48-.65.04-1.29.12-1.93.25-1.05.22-1.46-.35-1.69-1.23-1.33-5.24-2.66-10.48-3.98-15.73-.14-.58-.23-1.17-.36-1.83"/>
      <path class="cls-2" d="M313.42,52.94c-2.15.2-3.99.43-5.84.51-3,.14-6.01.15-9.01.27-3.32.13-6.63.31-9.95.49-2.86.15-5.72.33-8.58.49-3.07.17-6.13.36-9.2.46-.39.01-.99-.36-1.17-.71-1.87-3.67-3.55-7.43-5.52-11.04-2.01-3.68-4.29-7.21-6.43-10.76,2.54-1.03,5.29-2.09,7.99-3.25,3.99-1.72,7.93-3.55,11.93-5.26.51-.22,1.34-.22,1.79.06,3.8,2.37,7.71,4.62,11.29,7.3,4.26,3.21,8.35,6.68,12.28,10.28,2.97,2.72,5.59,5.83,8.35,8.77.64.68,1.23,1.41,2.07,2.38"/>
      <path class="cls-2" d="M112.17,168.61c-2.61.92-5.2,1.76-7.73,2.74-3.72,1.43-7.4,2.95-11.1,4.43-.71.29-1.39.7-2.12.87-.43.1-1.03-.01-1.42-.26-3.71-2.32-7.5-4.53-11.04-7.08-3.6-2.59-7.01-5.45-10.37-8.35-2.75-2.37-5.3-4.98-8.15-7.69,2.89-.38,5.5-.72,8.1-1.07,2.8-.38,5.59-.8,8.39-1.18,2.73-.37,5.46-.7,8.18-1.06,2.4-.32,4.8-.66,7.2-.99,1.84-.25,3.74-.3,5.51-.8,2.12-.6,2.62.69,3.41,2.11,3.31,6,6.58,12.04,10.69,17.56.16.22.28.47.45.77"/>
      <path class="cls-2" d="M154.36,42.95c-.99,4.12-1.95,8.05-2.87,12-.45,1.95-.8,3.93-1.28,5.88-.08.33-.56.8-.87.82-2.63.14-5.26.18-7.89.28-3.94.15-7.87.32-11.81.5-3.19.15-6.38.32-9.57.5-2.69.15-5.39.33-8.08.49-.41.02-.82,0-1.57,0,4.2-8.87,8.31-17.54,12.45-26.27,10.42,3.42,20.99,4.63,31.49,5.8"/>
      <path class="cls-2" d="M194.19.61c19.92,4.02,36.34,13.69,50.34,28.43-11.13,3.03-22.23,4.87-33.42,6.2-4.07-12.35-9.82-23.64-16.92-34.62"/>
      <path class="cls-2" d="M107.89,146.79c14.35-1.96,28.51-3.89,42.75-5.83.62,2.74,1.18,5.43,1.85,8.1.8,3.18,1.63,6.34,2.56,9.48.23.79.13,1.03-.65,1.13-2.32.31-4.63.65-6.95.98-2.32.33-4.64.61-6.95,1.02-2.96.52-5.92,1.07-8.85,1.74-3.42.78-6.81,1.67-10.2,2.57-.76.2-1.14.18-1.66-.59-2.78-4.13-5.74-8.14-8.49-12.28-1.27-1.92-2.21-4.07-3.41-6.32"/>
      <path class="cls-2" d="M213.43,42.76c4.03-.66,7.98-1.24,11.9-1.97,4.86-.91,9.72-1.89,14.55-2.95,2.92-.64,5.8-1.45,8.66-2.32.8-.24,1.26-.14,1.65.46,2.34,3.57,4.74,7.11,6.94,10.76,1.44,2.39,2.58,4.95,3.84,7.44.24.47.41.97.67,1.56-3.86.16-7.63.3-11.39.47-3.28.15-6.55.33-9.83.5-3.19.16-6.39.33-9.58.5-3.27.17-6.55.33-9.83.5-1.06.06-2.11.22-3.17.21-.32,0-.85-.36-.93-.64-1.2-4.77-2.35-9.55-3.51-14.33-.02-.08.01-.16.01-.18"/>
      <path class="cls-2" d="M205.45,43.36c1.27,5.08,2.49,9.98,3.72,14.93-1.46.15-2.66.33-3.87.39-2.67.12-5.35.15-8.02.27-3.4.14-6.79.32-10.19.49-3.03.16-6.05.34-9.07.49-5.03.26-10.07.49-15.1.75-1.39.07-2.77.21-4.15.27-.17,0-.54-.33-.51-.43,1.29-5.41,2.62-10.82,3.94-16.23.17-.7.64-.81,1.29-.79,5.26.19,10.52.42,15.78.5,5.59.08,11.18.08,16.77-.03,3.1-.06,6.2-.41,9.41-.63"/>
      <path class="cls-2" d="M127.02,30.58c6.41-8.68,14.61-15.38,23.66-21.03,7.04-4.4,14.68-7.54,22.87-8.89-3.11,5.69-6.37,11.21-9.19,16.95-2.41,4.92-4.31,10.08-6.43,15.13-.25.59-.42,1.22-.76,1.76-.16.27-.61.56-.91.54-2.39-.18-4.77-.43-7.16-.68-1.65-.17-3.31-.34-4.96-.54-2.52-.31-5.07-.56-7.57-1.01-3.11-.57-6.19-1.31-9.27-1.98-.07-.01-.12-.09-.29-.24"/>
      <path class="cls-2" d="M241.84,172.34c-14.25,15.28-34.06,23.75-46.81,25.78,1.41-2.42,2.9-4.8,4.22-7.27,1.57-2.92,3.05-5.9,4.48-8.9,1.28-2.69,2.5-5.42,3.65-8.16.85-2.01,1.56-4.07,2.31-6.1.24-.63.44-.89,1.3-.69,1.65.38,3.38.43,5.07.63,2.02.24,4.05.43,6.05.77,3.05.51,6.09,1.11,9.13,1.72,3.49.7,6.96,1.46,10.59,2.22"/>
      <path class="cls-2" d="M126.11,172.52c10.63-2.63,21.09-4.54,31.68-5.67,3.93,10.96,8.81,21.37,14.89,31.25-18.14-3.67-33.47-12.31-46.57-25.59"/>
      <path class="cls-2" d="M51.73,56.95c2.32-2.85,4.58-5.75,6.98-8.54,2-2.33,3.99-4.71,6.29-6.74,3.94-3.48,8-6.86,12.23-9.99,3.66-2.71,7.61-5.04,11.46-7.49.32-.2.93-.22,1.29-.06,5.04,2.21,10.05,4.46,15.07,6.71.07.03.11.11.28.29-17.81,8.78-35.58,17.53-53.34,26.28-.09-.16-.18-.31-.26-.47"/>
      <path class="cls-2" d="M96.67,19.81c15.32-7.43,31.22-12.2,47.71-15.08-4.36,2.86-8.65,5.77-12.49,9.27-3.14,2.86-6.22,5.8-9.25,8.78-1.44,1.41-2.67,3.02-4.07,4.48-.3.31-.99.61-1.33.48-6.45-2.4-12.88-4.86-19.31-7.32-.37-.14-.71-.34-1.27-.62"/>
      <path class="cls-2" d="M271.19,19.6c-1.65.71-3.15,1.39-4.68,2.01-1.89.77-3.78,1.51-5.69,2.22-2.51.94-5.03,1.86-7.56,2.74-.2.07-.59-.12-.77-.31-1.76-1.84-3.36-3.85-5.26-5.52-3.47-3.05-7.03-6.02-10.73-8.8-3.47-2.61-7.16-4.92-10.7-7.32,1.66-.38,15.31,3.02,22.99,5.63,7.6,2.59,15.09,5.47,22.39,9.35"/>
      <path class="cls-2" d="M268.95,181.49c-14.27,6.79-29.01,11.65-44.39,14.59-.05-.1-.11-.2-.16-.29.71-.46,1.41-.93,2.14-1.36,4.55-2.65,8.88-5.63,12.82-9.11,3.28-2.89,6.65-5.72,9.6-8.93,1.35-1.47,2.28-1.39,3.82-.83,5.22,1.92,10.48,3.74,15.72,5.61.11.04.2.14.45.32"/>
      <path class="cls-2" d="M142.86,195.93c-15.06-2.99-29.57-7.65-43.66-14.52,1.27-.51,2.32-.93,3.38-1.35,1.1-.44,2.2-.91,3.32-1.3,3.34-1.16,6.71-2.27,10.04-3.45,1.1-.39,1.76-.19,2.63.72,2.58,2.73,5.21,5.46,8.1,7.85,3.77,3.12,7.79,5.95,11.75,8.83,1.44,1.05,3.03,1.88,4.55,2.82-.03.13-.07.27-.11.4"/>
      <path class="cls-2" d="M108.44,106.66c-.06.21-.12.42-.18.64-.08-.03-.16-.06-.25-.08.06-.17.13-.35.19-.52.08,0,.16-.02.24-.03"/>
      <path class="cls-2" d="M168.19,86.44c-.38,5.38-.76,10.77-1.15,16.28-2.19.33-4.44.66-6.97,1.04,2.73-6.03,5.3-11.7,7.86-17.37.08.01.17.03.25.05"/>
      <path class="cls-2" d="M217.41,92.79c.63-3.02,1.23-5.93,1.88-9.01,1.36,0,2.84-.05,4.32.02,1.25.05,2.12.99,2.46,2.44.38,1.61-.98,4.83-2.46,5.59-.63.32-1.36.5-2.06.59-1.37.18-2.74.25-4.14.37"/>
      <path class="cls-2" d="M273.02,88.59c.57-2.72,1.11-5.3,1.68-8.01,1.9,0,3.88-.03,5.85.01,1.04.03,1.95.95,2.01,1.99.21,3.49-1.17,5.47-5.12,5.71-1.38.08-2.77.18-4.43.29"/>
      <path class="cls-2" d="M341.67,123.59c.48,0,.48-.75,0-.75s-.48.75,0,.75"/>
    </g>
  </g>
</svg>