<?xml version="1.0" encoding="UTF-8"?>
<svg id="Layer_2" data-name="Layer 2" xmlns="http://www.w3.org/2000/svg" xmlns:xlink="http://www.w3.org/1999/xlink" viewBox="0 0 660.49 662.61">
  <defs>
    <style>
      .cls-1 {
        fill: none;
      }

      .cls-2 {
        fill: #c0fc04;
      }

      .cls-3 {
        clip-path: url(#clippath);
      }
    </style>
    <clipPath id="clippath">
      <rect class="cls-1" width="660.49" height="662.61"/>
    </clipPath>
  </defs>
  <g id="text-layer">
    <g class="cls-3">
      <path class="cls-2" d="M137.81,45.42c5.89-17.85,21.36-29.12,39.31-30.16,3.86-.23,5.09.78,5.06,4.76-.16,25.31-.08,50.61-.08,75.92h.84c0,25.14-.08,50.29.07,75.44.03,4.9-1.48,5.84-6.34,5.31-22.39-2.46-35.16-15.31-40.62-36.38-8.25-31.78-8.59-63.52,1.76-94.89M183.25,324.13c.07,5.58-2.09,6.14-6.69,5.22-24.99-4.99-36.04-22.34-40.01-45.56-3.69-21.59-3.49-43.21,1.59-64.64,5.17-21.81,18.2-33.85,40.33-37.67,4.48-.77,4.5,1.8,4.5,4.83v69.37h.16c0,22.81-.16,45.63.12,68.44M328.12,483.83c-4.45,24.86-21.4,35.97-44.12,40.35-24.37,4.69-48.82,4.57-72.65-3.01-18.67-5.94-28.66-19.72-31.66-38.88-.73-4.66,2.48-4.29,5.19-4.31,16.92-.15,33.84-.21,50.76-.28,6.37-.02,12.72,0,19.09,0v-.17c22.68,0,45.34.12,68-.08,4.98-.03,6.34,1.07,5.39,6.39M330.94,177.92c3.46-16.3,11.79-28.95,27.65-34.82,32.56-12.04,65.34-11.97,97.38,1.8,14.9,6.41,20.86,20,23.51,35.2.74,4.29-2.51,3.91-5.05,3.93-15.05.17-30.09.25-45.14.33-8.22.05-16.45.01-24.67.01v.16c-22.65,0-45.31-.12-67.96.08-5.18.05-6.86-1.27-5.71-6.7M484.32,178.35c.99-19.76,13.02-34.84,35.32-41.04,30.37-8.44,61.12-8.63,91.75-.69,21.35,5.54,33.01,19.53,35.7,41.33.48,3.86-.93,4.82-4.53,4.81-25.73-.1-51.48-.06-77.21-.06v1.1c-25.28,0-50.55-.1-75.84.1-4.42.03-5.41-1.35-5.19-5.55M482.24,332.63c20.24,3.67,32.45,15.79,37.91,35.09,7.95,28.05,7.7,56.1-1.71,83.73-5.87,17.21-19.2,25.94-36.65,29.12-4.18.75-5.12-1.11-5.11-4.74.06-23.26.03-46.54.03-69.8h-.69c0-22.8.1-45.62-.08-68.42-.05-5.02,1.45-5.85,6.3-4.97M524.73,609.64c-5.57,23.17-18.35,34.58-41.76,38.28-3.79.6-4.99-.33-4.98-4.14.1-25.74.05-51.48.05-77.22h-1.07c0-25.12.14-50.24-.12-75.36-.06-5.34,1.49-6.71,6.66-5.84,22.95,3.9,35.76,15.76,41.28,40.03,6.37,28.02,6.69,56.19-.05,84.24M175.03,483.72c-1.97,19.98-11.98,33.69-31.15,39.79-33.91,10.8-68.03,11.06-101.81-.4-19.54-6.63-26.94-21.73-29.48-40.37-.55-4.06,2.32-4,5.1-4,25.59.01,51.19,0,76.77,0v-.46c25.12,0,50.25.07,75.37-.07,4.18-.02,5.66.89,5.2,5.51M38.08,160.14c18.07,10.15,37.64,14.77,58.07,16.76,5.84.58,11.89.32,17.57,2.75-2.4.76-4.8.83-7.19,1.02-21.81,1.72-42.86,6.1-62.39,16.64-47.13,25.41-50.08,86.05-5.61,115.69,21.78,14.51,46.56,18.45,71.73,19.93,33.77,1.98,67.64.76,101.46.95,36.64.18,73.28.2,109.92.14,3.77,0,5.16.99,5.1,4.97-.18,12.77-7.07,19.65-20.63,19.79-39.58.4-79.17,1.05-118.74.97-51.07-.08-102.14,1.25-153.22.05-12.91-.31-18.86-5.61-20.16-18.35-.84-8.33-1.01-16.72-1.51-25.09-.09-1.52.08-3.28-2.25-3.3-2.3-.02-2.27,1.64-2.34,3.22-.05.92-.02,1.86-.02,2.79.07,29.03-.29,58.07.3,87.09,1.01,50.41-1.56,100.91,2.9,151.23,2.09,23.62,7.52,46.46,20,67.2,29.49,49.02,92.5,51.04,124.54,3.85,10.81-15.92,15.61-33.97,18.43-52.65,1.38-9.15,2.24-18.36,3.33-27.54.29.01.59.02.88.05.55,4.9,1.08,9.82,1.66,14.72,2.63,22.6,8.15,44.15,21.27,63.28,22.55,32.87,68.33,38.33,97.81,11.53,18.45-16.76,26.19-38.72,30.12-62.41,3.78-22.92,3.51-46.09,3.49-69.2,0-30.9-.33-61.79-.44-92.68-.07-24.84-.01-49.68.05-74.52,0-2.04-.59-4.6,2.43-5.32,10.6-2.49,21.6,5.63,22.55,16.83.51,6.03.77,12.1.81,18.14.4,68.62.88,137.23,1.02,205.86.05,18.44,1.13,36.93-.72,55.37-.92,9.31-6.1,15.63-15.18,16.69-9.22,1.08-18.55,1.21-27.82,1.82-1.81.12-4.36-.78-4.34,2.58.03,3.01,2.27,2.36,4.01,2.47,1.08.08,2.17,0,3.26-.01,40.35-.44,80.7-.6,121.05-1.4,41.4-.81,82.91,2.24,124.15-3.25,22.92-3.06,44.89-9.09,64.37-22.46,44.35-30.44,43.4-92.38-1.85-121.52-18.11-11.66-38.26-16.51-59.18-19.2-6.87-.88-13.78-1.58-20.67-2.38,6.95-1.59,13.86-2.3,20.74-3.28,20.96-2.99,41.07-8.54,58.37-21.33,19.67-14.54,30.15-34.44,27.43-58.73-3.32-29.54-21.74-48.56-48.62-59.64-20.51-8.48-42.27-10.96-64.19-11.3-34.14-.55-68.3-.32-102.46-.36-33.38-.03-66.75.01-100.13,0-2.35,0-4.66.14-5.14-3.23-1.46-10.5,4.82-19.73,15.2-21.79,2.87-.58,5.84-.92,8.77-.93,72.03-.36,144.07-.76,216.1-.9,18.77-.03,37.55-1.16,56.31.7,10.72,1.07,16.45,7.29,16.85,17.97.3,7.74.62,15.49,1.25,23.22.16,1.97-.52,5.48,3.09,5.12,3.02-.31,2.21-3.26,2.21-5.31-.05-13.49-.07-26.99-.27-40.48-.91-62.99.96-126.02-2-188.97-1.11-23.67-5.47-46.82-16.34-68.23-11.46-22.6-28.65-38.96-53.82-44.31-30.89-6.57-63.31,9.84-78.5,37.68-10.38,19.03-15.42,39.42-17.08,60.84-.37,4.75-1.02,9.49-1.52,14.24-1.28-.76-1.6-1.46-1.7-2.18-.23-1.85-.4-3.7-.53-5.56-1.58-22.03-6.4-43.15-17.16-62.7-14.99-27.24-45.47-41.67-73.68-34.21-23.9,6.32-39.8,22.09-49.47,44.34-10.67,24.54-12.79,50.7-13.04,76.98-.38,38.04-.14,76.08-.13,114.11.01,25.93.08,51.86.07,77.79,0,2.48.74,5.42-3.38,5.89-9.5,1.07-18-4.41-20.53-13.67-1.44-5.28-1.51-10.76-1.55-16.16-.46-73.11-.91-146.24-1.15-219.35-.05-15.04-.67-30.1.77-45.13,1.13-11.74,7.15-17.59,18.93-18.03,7.74-.29,15.49-.7,23.21-1.34,1.82-.15,4.97.32,4.6-3.14-.37-3.46-3.37-2.17-5.18-2.15-30.27.3-60.53.96-90.8,1.1-42.21.18-84.44-.47-126.63,1.14-28.04,1.08-55.7,4.67-81.03,18.09C22.71,41.3,7.33,57.94,1.75,81.72c-7.17,30.52,8.33,62.7,36.33,78.42"/>
    </g>
  </g>
</svg>