<?xml version="1.0" encoding="UTF-8"?>
<svg id="Layer_2" data-name="Layer 2" xmlns="http://www.w3.org/2000/svg" xmlns:xlink="http://www.w3.org/1999/xlink" viewBox="0 0 1222.69 235.53">
  <defs>
    <style>
      .cls-1 {
        fill: none;
      }

      .cls-2 {
        fill: #c0fc04;
      }

      .cls-3 {
        clip-path: url(#clippath);
      }
    </style>
    <clipPath id="clippath">
      <rect class="cls-1" width="1222.69" height="235.53"/>
    </clipPath>
  </defs>
  <g id="edited-map">
    <g class="cls-3">
      <path class="cls-2" d="M801.56,183.88h-61.29c-2.05,0-3.71-1.66-3.71-3.71v-108.81c0-2.05-1.66-3.71-3.71-3.71h-45.77c-2.05,0-3.71,1.66-3.71,3.71v91.72c0,.99.39,1.93,1.09,2.63l68.1,68.1c.7.7,1.64,1.09,2.63,1.09h46.39c2.05,0,3.71-1.66,3.71-3.71v-43.59c0-2.05-1.66-3.71-3.71-3.71"/>
      <path class="cls-2" d="M561.98,183.88h-118.86c-2.05,0-3.71-1.66-3.71-3.71v-97.31c0-.99-.39-1.93-1.09-2.63L370.42,12.33c-.69-.7-1.64-1.09-2.62-1.09h-139.27c-2.05,0-3.71,1.66-3.71,3.72v43.9c0,2.06,1.66,3.72,3.71,3.72h155.1c2.05,0,3.71,1.66,3.71,3.71v8.82c0,2.05-1.66,3.71-3.71,3.71h-138.23c-.99,0-1.93.39-2.63,1.09l-73.03,73.03c-1.45,1.45-1.45,3.8,0,5.25l75.63,75.63c.7.7,1.64,1.09,2.63,1.09h134.38c2.05,0,3.71-1.66,3.71-3.71v-43.59c0-2.05-1.66-3.71-3.71-3.71h-151.15c-2.05,0-3.71-1.66-3.71-3.71v-46.5c0-2.05,1.66-3.71,3.71-3.71h152.39c2.05,0,3.71,1.66,3.71,3.71v30.89c0,.98.38,1.91,1.07,2.61,8.67,8.74,67.18,67.74,67.75,67.74h105.81c2.05,0,3.71-1.66,3.71-3.71v-43.59c0-2.05-1.66-3.71-3.71-3.71"/>
      <path class="cls-2" d="M1221.6,152.93l-73.03-73.03c-.7-.7-1.64-1.09-2.63-1.09h-46.65c-2.05,0-3.71-1.66-3.71-3.71v-9.75c0-2.05,1.66-3.71,3.71-3.71h50c.95,0,1.87-.37,2.56-1.03l44.98-42.96c2.42-2.31.78-6.4-2.57-6.4h-60.61c-.99,0-1.93.39-2.63,1.09l-73.9,73.91c-1.46,1.45-1.46,3.8,0,5.25l73.76,73.77c.7.7,1.65,1.09,2.64,1.09l48.78-.15c2.06,0,3.73,1.66,3.73,3.71v10.25c0,2.05-1.66,3.71-3.71,3.71h-123.43c-2.05,0-3.71,1.66-3.71,3.71v43.59c0,2.05,1.66,3.71,3.71,3.71h84.44c.99,0,1.93-.39,2.63-1.09l75.63-75.63c1.45-1.46,1.45-3.81,0-5.26"/>
      <path class="cls-2" d="M838.78,109.28v-41.15c0-3.47,2.81-6.29,6.29-6.29h147.82c3.47,0,6.29,2.82,6.29,6.29v41.15c0,3.47-2.82,6.29-6.29,6.29h-147.82c-3.48,0-6.29-2.82-6.29-6.29M842.99,166.18h135.47c.99,0,1.93-.39,2.62-1.09l73.6-73.6c1.46-1.46,1.46-3.81,0-5.26l-73.9-73.9c-.7-.7-1.64-1.09-2.63-1.09h-116.87c-.99,0-1.94.4-2.64,1.09l-68.57,68.57c-.7.7-1.09,1.64-1.09,2.63v82.51c0,.99.39,1.93,1.09,2.63l65.14,65.14c.7.7,1.64,1.09,2.63,1.09h188.42c2.05,0,3.71-1.66,3.71-3.71v-43.59c0-2.05-1.66-3.71-3.71-3.71h-203.26c-2.05,0-3.71-1.66-3.71-3.72v-10.27c0-2.05,1.66-3.71,3.71-3.71"/>
      <path class="cls-2" d="M93.4,79.18c-.7-.7-1.09-1.64-1.09-2.63v-25.7s-.09-35.45-.09-47.16C92.22,1.64,90.56,0,88.51,0h-47.48c-2.05,0-3.71,1.66-3.71,3.72v47.14h.64L2.63,86.18c-1.45,1.46-1.45,3.81,0,5.26l36.77,36.77c.69.69,1.62,1.08,2.6,1.09l43.8.4c2.04.01,3.68,1.68,3.68,3.71v46.75c0,2.05-1.66,3.71-3.71,3.71H3.71c-2.05,0-3.71,1.66-3.71,3.71v43.59c0,2.05,1.66,3.71,3.71,3.71h85.08c.98,0,1.93-.39,2.62-1.08l75.73-75.63c1.45-1.45,1.45-3.8,0-5.25l-73.75-73.75Z"/>
      <path class="cls-2" d="M730.42,56.11l-43.57-43.58c-.7-.69-1.64-1.09-2.63-1.09h-259.95c-2.05,0-3.71,1.66-3.71,3.72v43.59c0,2.05,1.66,3.71,3.71,3.71h142.92c2.05,0,3.71,1.66,3.71,3.71v165.63c0,2.05,1.66,3.71,3.71,3.71h43.59c2.05,0,3.71-1.66,3.71-3.71V65.07c0-1.44,1.17-2.6,2.6-2.6s2.6,1.17,2.6,2.6v166.74c0,2.05,1.66,3.71,3.71,3.71h43.59c2.06,0,3.72-1.66,3.72-3.71V62.47h49.64c3.31-.02,4.97-4.02,2.63-6.36"/>
    </g>
  </g>
</svg>