<?xml version="1.0" encoding="UTF-8"?>
<svg id="Layer_2" data-name="Layer 2" xmlns="http://www.w3.org/2000/svg" viewBox="0 0 12186.17 9313.96">
  <defs>
    <style>
      .cls-1, .cls-2 {
        stroke: #60f;
        stroke-miterlimit: 10;
        stroke-width: 9px;
      }

      .cls-2 {
        fill: none;
      }
    </style>
  </defs>
  <g id="edited-map">
    <path class="cls-2" d="M7041.14,9081.18c64.04-3.52,114.17-56.48,114.17-120.62"/>
    <path class="cls-2" d="M7156.66,8960.56c0,64.14,50.12,117.1,114.17,120.62"/>
    <path class="cls-2" d="M7270.83,8839.94c-64.04,3.52-114.17,56.48-114.17,120.62"/>
    <path class="cls-2" d="M7155.31,8960.56c0-64.14-50.12-117.1-114.17-120.62"/>
    <path class="cls-2" d="M7284.09,9081.18c64.04-3.52,114.17-56.48,114.17-120.62"/>
    <path class="cls-2" d="M7399.61,8960.56c0,64.14,50.12,117.1,114.17,120.62"/>
    <path class="cls-2" d="M7513.78,8839.94c-64.04,3.52-114.17,56.48-114.17,120.62"/>
    <path class="cls-2" d="M7398.26,8960.56c0-64.14-50.12-117.1-114.17-120.62"/>
    <path class="cls-2" d="M7527.04,9081.18c64.04-3.52,114.17-56.48,114.17-120.62"/>
    <path class="cls-2" d="M7641.21,8960.56c0,64.14,50.12,117.1,114.17,120.62"/>
    <path class="cls-2" d="M7755.38,8839.94c-64.04,3.52-114.17,56.48-114.17,120.62"/>
    <path class="cls-2" d="M7641.21,8960.56c0-64.14-50.12-117.1-114.17-120.62"/>
    <path class="cls-2" d="M7768.64,9081.18c64.04-3.52,114.17-56.48,114.17-120.62"/>
    <path class="cls-2" d="M7884.16,8960.56c0,64.14,50.12,117.1,114.17,120.62"/>
    <path class="cls-2" d="M7998.33,8839.94c-64.04,3.52-114.17,56.48-114.17,120.62"/>
    <path class="cls-2" d="M7882.81,8960.56c0-64.14-50.12-117.1-114.17-120.62"/>
    <path class="cls-2" d="M8011.59,9081.18c64.04-3.52,114.17-56.48,114.17-120.62"/>
    <path class="cls-2" d="M8127.11,8960.56c0,64.14,50.12,117.1,114.17,120.62"/>
    <path class="cls-2" d="M8241.28,8839.94c-64.04,3.52-114.17,56.48-114.17,120.62"/>
    <path class="cls-2" d="M8125.76,8960.56c0-64.14-50.12-117.1-114.17-120.62"/>
    <path class="cls-2" d="M5351.22,9081.18c63.33-3.48,112.89-55.85,112.89-119.27"/>
    <path class="cls-2" d="M5465.46,8961.91c0,63.42,49.57,115.79,112.89,119.27"/>
    <path class="cls-2" d="M5578.35,8842.64c-63.33,3.48-112.89,55.85-112.89,119.27"/>
    <path class="cls-2" d="M5464.11,8961.91c0-63.42-49.57-115.79-112.89-119.27"/>
    <path class="cls-2" d="M5591.47,9081.18c63.33-3.48,112.89-55.85,112.89-119.27"/>
    <path class="cls-2" d="M5705.71,8961.91c0,63.42,49.57,115.79,112.89,119.27"/>
    <path class="cls-2" d="M5818.6,8842.64c-63.33,3.48-112.89,55.85-112.89,119.27"/>
    <path class="cls-2" d="M5704.36,8961.91c0-63.42-49.56-115.79-112.89-119.27"/>
    <path class="cls-2" d="M5831.72,9081.18c63.33-3.48,112.89-55.85,112.89-119.27"/>
    <path class="cls-2" d="M5944.61,8961.91c0,63.42,49.57,115.79,112.89,119.27"/>
    <path class="cls-2" d="M6057.5,8842.64c-63.33,3.48-112.89,55.85-112.89,119.27"/>
    <path class="cls-2" d="M5944.61,8961.91c0-63.42-49.57-115.79-112.89-119.27"/>
    <path class="cls-2" d="M6070.62,9081.18c63.33-3.48,112.89-55.85,112.89-119.27"/>
    <path class="cls-2" d="M6184.86,8961.91c0,63.42,49.57,115.79,112.89,119.27"/>
    <path class="cls-2" d="M6297.75,8842.64c-63.33,3.48-112.89,55.85-112.89,119.27"/>
    <path class="cls-2" d="M6183.51,8961.91c0-63.42-49.57-115.79-112.89-119.27"/>
    <path class="cls-2" d="M6310.87,9081.18c63.33-3.48,112.89-55.85,112.89-119.27"/>
    <path class="cls-2" d="M6425.11,8961.91c0,63.42,49.57,115.79,112.89,119.27"/>
    <path class="cls-2" d="M6538,8842.64c-63.33,3.48-112.89,55.85-112.89,119.27"/>
    <path class="cls-2" d="M6423.76,8961.91c0-63.42-49.57-115.79-112.89-119.27"/>
    <path class="cls-2" d="M3653.35,9082.53c64.04-3.52,114.17-56.48,114.17-120.62"/>
    <path class="cls-2" d="M3767.52,8961.91c0,64.14,50.13,117.1,114.17,120.62"/>
    <path class="cls-2" d="M3881.68,8841.29c-64.04,3.52-114.17,56.48-114.17,120.62"/>
    <path class="cls-2" d="M3767.52,8961.91c0-64.14-50.13-117.1-114.17-120.62"/>
    <path class="cls-2" d="M3894.95,9082.53c64.04-3.52,114.17-56.48,114.17-120.62"/>
    <path class="cls-2" d="M4009.12,8961.91c0,64.14,50.13,117.1,114.17,120.62"/>
    <path class="cls-2" d="M4123.28,8841.29c-64.04,3.52-114.17,56.48-114.17,120.62"/>
    <path class="cls-2" d="M4009.12,8961.91c0-64.14-50.13-117.1-114.17-120.62"/>
    <path class="cls-2" d="M4136.55,9082.53c64.04-3.52,114.17-56.48,114.17-120.62"/>
    <path class="cls-2" d="M4250.72,8961.91c0,64.14,50.13,117.1,114.17,120.62"/>
    <path class="cls-2" d="M4364.88,8841.29c-64.04,3.52-114.17,56.48-114.17,120.62"/>
    <path class="cls-2" d="M4250.72,8961.91c0-64.14-50.13-117.1-114.17-120.62"/>
    <path class="cls-2" d="M4378.15,9082.53c64.04-3.52,114.17-56.48,114.17-120.62"/>
    <path class="cls-2" d="M4492.32,8961.91c0,64.14,50.13,117.1,114.17,120.62"/>
    <path class="cls-2" d="M4606.48,8841.29c-64.04,3.52-114.17,56.48-114.17,120.62"/>
    <path class="cls-2" d="M4492.32,8961.91c0-64.14-50.13-117.1-114.17-120.62"/>
    <path class="cls-2" d="M4619.75,9082.53c64.04-3.52,114.17-56.48,114.17-120.62"/>
    <path class="cls-2" d="M4733.92,8961.91c0,64.14,50.13,117.1,114.17,120.62"/>
    <path class="cls-2" d="M4848.08,8841.29c-64.04,3.52-114.17,56.48-114.17,120.62"/>
    <path class="cls-2" d="M4733.92,8961.91c0-64.14-50.13-117.1-114.17-120.62"/>
    <path class="cls-2" d="M7041.14,8449.51c64.04-3.52,114.17-56.48,114.17-120.62"/>
    <path class="cls-2" d="M7156.66,8328.89c0,64.14,50.12,117.1,114.17,120.62"/>
    <path class="cls-2" d="M7270.83,8208.27c-64.04,3.52-114.17,56.48-114.17,120.62"/>
    <path class="cls-2" d="M7155.31,8328.89c0-64.14-50.12-117.1-114.17-120.62"/>
    <path class="cls-2" d="M7284.09,8449.51c64.04-3.52,114.17-56.48,114.17-120.62"/>
    <path class="cls-2" d="M7399.61,8328.89c0,64.14,50.12,117.1,114.17,120.62"/>
    <path class="cls-2" d="M7513.78,8208.27c-64.04,3.52-114.17,56.48-114.17,120.62"/>
    <path class="cls-2" d="M7398.26,8328.89c0-64.14-50.12-117.1-114.17-120.62"/>
    <path class="cls-2" d="M7527.04,8449.51c64.04-3.52,114.17-56.48,114.17-120.62"/>
    <path class="cls-2" d="M7641.21,8328.89c0,64.14,50.12,117.1,114.17,120.62"/>
    <path class="cls-2" d="M7755.38,8208.27c-64.04,3.52-114.17,56.48-114.17,120.62"/>
    <path class="cls-2" d="M7641.21,8328.89c0-64.14-50.12-117.1-114.17-120.62"/>
    <path class="cls-2" d="M7768.64,8449.51c64.04-3.52,114.17-56.48,114.17-120.62"/>
    <path class="cls-2" d="M7884.16,8328.89c0,64.14,50.12,117.1,114.17,120.62"/>
    <path class="cls-2" d="M7998.33,8208.27c-64.04,3.52-114.17,56.48-114.17,120.62"/>
    <path class="cls-2" d="M7882.81,8328.89c0-64.14-50.12-117.1-114.17-120.62"/>
    <path class="cls-2" d="M8011.59,8449.51c64.04-3.52,114.17-56.48,114.17-120.62"/>
    <path class="cls-2" d="M8127.11,8328.89c0,64.14,50.12,117.1,114.17,120.62"/>
    <path class="cls-2" d="M8241.28,8208.27c-64.04,3.52-114.17,56.48-114.17,120.62"/>
    <path class="cls-2" d="M8125.76,8328.89c0-64.14-50.12-117.1-114.17-120.62"/>
    <path class="cls-2" d="M5351.22,8449.51c63.33-3.48,112.89-55.85,112.89-119.27"/>
    <path class="cls-2" d="M5465.46,8330.24c0,63.42,49.57,115.79,112.89,119.27"/>
    <path class="cls-2" d="M5578.35,8210.97c-63.33,3.48-112.89,55.85-112.89,119.27"/>
    <path class="cls-2" d="M5464.11,8330.24c0-63.42-49.57-115.79-112.89-119.27"/>
    <path class="cls-2" d="M5591.47,8449.51c63.33-3.48,112.89-55.85,112.89-119.27"/>
    <path class="cls-2" d="M5705.71,8330.24c0,63.42,49.57,115.79,112.89,119.27"/>
    <path class="cls-2" d="M5818.6,8210.97c-63.33,3.48-112.89,55.85-112.89,119.27"/>
    <path class="cls-2" d="M5704.36,8330.24c0-63.42-49.56-115.79-112.89-119.27"/>
    <path class="cls-2" d="M5831.72,8449.51c63.33-3.48,112.89-55.85,112.89-119.27"/>
    <path class="cls-2" d="M5944.61,8330.24c0,63.42,49.57,115.79,112.89,119.27"/>
    <path class="cls-2" d="M6057.5,8210.97c-63.33,3.48-112.89,55.85-112.89,119.27"/>
    <path class="cls-2" d="M5944.61,8330.24c0-63.42-49.57-115.79-112.89-119.27"/>
    <path class="cls-2" d="M6070.62,8449.51c63.33-3.48,112.89-55.85,112.89-119.27"/>
    <path class="cls-2" d="M6184.86,8330.24c0,63.42,49.57,115.79,112.89,119.27"/>
    <path class="cls-2" d="M6297.75,8210.97c-63.33,3.48-112.89,55.85-112.89,119.27"/>
    <path class="cls-2" d="M6183.51,8330.24c0-63.42-49.57-115.79-112.89-119.27"/>
    <path class="cls-2" d="M6310.87,8449.51c63.33-3.48,112.89-55.85,112.89-119.27"/>
    <path class="cls-2" d="M6425.11,8330.24c0,63.42,49.57,115.79,112.89,119.27"/>
    <path class="cls-2" d="M6538,8210.97c-63.33,3.48-112.89,55.85-112.89,119.27"/>
    <path class="cls-2" d="M6423.76,8330.24c0-63.42-49.57-115.79-112.89-119.27"/>
    <path class="cls-2" d="M3653.35,8450.86c64.04-3.52,114.17-56.48,114.17-120.62"/>
    <path class="cls-2" d="M3767.52,8330.24c0,64.14,50.13,117.1,114.17,120.62"/>
    <path class="cls-2" d="M3881.68,8209.62c-64.04,3.52-114.17,56.48-114.17,120.62"/>
    <path class="cls-2" d="M3767.52,8330.24c0-64.14-50.13-117.1-114.17-120.62"/>
    <path class="cls-2" d="M3894.95,8450.86c64.04-3.52,114.17-56.48,114.17-120.62"/>
    <path class="cls-2" d="M4009.12,8330.24c0,64.14,50.13,117.1,114.17,120.62"/>
    <path class="cls-2" d="M4123.28,8209.62c-64.04,3.52-114.17,56.48-114.17,120.62"/>
    <path class="cls-2" d="M4009.12,8330.24c0-64.14-50.13-117.1-114.17-120.62"/>
    <path class="cls-2" d="M4136.55,8450.86c64.04-3.52,114.17-56.48,114.17-120.62"/>
    <path class="cls-2" d="M4250.72,8330.24c0,64.14,50.13,117.1,114.17,120.62"/>
    <path class="cls-2" d="M4364.88,8209.62c-64.04,3.52-114.17,56.48-114.17,120.62"/>
    <path class="cls-2" d="M4250.72,8330.24c0-64.14-50.13-117.1-114.17-120.62"/>
    <path class="cls-2" d="M4378.15,8450.86c64.04-3.52,114.17-56.48,114.17-120.62"/>
    <path class="cls-2" d="M4492.32,8330.24c0,64.14,50.13,117.1,114.17,120.62"/>
    <path class="cls-2" d="M4606.48,8209.62c-64.04,3.52-114.17,56.48-114.17,120.62"/>
    <path class="cls-2" d="M4492.32,8330.24c0-64.14-50.13-117.1-114.17-120.62"/>
    <path class="cls-2" d="M4619.75,8450.86c64.04-3.52,114.17-56.48,114.17-120.62"/>
    <path class="cls-2" d="M4733.92,8330.24c0,64.14,50.13,117.1,114.17,120.62"/>
    <path class="cls-2" d="M4848.08,8209.62c-64.04,3.52-114.17,56.48-114.17,120.62"/>
    <path class="cls-2" d="M4733.92,8330.24c0-64.14-50.13-117.1-114.17-120.62"/>
    <line class="cls-2" x1="7047.33" y1="3462.48" x2="7047.33" y2="4661.03"/>
    <polyline class="cls-2" points="8235.09 4675.88 8734.48 4675.88 8729.08 1736.19"/>
    <line class="cls-2" x1="9950.58" y1="1736.19" x2="9950.58" y2="2945.54"/>
    <line class="cls-2" x1="11911.72" y1="4675.88" x2="11911.72" y2="3443.58"/>
    <polyline class="cls-2" points="10476.97 3373.4 10452.68 3373.4 10452.68 1736.19"/>
    <line class="cls-2" x1="10444.58" y1="1736.19" x2="9950.58" y2="1736.19"/>
    <polyline class="cls-2" points="9950.58 1736.19 8471.29 1736.19 8469.94 1242.19 8538.77 1242.19 8538.77 20.7 8611.66 20.7"/>
    <polyline class="cls-2" points="10398.69 8262.08 10398.69 9251.43 10004.57 9251.43"/>
    <line class="cls-2" x1="10004.57" y1="9050.32" x2="8688.59" y2="9050.32"/>
    <line class="cls-2" x1="8294.47" y1="8961.24" x2="6985.25" y2="8961.24"/>
    <line class="cls-2" x1="6543.89" y1="8962.59" x2="5295.4" y2="8962.59"/>
    <line class="cls-2" x1="4902.63" y1="8962.59" x2="3597.45" y2="8962.59"/>
    <line class="cls-2" x1="3597.45" y1="9275.72" x2="3204.68" y2="9275.72"/>
    <line class="cls-2" x1="3204.68" y1="9069.21" x2="1902.21" y2="9069.21"/>
    <polyline class="cls-2" points="71.99 4939.07 71.99 8137.91 71.99 9309.46 1460.85 9309.46 1460.85 8098.77"/>
    <line class="cls-2" x1="23.4" y1="4939.07" x2="23.4" y2="4746.06"/>
    <line class="cls-2" x1="27.45" y1="4746.06" x2="27.45" y2="3413.89"/>
    <line class="cls-2" x1="20.7" y1="3413.89" x2="20.7" y2="2969.83"/>
    <polyline class="cls-2" points="4.5 2969.83 4.5 2320.62 20.7 2320.62 20.7 2119.51 20.7 1746.99"/>
    <line class="cls-2" x1="1499.99" y1="3345.05" x2="1549.93" y2="3397.69"/>
    <polyline class="cls-2" points="1884.66 3397.69 1926.5 3435.49 1926.5 4158.94"/>
    <line class="cls-2" x1="1926.5" y1="5060.55" x2="2081.72" y2="5060.55"/>
    <polyline class="cls-2" points="2207.24 4933.67 3122.35 4689.37 3133.15 4689.37"/>
    <line class="cls-2" x1="1499.99" y1="3006.28" x2="1486.49" y2="2940.14"/>
    <line class="cls-2" x1="2111.41" y1="2311.17" x2="1555.33" y2="1746.99"/>
    <path class="cls-2" d="M11655.28,8071.77v1228.24h504.79v-776.09h-33.07c-69.47,0-126.72-54.53-130.09-123.92v-5.65h163.16v-306.39l-4.05-1382.11h-48.59v-160.62h8.1"/>
    <polyline class="cls-2" points="11703.86 8071.77 11703.86 8303.92 11703.86 8360.61 11703.86 9251.43 12160.07 9251.43"/>
    <line class="cls-2" x1="1657.91" y1="1746.99" x2="2193.74" y2="2292.27"/>
    <line class="cls-2" x1="2111.41" y1="2311.17" x2="1427.1" y2="2999.53"/>
    <line class="cls-2" x1="1499.99" y1="3006.28" x2="1499.99" y2="3345.05"/>
    <line class="cls-2" x1="1427.1" y1="3470.58" x2="1899.51" y2="3470.58"/>
    <polyline class="cls-2" points="2369.21 2573.02 1549.93 3397.69 1884.66 3397.69 2537.92 2739.03"/>
    <line class="cls-2" x1="2578.41" y1="2779.52" x2="1891.41" y2="3470.58"/>
    <line class="cls-2" x1="2369.21" y1="2573.02" x2="2537.92" y2="2739.03"/>
    <line class="cls-2" x1="2367.86" y1="2471.79" x2="3126.4" y2="3214.13"/>
    <line class="cls-2" x1="2578.41" y1="2779.52" x2="3133.15" y2="3322.11"/>
    <line class="cls-2" x1="3133.15" y1="3471.93" x2="3262.72" y2="3471.93"/>
    <line class="cls-2" x1="3254.62" y1="3457.08" x2="3262.72" y2="3457.08"/>
    <line class="cls-2" x1="3505.67" y1="3457.08" x2="3511.07" y2="3457.08"/>
    <line class="cls-2" x1="3505.67" y1="3471.93" x2="3637.94" y2="3471.93"/>
    <line class="cls-2" x1="3505.67" y1="3228.98" x2="3511.07" y2="3228.98"/>
    <line class="cls-2" x1="1682.2" y1="1746.99" x2="1657.91" y2="1746.99"/>
    <line class="cls-2" x1="1541.83" y1="30.14" x2="1541.83" y2="1252.99"/>
    <line class="cls-2" x1="1541.83" y1="1252.99" x2="1423.05" y2="1252.99"/>
    <line class="cls-2" x1="1541.83" y1="30.14" x2="1423.05" y2="30.14"/>
    <line class="cls-2" x1="2182.95" y1="2303.07" x2="2184.3" y2="2305.77"/>
    <line class="cls-2" x1="2193.74" y1="2292.27" x2="2196.44" y2="2294.97"/>
    <line class="cls-2" x1="2182.95" y1="2303.07" x2="2073.62" y2="2413.75"/>
    <line class="cls-2" x1="2365.16" y1="2469.09" x2="2367.86" y2="2471.79"/>
    <line class="cls-2" x1="2353.01" y1="2479.88" x2="2357.06" y2="2482.58"/>
    <line class="cls-2" x1="7788.33" y1="2458.29" x2="7025.74" y2="3203.33"/>
    <line class="cls-2" x1="8495.58" y1="1736.19" x2="7959.74" y2="2282.83"/>
    <polyline class="cls-2" points="8596.81 1736.19 8042.08 2301.72 8726.38 2990.08 8726.38 3459.78 8260.73 3459.78 7573.72 2768.72 7018.99 3311.31"/>
    <line class="cls-2" x1="8729.08" y1="1609.32" x2="8729.08" y2="1736.19"/>
    <polygon class="cls-2" points="8268.83 3388.25 7614.22 2729.58 7784.28 2563.57 8603.56 3388.25 8268.83 3388.25"/>
    <line class="cls-2" x1="8672.4" y1="20.7" x2="8672.4" y2="1242.19"/>
    <line class="cls-2" x1="7047.33" y1="3462.48" x2="6889.42" y2="3462.48"/>
    <line class="cls-2" x1="6898.86" y1="3446.28" x2="6889.42" y2="3446.28"/>
    <line class="cls-2" x1="7018.99" y1="3311.31" x2="7018.99" y2="3462.48"/>
    <line class="cls-2" x1="6646.47" y1="3462.48" x2="6535.79" y2="3462.48"/>
    <line class="cls-2" x1="6646.47" y1="3446.28" x2="6641.07" y2="3446.28"/>
    <line class="cls-2" x1="6646.47" y1="3219.53" x2="6641.07" y2="3219.53"/>
    <line class="cls-2" x1="6646.47" y1="3203.33" x2="6641.07" y2="3203.33"/>
    <line class="cls-2" x1="3632.54" y1="3112.9" x2="4947.17" y2="3112.9"/>
    <line class="cls-2" x1="10447.28" y1="9300.02" x2="10447.28" y2="8071.77"/>
    <line class="cls-2" x1="9957.33" y1="9300.02" x2="9957.33" y2="9011.18"/>
    <line class="cls-2" x1="10004.57" y1="8120.36" x2="10398.69" y2="8120.36"/>
    <line class="cls-2" x1="10447.28" y1="9300.02" x2="9957.33" y2="9300.02"/>
    <line class="cls-2" x1="10004.57" y1="8245.88" x2="10398.69" y2="8245.88"/>
    <line class="cls-2" x1="9957.33" y1="8594.11" x2="10012.67" y2="8594.11"/>
    <line class="cls-2" x1="9957.33" y1="8752.03" x2="10004.57" y2="8752.03"/>
    <line class="cls-2" x1="9957.33" y1="9011.18" x2="10004.57" y2="9011.18"/>
    <polyline class="cls-2" points="10039.66 8846.51 10039.66 9142.1 10327.15 9142.1 10327.15 8846.51 10039.66 8846.51"/>
    <polyline class="cls-2" points="10039.66 8765.53 10327.15 8765.53 10327.15 8469.94 10039.66 8469.94 10039.66 8765.53"/>
    <line class="cls-2" x1="9957.33" y1="8594.11" x2="9957.33" y2="8071.77"/>
    <line class="cls-2" x1="9957.33" y1="8854.61" x2="9957.33" y2="8752.03"/>
    <line class="cls-2" x1="10004.57" y1="8420" x2="10004.57" y2="8262.08"/>
    <line class="cls-2" x1="10447.28" y1="8114.96" x2="10771.21" y2="8114.96"/>
    <line class="cls-2" x1="10447.28" y1="8082.57" x2="10771.21" y2="8082.57"/>
    <line class="cls-2" x1="3585.3" y1="2778.17" x2="6566.83" y2="2778.17"/>
    <polygon class="cls-2" points="6836.78 1043.78 6776.04 1084.28 6712.6 1119.37 6647.82 1149.06 6578.98 1173.36 6508.8 1193.6 6438.61 1207.1 6365.73 1215.2 6294.19 1217.9 3764.82 1217.9 3700.03 1208.45 3635.24 1193.6 3571.81 1174.71 3509.72 1150.41 3450.33 1122.07 3392.29 1089.67 3336.96 1051.88 3285.67 1011.39 3237.08 966.85 2262.58 4.5 7873.36 4.5 6836.78 1043.78"/>
    <path class="cls-2" d="M2617.56,2467.74l-755.84-758.54,68.84-67.49,754.49,757.19c147.94,148.54,352.66,227.38,562.09,217.89l106.02-3.24v95.18l-103.94,3.89c-235.63,10.04-465.22-77.78-631.66-244.89Z"/>
    <path class="cls-2" d="M2695.84,2303.07l-769.34-773.39,68.84-67.49h1.07l768.27,772.04c139.08,139.62,329.51,215.62,526.57,213.2l107.8-2.6v97.16l-106.68,2.61c-223.28,2.72-438.93-83.34-596.52-241.54Z"/>
    <path class="cls-2" d="M2747.13,2137.06l-834.13-836.83,67.3-68.65,834.31,837.99c138.66,139.14,326.85,218.59,523.28,219.13l106.67-1.65v97.18l-106.86.65c-222.2-.6-433.73-90.44-590.58-247.83Z"/>
    <path class="cls-2" d="M2915.84,1934.6l-938.11-939.35-67.43,68.78,936.71,939.4c152.43,152.81,364.36,230.07,579.72,215.63l77.59-3.73v-95.23l-80.89,3.12c-188.76,13.56-374.08-55.66-507.73-189.64"/>
    <path class="cls-2" d="M3062.96,1617.41L1957.54,499.22h-.72l-68.12,68.12,1106.77,1117.57.37-.53c149.34,151.01,358.69,226.84,570.1,206.49l31.5-4.36v-93.97l-36.25,2.5c-184.15,19.08-367.03-46.4-497.21-178.04"/>
    <path class="cls-2" d="M3183.09,1275.94L1948.67,29.61h-.05l-68.01,66.67,1233.64,1247.14-1.08-.69c147.52,149,351.93,227.46,561.26,215.45l14.13-1.6v-96.85l-17.03,1.27c-182.38,11.24-360.74-56.79-489.3-186.64"/>
    <polyline class="cls-2" points="6566.83 2778.17 6566.83 2848.36 3585.3 2848.36 3585.3 2778.17"/>
    <line class="cls-2" x1="8737.18" y1="8854.61" x2="8737.18" y2="8752.03"/>
    <line class="cls-2" x1="8294.47" y1="9251.43" x2="8294.47" y2="8436.19"/>
    <line class="cls-2" x1="8366.01" y1="8846.51" x2="8654.85" y2="8846.51"/>
    <line class="cls-2" x1="8654.85" y1="9142.1" x2="8366.01" y2="9142.1"/>
    <polyline class="cls-2" points="8247.23 9300.02 8737.18 9300.02 8737.18 9011.18"/>
    <line class="cls-2" x1="8654.85" y1="8846.51" x2="8654.85" y2="9142.1"/>
    <line class="cls-2" x1="8737.18" y1="8854.61" x2="8688.59" y2="8854.61"/>
    <line class="cls-2" x1="8366.01" y1="9142.1" x2="8366.01" y2="8846.51"/>
    <line class="cls-2" x1="10447.28" y1="8071.77" x2="9957.33" y2="8071.77"/>
    <line class="cls-2" x1="8737.18" y1="8071.77" x2="8247.23" y2="8071.77"/>
    <line class="cls-2" x1="8688.59" y1="8120.36" x2="8294.47" y2="8120.36"/>
    <line class="cls-2" x1="8366.01" y1="8469.94" x2="8654.85" y2="8469.94"/>
    <line class="cls-2" x1="8654.85" y1="8765.53" x2="8366.01" y2="8765.53"/>
    <line class="cls-2" x1="8688.59" y1="8436.19" x2="8294.47" y2="8436.19"/>
    <line class="cls-2" x1="8688.59" y1="8262.08" x2="8294.47" y2="8262.08"/>
    <line class="cls-2" x1="8654.85" y1="8469.94" x2="8654.85" y2="8765.53"/>
    <line class="cls-2" x1="8737.18" y1="8594.11" x2="8688.59" y2="8594.11"/>
    <line class="cls-2" x1="8366.01" y1="8765.53" x2="8366.01" y2="8469.94"/>
    <line class="cls-2" x1="6985.25" y1="8120.36" x2="6592.48" y2="8120.36"/>
    <line class="cls-2" x1="6543.89" y1="9300.02" x2="7033.84" y2="9300.02"/>
    <line class="cls-2" x1="6592.48" y1="9251.43" x2="6985.25" y2="9251.43"/>
    <line class="cls-2" x1="4854.04" y1="9300.02" x2="5343.99" y2="9300.02"/>
    <line class="cls-2" x1="4902.63" y1="9251.43" x2="5295.4" y2="9251.43"/>
    <line class="cls-2" x1="6985.25" y1="8787.12" x2="6592.48" y2="8787.12"/>
    <line class="cls-2" x1="6985.25" y1="8803.32" x2="6592.48" y2="8803.32"/>
    <line class="cls-2" x1="6985.25" y1="8542.82" x2="6592.48" y2="8542.82"/>
    <line class="cls-2" x1="6985.25" y1="8559.02" x2="6592.48" y2="8559.02"/>
    <line class="cls-2" x1="6985.25" y1="8927.49" x2="6592.48" y2="8927.49"/>
    <line class="cls-2" x1="6985.25" y1="8911.3" x2="6592.48" y2="8911.3"/>
    <line class="cls-2" x1="6985.25" y1="9050.32" x2="6592.48" y2="9050.32"/>
    <line class="cls-2" x1="6985.25" y1="9034.12" x2="6592.48" y2="9034.12"/>
    <line class="cls-2" x1="5295.4" y1="8994.98" x2="4902.63" y2="8994.98"/>
    <line class="cls-2" x1="5295.4" y1="8764.18" x2="4902.63" y2="8764.18"/>
    <line class="cls-2" x1="5295.4" y1="8872.15" x2="4902.63" y2="8872.15"/>
    <line class="cls-2" x1="5295.4" y1="8888.35" x2="4902.63" y2="8888.35"/>
    <line class="cls-2" x1="5295.4" y1="9011.18" x2="4902.63" y2="9011.18"/>
    <line class="cls-2" x1="5295.4" y1="8747.98" x2="5070" y2="8747.98"/>
    <line class="cls-2" x1="5195.52" y1="8375.46" x2="5005.21" y2="8375.46"/>
    <line class="cls-2" x1="5211.72" y1="8391.65" x2="5070" y2="8391.65"/>
    <line class="cls-2" x1="5053.8" y1="8391.65" x2="5053.8" y2="8747.98"/>
    <line class="cls-2" x1="5070" y1="8391.65" x2="5070" y2="8747.98"/>
    <line class="cls-2" x1="5195.52" y1="8120.36" x2="5195.52" y2="8375.46"/>
    <line class="cls-2" x1="5211.72" y1="8120.36" x2="5211.72" y2="8391.65"/>
    <line class="cls-2" x1="4989.01" y1="8120.36" x2="4989.01" y2="8375.46"/>
    <line class="cls-2" x1="5005.21" y1="8120.36" x2="5005.21" y2="8375.46"/>
    <line class="cls-2" x1="4989.01" y1="8375.46" x2="4902.63" y2="8375.46"/>
    <line class="cls-2" x1="5053.8" y1="8391.65" x2="4902.63" y2="8391.65"/>
    <line class="cls-2" x1="5053.8" y1="8747.98" x2="4902.63" y2="8747.98"/>
    <line class="cls-2" x1="3646.04" y1="9309.46" x2="3646.04" y2="6874.57"/>
    <line class="cls-2" x1="3597.45" y1="8577.92" x2="3204.68" y2="8577.92"/>
    <line class="cls-2" x1="3597.45" y1="8676.44" x2="3204.68" y2="8676.44"/>
    <line class="cls-2" x1="3597.45" y1="8692.64" x2="3204.68" y2="8692.64"/>
    <line class="cls-2" x1="3597.45" y1="8936.94" x2="3204.68" y2="8936.94"/>
    <line class="cls-2" x1="3597.45" y1="8953.14" x2="3204.68" y2="8953.14"/>
    <line class="cls-2" x1="3597.45" y1="8561.72" x2="3204.68" y2="8561.72"/>
    <line class="cls-2" x1="3597.45" y1="8418.65" x2="3204.68" y2="8418.65"/>
    <line class="cls-2" x1="3597.45" y1="8434.85" x2="3204.68" y2="8434.85"/>
    <line class="cls-2" x1="3597.45" y1="8143.31" x2="3204.68" y2="8143.31"/>
    <line class="cls-2" x1="3597.45" y1="9071.91" x2="3204.68" y2="9071.91"/>
    <line class="cls-2" x1="3597.45" y1="9055.72" x2="3204.68" y2="9055.72"/>
    <line class="cls-2" x1="4947.17" y1="3112.9" x2="4947.17" y2="3284.32"/>
    <polyline class="cls-2" points="6535.79 3112.9 5223.86 3112.9 5223.86 3284.32 4947.17 3284.32"/>
    <line class="cls-2" x1="4947.17" y1="3112.9" x2="5223.86" y2="3112.9"/>
    <polyline class="cls-2" points="6641.07 3203.33 6641.07 3021.12 6535.79 3021.12 6535.79 3048.12 3632.54 3048.12 3632.54 3034.62 3511.07 3034.62 3511.07 3214.13"/>
    <rect class="cls-2" x="3640.64" y="2617.56" width="2883" height="97.18"/>
    <rect class="cls-2" x="3686.53" y="2448.84" width="2797.97" height="97.18"/>
    <rect class="cls-2" x="3709.48" y="2286.87" width="2739.93" height="97.18"/>
    <rect class="cls-2" x="3756.72" y="2124.91" width="2646.8" height="95.83"/>
    <rect class="cls-2" x="3799.91" y="1958.89" width="2552.32" height="97.18"/>
    <rect class="cls-2" x="3969.97" y="1297.53" width="2208.14" height="97.18"/>
    <rect class="cls-2" x="3934.88" y="1462.2" width="2278.33" height="97.18"/>
    <rect class="cls-2" x="3893.04" y="1630.91" width="2374.16" height="97.18"/>
    <rect class="cls-2" x="3841.75" y="1795.58" width="2472.69" height="95.83"/>
    <line class="cls-2" x1="1950.79" y1="8098.77" x2="1460.85" y2="8098.77"/>
    <polyline class="cls-2" points="1529.68 9170.44 1888.71 9170.44 1888.71 8395.7 1529.68 8395.7 1529.68 9170.44"/>
    <line class="cls-2" x1="1950.79" y1="9309.46" x2="1950.79" y2="8893.75"/>
    <line class="cls-2" x1="3156.09" y1="9309.46" x2="3156.09" y2="8094.72"/>
    <polyline class="cls-2" points="1902.21 6840.83 1508.09 6840.83 1508.09 6449.41"/>
    <line class="cls-2" x1="185.36" y1="6842.18" x2="185.36" y2="6450.76"/>
    <line class="cls-2" x1="1460.85" y1="6889.42" x2="1460.85" y2="6400.82"/>
    <line class="cls-2" x1="1926.5" y1="5175.27" x2="1926.5" y2="4490.97"/>
    <polyline class="cls-2" points="7036.54 5164.48 6541.19 5164.48 6541.19 4675.88"/>
    <polyline class="cls-2" points="6529.04 4675.88 6529.04 5176.62 7037.89 5176.62 7037.89 5211.72 6493.95 5211.72 6493.95 4675.88"/>
    <line class="cls-2" x1="7031.14" y1="3462.48" x2="7031.14" y2="4675.88"/>
    <line class="cls-2" x1="7047.33" y1="4661.03" x2="8235.09" y2="4661.03"/>
    <line class="cls-2" x1="6993.35" y1="3462.48" x2="6993.35" y2="4675.88"/>
    <line class="cls-2" x1="7036.54" y1="4705.57" x2="8239.14" y2="4705.57"/>
    <line class="cls-2" x1="7036.54" y1="4675.88" x2="8235.09" y2="4675.88"/>
    <polyline class="cls-2" points="3678.44 5211.72 3678.44 4675.88 3133.15 4675.88"/>
    <polyline class="cls-2" points="3632.54 4675.88 3632.54 5164.48 3133.15 5164.48 3133.15 3322.11"/>
    <polyline class="cls-2" points="4902.63 4729.87 5279.2 4729.87 5279.2 5115.89"/>
    <rect class="cls-2" x="4843.24" y="4675.88" width="495.35" height="488.6"/>
    <rect class="cls-2" x="4831.1" y="4662.38" width="518.29" height="514.24"/>
    <polyline class="cls-2" points="4796 4627.29 5384.48 4627.29 5384.48 5211.72 4796 5211.72"/>
    <line class="cls-2" x1="8244.53" y1="5176.62" x2="8735.83" y2="5176.62"/>
    <line class="cls-2" x1="8735.83" y1="5211.72" x2="8244.53" y2="5211.72"/>
    <line class="cls-2" x1="10445.93" y1="5164.48" x2="8239.14" y2="5164.48"/>
    <polyline class="cls-2" points="8239.14 5164.48 8239.14 4675.88 8734.48 4675.88"/>
    <line class="cls-2" x1="8244.53" y1="5211.72" x2="8244.53" y2="5164.48"/>
    <polyline class="cls-2" points="8299.87 5115.89 8299.87 4729.87 8675.1 4729.87"/>
    <line class="cls-2" x1="8734.48" y1="4675.88" x2="8734.48" y2="5164.48"/>
    <line class="cls-2" x1="8235.09" y1="4661.03" x2="8235.09" y2="4675.88"/>
    <line class="cls-2" x1="10011.32" y1="5115.89" x2="10011.32" y2="4729.87"/>
    <line class="cls-2" x1="10445.93" y1="4675.88" x2="10445.93" y2="5164.48"/>
    <line class="cls-2" x1="10386.54" y1="4729.87" x2="10386.54" y2="5115.89"/>
    <line class="cls-2" x1="9950.58" y1="4675.88" x2="10445.93" y2="4675.88"/>
    <line class="cls-2" x1="10011.32" y1="4729.87" x2="10386.54" y2="4729.87"/>
    <line class="cls-2" x1="10445.93" y1="3440.89" x2="9950.58" y2="3440.89"/>
    <line class="cls-2" x1="10386.54" y1="3339.66" x2="10011.32" y2="3339.66"/>
    <line class="cls-2" x1="10011.32" y1="3056.21" x2="10386.54" y2="3056.21"/>
    <polyline class="cls-2" points="9950.58 3440.89 9950.58 2952.29 10445.93 2952.29"/>
    <line class="cls-2" x1="10011.32" y1="3339.66" x2="10011.32" y2="3056.21"/>
    <line class="cls-2" x1="10445.93" y1="2952.29" x2="10445.93" y2="3440.89"/>
    <line class="cls-2" x1="10386.54" y1="3056.21" x2="10386.54" y2="3339.66"/>
    <line class="cls-2" x1="10445.93" y1="1734.84" x2="9950.58" y2="1734.84"/>
    <rect class="cls-2" x="10011.32" y="1359.62" width="375.22" height="248.35"/>
    <line class="cls-2" x1="10386.54" y1="6811.13" x2="10011.32" y2="6811.13"/>
    <line class="cls-2" x1="9950.58" y1="6372.47" x2="10445.93" y2="6372.47"/>
    <line class="cls-2" x1="9950.58" y1="6859.72" x2="9950.58" y2="3443.58"/>
    <line class="cls-2" x1="10011.32" y1="6811.13" x2="10011.32" y2="6426.46"/>
    <line class="cls-2" x1="10445.93" y1="6372.47" x2="10445.93" y2="6859.72"/>
    <polyline class="cls-2" points="12156.02 6870.52 11662.02 6870.52 11662.02 6381.92"/>
    <line class="cls-2" x1="11787.55" y1="4766.31" x2="12102.03" y2="4766.31"/>
    <rect class="cls-2" x="11741.66" y="6441.31" width="305.04" height="359.03"/>
    <polyline class="cls-2" points="12115.53 6545.24 12156.02 6545.24 12156.02 6381.92"/>
    <rect class="cls-2" x="11662.02" y="2952.29" width="494" height="488.6"/>
    <polyline class="cls-2" points="11662.02 1238.14 11662.02 1726.74 12156.02 1726.74 12156.02 1238.14 11802.39 1238.14 11802.39 20.7 11777.4 20.7 8729.08 20.7 8611.66 20.7 8611.66 1242.19 8729.08 1242.19"/>
    <line class="cls-2" x1="4796" y1="6337.38" x2="5384.48" y2="6337.38"/>
    <line class="cls-2" x1="5349.39" y1="6373.82" x2="4831.1" y2="6373.82"/>
    <line class="cls-2" x1="4831.1" y1="6886.72" x2="5349.39" y2="6886.72"/>
    <line class="cls-2" x1="5384.48" y1="6923.16" x2="4796" y2="6923.16"/>
    <line class="cls-2" x1="5338.59" y1="6874.57" x2="4843.24" y2="6874.57"/>
    <polyline class="cls-2" points="4843.24 6874.57 4843.24 6387.32 5338.59 6387.32"/>
    <line class="cls-2" x1="4831.1" y1="6886.72" x2="4831.1" y2="6373.82"/>
    <line class="cls-2" x1="4796" y1="6923.16" x2="4796" y2="6337.38"/>
    <line class="cls-2" x1="5279.2" y1="6825.98" x2="4902.63" y2="6825.98"/>
    <polyline class="cls-2" points="4902.63 6825.98 4902.63 6441.31 5279.2 6441.31 5279.2 6825.98"/>
    <line class="cls-2" x1="5349.39" y1="6886.72" x2="5349.39" y2="6373.82"/>
    <line class="cls-2" x1="5338.59" y1="6387.32" x2="5338.59" y2="6874.57"/>
    <line class="cls-2" x1="3650.09" y1="6387.32" x2="3650.09" y2="6874.57"/>
    <line class="cls-2" x1="3214.13" y1="6825.98" x2="3214.13" y2="6441.31"/>
    <line class="cls-2" x1="3142.6" y1="6886.72" x2="3142.6" y2="6373.82"/>
    <polyline class="cls-2" points="3650.09 6874.57 3154.74 6874.57 3154.74 6387.32"/>
    <line class="cls-2" x1="3590.7" y1="6825.98" x2="3214.13" y2="6825.98"/>
    <line class="cls-2" x1="3154.74" y1="6387.32" x2="3650.09" y2="6387.32"/>
    <line class="cls-2" x1="3660.89" y1="6373.82" x2="3142.6" y2="6373.82"/>
    <line class="cls-2" x1="3214.13" y1="6441.31" x2="3590.7" y2="6441.31"/>
    <line class="cls-2" x1="7018.99" y1="6387.32" x2="7018.99" y2="6874.57"/>
    <line class="cls-2" x1="7031.14" y1="6886.72" x2="7031.14" y2="6373.82"/>
    <line class="cls-2" x1="6959.6" y1="6441.31" x2="6959.6" y2="6825.98"/>
    <line class="cls-2" x1="6511.5" y1="6886.72" x2="6511.5" y2="6373.82"/>
    <polyline class="cls-2" points="7018.99 6874.57 6524.99 6874.57 6524.99 6387.32"/>
    <line class="cls-2" x1="7066.23" y1="6923.16" x2="6477.75" y2="6923.16"/>
    <line class="cls-2" x1="6511.5" y1="6886.72" x2="7031.14" y2="6886.72"/>
    <line class="cls-2" x1="6524.99" y1="6387.32" x2="7018.99" y2="6387.32"/>
    <line class="cls-2" x1="7031.14" y1="6373.82" x2="6511.5" y2="6373.82"/>
    <line class="cls-2" x1="6477.75" y1="6337.38" x2="7066.23" y2="6337.38"/>
    <line class="cls-2" x1="8731.78" y1="6387.32" x2="8731.78" y2="6874.57"/>
    <line class="cls-2" x1="8777.67" y1="6923.16" x2="8777.67" y2="6337.38"/>
    <line class="cls-2" x1="8743.93" y1="6886.72" x2="8743.93" y2="6373.82"/>
    <line class="cls-2" x1="8672.4" y1="6441.31" x2="8672.4" y2="6825.98"/>
    <line class="cls-2" x1="8297.17" y1="6825.98" x2="8297.17" y2="6441.31"/>
    <line class="cls-2" x1="8224.29" y1="6886.72" x2="8224.29" y2="6373.82"/>
    <polyline class="cls-2" points="8731.78 6874.57 8236.44 6874.57 8236.44 6387.32"/>
    <line class="cls-2" x1="8777.67" y1="6923.16" x2="8189.2" y2="6923.16"/>
    <line class="cls-2" x1="8224.29" y1="6886.72" x2="8743.93" y2="6886.72"/>
    <line class="cls-2" x1="8236.44" y1="6387.32" x2="8731.78" y2="6387.32"/>
    <line class="cls-2" x1="8743.93" y1="6373.82" x2="8610.31" y2="6373.82"/>
    <line class="cls-2" x1="8297.17" y1="6441.31" x2="8672.4" y2="6441.31"/>
    <line class="cls-2" x1="8603.56" y1="6387.32" x2="8603.56" y2="6441.31"/>
    <line class="cls-2" x1="8367.36" y1="6387.32" x2="8367.36" y2="6441.31"/>
    <line class="cls-2" x1="8610.31" y1="6337.38" x2="8610.31" y2="6373.82"/>
    <polyline class="cls-2" points="8224.29 6373.82 8363.31 6373.82 8363.31 6337.38"/>
    <line class="cls-2" x1="11911.72" y1="1726.74" x2="11911.72" y2="2950.43"/>
    <line class="cls-2" x1="11911.72" y1="5164.48" x2="11911.72" y2="6381.92"/>
    <line class="cls-2" x1="1435.2" y1="5175.27" x2="1435.2" y2="4688.03"/>
    <polyline class="cls-2" points="1877.91 5126.68 1877.91 4736.62 1483.79 4736.62 1483.79 5126.68"/>
    <line class="cls-2" x1="20.7" y1="3026.52" x2="162.42" y2="3026.52"/>
    <line class="cls-2" x1="4.5" y1="2969.83" x2="219.11" y2="2969.83"/>
    <line class="cls-2" x1="162.42" y1="3026.52" x2="162.42" y2="3413.89"/>
    <line class="cls-2" x1="219.11" y1="2969.83" x2="219.11" y2="3470.58"/>
    <line class="cls-2" x1="162.42" y1="3413.89" x2="20.7" y2="3413.89"/>
    <polyline class="cls-2" points="166.47 4748.76 166.47 5129.38 71.99 5129.38"/>
    <line class="cls-2" x1="448.56" y1="5186.07" x2="71.99" y2="5186.07"/>
    <line class="cls-2" x1="23.4" y1="4939.07" x2="71.99" y2="4939.07"/>
    <line class="cls-2" x1="23.4" y1="4746.06" x2="166.47" y2="4746.06"/>
    <polyline class="cls-2" points="20.7 1315.08 162.42 1315.08 162.42 1690.3 20.7 1690.3"/>
    <line class="cls-2" x1="1486.49" y1="1746.99" x2="1486.49" y2="2940.14"/>
    <line class="cls-2" x1="1472.99" y1="2953.64" x2="1472.99" y2="1746.99"/>
    <line class="cls-2" x1="1926.5" y1="5117.24" x2="2100.61" y2="5117.24"/>
    <line class="cls-2" x1="1926.5" y1="5101.04" x2="2093.87" y2="5101.04"/>
    <line class="cls-2" x1="2100.61" y1="5117.24" x2="2300.37" y2="4908.03"/>
    <line class="cls-2" x1="2093.87" y1="5101.04" x2="2270.68" y2="4916.13"/>
    <line class="cls-2" x1="3085.91" y1="4698.82" x2="3085.91" y2="5211.72"/>
    <polyline class="cls-2" points="3085.91 5164.48 3071.06 5164.48 3071.06 4702.87"/>
    <line class="cls-2" x1="2081.72" y1="5060.55" x2="2207.24" y2="4933.67"/>
    <polyline class="cls-2" points="3122.35 4689.37 3122.35 5176.62 3644.69 5176.62 3644.69 4675.88"/>
    <line class="cls-2" x1="2196.44" y1="5017.36" x2="3071.06" y2="5017.36"/>
    <line class="cls-2" x1="2243.68" y1="4968.77" x2="3071.06" y2="4968.77"/>
    <line class="cls-2" x1="2288.22" y1="4921.53" x2="3071.06" y2="4921.53"/>
    <line class="cls-2" x1="2475.84" y1="4862.14" x2="3071.06" y2="4862.14"/>
    <line class="cls-2" x1="2647.25" y1="4816.25" x2="3071.06" y2="4816.25"/>
    <line class="cls-2" x1="2830.81" y1="4766.31" x2="3071.06" y2="4766.31"/>
    <line class="cls-2" x1="2609.46" y1="5065.95" x2="2609.46" y2="4825.7"/>
    <line class="cls-2" x1="1864.41" y1="4688.03" x2="1864.41" y2="3470.58"/>
    <line class="cls-2" x1="2307.12" y1="4442.38" x2="1864.41" y2="4442.38"/>
    <line class="cls-2" x1="2377.31" y1="4207.53" x2="1864.41" y2="4207.53"/>
    <polyline class="cls-2" points="1899.51 4688.03 1899.51 4490.97 2293.62 4490.97 2392.15 4158.94 1899.51 4158.94 1899.51 3470.58"/>
    <line class="cls-2" x1="2205.89" y1="4442.38" x2="2205.89" y2="4207.53"/>
    <line class="cls-2" x1="2155.95" y1="4442.38" x2="2155.95" y2="4207.53"/>
    <line class="cls-2" x1="2308.47" y1="4324.95" x2="1910.3" y2="4326.3"/>
    <line class="cls-2" x1="2250.43" y1="4442.38" x2="2250.43" y2="4207.53"/>
    <line class="cls-2" x1="2308.47" y1="4436.98" x2="2308.47" y2="4207.53"/>
    <line class="cls-2" x1="2357.06" y1="4273.66" x2="2357.06" y2="4207.53"/>
    <line class="cls-2" x1="2104.66" y1="4442.38" x2="2104.66" y2="4207.53"/>
    <line class="cls-2" x1="2062.82" y1="4442.38" x2="2062.82" y2="4207.53"/>
    <line class="cls-2" x1="2014.23" y1="4442.38" x2="2014.23" y2="4207.53"/>
    <line class="cls-2" x1="1962.94" y1="4442.38" x2="1962.94" y2="4207.53"/>
    <line class="cls-2" x1="1910.3" y1="4442.38" x2="1910.3" y2="4207.53"/>
    <line class="cls-2" x1="3145.3" y1="4675.88" x2="3145.3" y2="3471.93"/>
    <polyline class="cls-2" points="11894.18 6870.52 11894.18 7831.52 12120.93 7831.52 12159.33 7831.52"/>
    <line class="cls-2" x1="10301.51" y1="5590.99" x2="9904.69" y2="5590.99"/>
    <line class="cls-2" x1="10300.16" y1="5607.18" x2="9895.24" y2="5607.18"/>
    <line class="cls-2" x1="9904.69" y1="5547.8" x2="10304.21" y2="5547.8"/>
    <line class="cls-2" x1="9895.24" y1="5531.6" x2="10306.91" y2="5531.6"/>
    <line class="cls-2" x1="10335.25" y1="5211.72" x2="9943.83" y2="5211.72"/>
    <line class="cls-2" x1="10333.9" y1="5227.91" x2="9943.83" y2="5227.91"/>
    <path class="cls-2" d="M9905.36,5531.6c-20.5,0-37.12,16.62-37.12,37.12s16.62,37.12,37.12,37.12"/>
    <path class="cls-2" d="M9905.36,5547.8c-11.55,0-20.92,9.37-20.92,20.92s9.37,20.92,20.92,20.92"/>
    <line class="cls-2" x1="9904.69" y1="5939.21" x2="10269.11" y2="5939.21"/>
    <line class="cls-2" x1="10266.41" y1="5982.41" x2="9904.69" y2="5982.41"/>
    <line class="cls-2" x1="10263.71" y1="5998.6" x2="9895.24" y2="5998.6"/>
    <line class="cls-2" x1="9895.24" y1="5923.02" x2="10271.81" y2="5923.02"/>
    <path class="cls-2" d="M9905.36,5923.02c-20.5,0-37.12,16.62-37.12,37.12s16.62,37.12,37.12,37.12"/>
    <path class="cls-2" d="M9905.36,5939.21c-11.55,0-20.92,9.37-20.92,20.92s9.37,20.92,20.92,20.92"/>
    <path class="cls-2" d="M9944.51,5126.68c-27.95,0-50.61,22.66-50.61,50.61s22.66,50.61,50.61,50.61"/>
    <path class="cls-2" d="M9944.51,5142.88c-19.01,0-34.42,15.41-34.42,34.42s15.41,34.42,34.42,34.42"/>
    <line class="cls-2" x1="9950.58" y1="5126.68" x2="9943.83" y2="5126.68"/>
    <line class="cls-2" x1="9950.58" y1="5142.88" x2="9943.83" y2="5142.88"/>
    <line class="cls-2" x1="10238.07" y1="6298.24" x2="9943.83" y2="6298.24"/>
    <line class="cls-2" x1="10235.37" y1="6314.44" x2="9943.83" y2="6314.44"/>
    <path class="cls-2" d="M9944.51,6298.24c-27.95,0-50.61,22.66-50.61,50.61s22.66,50.61,50.61,50.61"/>
    <path class="cls-2" d="M9944.51,6314.44c-19.01,0-34.42,15.41-34.42,34.42s15.41,34.42,34.42,34.42"/>
    <line class="cls-2" x1="9950.58" y1="6399.47" x2="9943.83" y2="6399.47"/>
    <line class="cls-2" x1="9950.58" y1="6383.27" x2="9943.83" y2="6383.27"/>
    <line class="cls-2" x1="9993.77" y1="5765.1" x2="10285.31" y2="5765.1"/>
    <line class="cls-2" x1="9993.77" y1="5164.48" x2="9993.77" y2="5211.72"/>
    <line class="cls-2" x1="9993.77" y1="5607.18" x2="9993.77" y2="5923.02"/>
    <line class="cls-2" x1="9993.77" y1="5939.21" x2="9993.77" y2="5982.41"/>
    <line class="cls-2" x1="10045.06" y1="5939.21" x2="10045.06" y2="5982.41"/>
    <line class="cls-2" x1="10045.06" y1="5607.18" x2="10045.06" y2="5923.02"/>
    <line class="cls-2" x1="10045.06" y1="5164.48" x2="10045.06" y2="5211.72"/>
    <line class="cls-2" x1="10089.6" y1="5164.48" x2="10089.6" y2="5211.72"/>
    <line class="cls-2" x1="10089.6" y1="5607.18" x2="10089.6" y2="5923.02"/>
    <line class="cls-2" x1="10089.6" y1="5939.21" x2="10089.6" y2="5982.41"/>
    <line class="cls-2" x1="10139.54" y1="5164.48" x2="10139.54" y2="5211.72"/>
    <line class="cls-2" x1="10139.54" y1="5607.18" x2="10139.54" y2="5923.02"/>
    <line class="cls-2" x1="10139.54" y1="5939.21" x2="10139.54" y2="5982.41"/>
    <line class="cls-2" x1="10184.08" y1="5164.48" x2="10184.08" y2="5211.72"/>
    <line class="cls-2" x1="10184.08" y1="5607.18" x2="10184.08" y2="5923.02"/>
    <line class="cls-2" x1="10184.08" y1="5939.21" x2="10184.08" y2="5982.41"/>
    <line class="cls-2" x1="10238.07" y1="5164.48" x2="10238.07" y2="5211.72"/>
    <line class="cls-2" x1="10238.07" y1="5607.18" x2="10238.07" y2="5923.02"/>
    <line class="cls-2" x1="10238.07" y1="5939.21" x2="10238.07" y2="5982.41"/>
    <line class="cls-2" x1="10283.96" y1="5164.48" x2="10283.96" y2="5211.72"/>
    <line class="cls-2" x1="10283.96" y1="5607.18" x2="10283.96" y2="5775.9"/>
    <line class="cls-2" x1="10445.93" y1="6439.96" x2="11662.02" y2="6439.96"/>
    <line class="cls-2" x1="10445.93" y1="6415.67" x2="11662.02" y2="6415.67"/>
    <line class="cls-2" x1="11662.02" y1="6381.92" x2="12156.02" y2="6381.92"/>
    <line class="cls-2" x1="233.95" y1="6889.42" x2="233.95" y2="6400.82"/>
    <line class="cls-2" x1="10283.96" y1="5227.91" x2="10283.96" y2="5531.6"/>
    <line class="cls-2" x1="10238.07" y1="5227.91" x2="10238.07" y2="5531.6"/>
    <line class="cls-2" x1="10184.08" y1="5227.91" x2="10184.08" y2="5531.6"/>
    <line class="cls-2" x1="10139.54" y1="5227.91" x2="10139.54" y2="5531.6"/>
    <line class="cls-2" x1="10089.6" y1="5227.91" x2="10089.6" y2="5531.6"/>
    <line class="cls-2" x1="10045.06" y1="5227.91" x2="10045.06" y2="5531.6"/>
    <line class="cls-2" x1="9993.77" y1="5227.91" x2="9993.77" y2="5531.6"/>
    <line class="cls-2" x1="10238.07" y1="5547.8" x2="10238.07" y2="5590.99"/>
    <line class="cls-2" x1="10283.96" y1="5547.8" x2="10283.96" y2="5590.99"/>
    <line class="cls-2" x1="10184.08" y1="5547.8" x2="10184.08" y2="5590.99"/>
    <line class="cls-2" x1="10139.54" y1="5547.8" x2="10139.54" y2="5590.99"/>
    <line class="cls-2" x1="10089.6" y1="5547.8" x2="10089.6" y2="5590.99"/>
    <line class="cls-2" x1="10045.06" y1="5547.8" x2="10045.06" y2="5590.99"/>
    <line class="cls-2" x1="9993.77" y1="5547.8" x2="9993.77" y2="5590.99"/>
    <line class="cls-2" x1="9993.77" y1="5998.6" x2="9993.77" y2="6298.24"/>
    <line class="cls-2" x1="10045.06" y1="5998.6" x2="10045.06" y2="6298.24"/>
    <line class="cls-2" x1="10089.6" y1="5998.6" x2="10089.6" y2="6298.24"/>
    <line class="cls-2" x1="10139.54" y1="5998.6" x2="10139.54" y2="6298.24"/>
    <line class="cls-2" x1="10184.08" y1="5998.6" x2="10184.08" y2="6298.24"/>
    <line class="cls-2" x1="10238.07" y1="5998.6" x2="10238.07" y2="6298.24"/>
    <line class="cls-2" x1="10184.08" y1="6314.44" x2="10184.08" y2="6372.47"/>
    <line class="cls-2" x1="10139.54" y1="6314.44" x2="10139.54" y2="6372.47"/>
    <line class="cls-2" x1="10089.6" y1="6314.44" x2="10089.6" y2="6372.47"/>
    <line class="cls-2" x1="10045.06" y1="6314.44" x2="10045.06" y2="6372.47"/>
    <line class="cls-2" x1="9993.77" y1="6314.44" x2="9993.77" y2="6372.47"/>
    <line class="cls-2" x1="11763.25" y1="5164.48" x2="11763.25" y2="6381.92"/>
    <line class="cls-2" x1="11779.45" y1="5164.48" x2="11779.45" y2="6381.92"/>
    <line class="cls-2" x1="10771.21" y1="8114.96" x2="10771.21" y2="8082.57"/>
    <line class="cls-2" x1="10740.17" y1="8114.96" x2="10740.17" y2="8082.57"/>
    <line class="cls-2" x1="11354.29" y1="8114.96" x2="11354.29" y2="8082.57"/>
    <line class="cls-2" x1="11354.29" y1="8098.77" x2="11655.28" y2="8098.77"/>
    <line class="cls-2" x1="10447.28" y1="8098.77" x2="10740.17" y2="8098.77"/>
    <polyline class="cls-2" points="11799.69 8071.77 11832.09 8101.46 11964.36 8101.46 11996.75 8071.77"/>
    <line class="cls-2" x1="12156.02" y1="6858.37" x2="12156.02" y2="6870.52"/>
    <polyline class="cls-2" points="10445.93 1734.84 10445.93 1255.69 9950.58 1255.69 9950.58 1398.76 9982.97 1431.15 9982.97 1559.38 9950.58 1591.77 9950.58 1734.84"/>
    <path class="cls-2" d="M2996.83,1786.13L1965.99,760.34h-.35l-67.49,68.84,1029.84,1024.44.87-.95c159.1,158.28,383.1,232.98,605.35,201.88l13.29-3.17v-95.72l-20.15,3.05c-194.53,29.29-391.45-35.24-530.92-173.98"/>
    <path class="cls-2" d="M3034.62,1481.09L1884.66,340.58l67.49-68.84h.51l1150.8,1140.51.24.34c131.99,130.85,307.46,208.64,493.05,218.58l47.95-.27v97.18l-52.66-1.2c-209.21-11.1-407.03-98.75-555.8-246.24"/>
    <polygon class="cls-2" points="3137.2 1130.17 2010.18 4.5 2146.5 4.5 3204.68 1062.68 3251.92 1105.87 3301.86 1145.01 3354.5 1180.11 3411.19 1211.15 3467.88 1238.14 3528.62 1259.74 3589.35 1277.28 3651.44 1290.78 3714.88 1297.53 3737.82 1297.53 3737.82 1394.71 3710.83 1394.71 3639.29 1386.61 3569.11 1371.77 3500.27 1352.87 3432.79 1328.57 3368 1298.88 3305.91 1263.79 3246.53 1223.3 3189.84 1178.76 3137.2 1130.17"/>
    <polyline class="cls-2" points="219.11 1405.51 184.01 1436.55 184.01 1568.82 219.11 1601.22"/>
    <line class="cls-2" x1="219.11" y1="1259.74" x2="219.11" y2="1746.99"/>
    <line class="cls-2" x1="219.11" y1="1308.33" x2="494.45" y2="1308.33"/>
    <line class="cls-2" x1="758.99" y1="1271.89" x2="883.17" y2="1271.89"/>
    <line class="cls-2" x1="1147.71" y1="1271.89" x2="1423.05" y2="1271.89"/>
    <line class="cls-2" x1="1147.71" y1="1308.33" x2="1423.05" y2="1308.33"/>
    <line class="cls-2" x1="2073.62" y1="2413.75" x2="2081.72" y2="2420.5"/>
    <polyline class="cls-2" points="1587.72 4688.03 1616.06 4717.72 1744.29 4717.72 1773.98 4688.03"/>
    <line class="cls-2" x1="3156.09" y1="9093.51" x2="1950.79" y2="9093.51"/>
    <line class="cls-2" x1="3156.09" y1="9081.36" x2="1950.79" y2="9081.36"/>
    <line class="cls-2" x1="2914.49" y1="9093.51" x2="2914.49" y2="9069.21"/>
    <line class="cls-2" x1="2674.24" y1="9093.51" x2="2674.24" y2="9069.21"/>
    <line class="cls-2" x1="2432.64" y1="9093.51" x2="2432.64" y2="9069.21"/>
    <line class="cls-2" x1="2191.04" y1="9093.51" x2="2191.04" y2="9069.21"/>
    <line class="cls-2" x1="8688.59" y1="8932.89" x2="8680.49" y2="8932.89"/>
    <line class="cls-2" x1="8688.59" y1="8672.4" x2="8680.49" y2="8672.4"/>
    <line class="cls-2" x1="10012.67" y1="8932.89" x2="10004.57" y2="8932.89"/>
    <line class="cls-2" x1="10012.67" y1="8672.4" x2="10004.57" y2="8672.4"/>
    <line class="cls-2" x1="11779.45" y1="5407.43" x2="11763.25" y2="5407.43"/>
    <line class="cls-2" x1="11779.45" y1="5651.72" x2="11763.25" y2="5651.72"/>
    <line class="cls-2" x1="11779.45" y1="5894.67" x2="11763.25" y2="5894.67"/>
    <line class="cls-2" x1="11779.45" y1="6137.62" x2="11763.25" y2="6137.62"/>
    <polygon class="cls-2" points="12156.02 4766.31 12156.02 4708.27 12181.67 4708.27 12181.67 4675.88 11662.02 4675.88 11662.02 5164.48 12156.02 5164.48 12156.02 4766.31"/>
    <polyline class="cls-2" points="12156.02 3044.07 12118.23 3044.07 12118.23 3353.15 12156.02 3353.15"/>
    <rect class="cls-2" x="11751.78" y="3044.07" width="314.48" height="309.09"/>
    <rect class="cls-2" x="11787.55" y="1328.57" width="314.48" height="309.09"/>
    <line class="cls-2" x1="3646.04" y1="3463.83" x2="3632.54" y2="3463.83"/>
    <line class="cls-2" x1="3637.94" y1="3471.93" x2="3632.54" y2="3471.93"/>
    <line class="cls-2" x1="6519.59" y1="3454.38" x2="6535.79" y2="3454.38"/>
    <line class="cls-2" x1="6527.69" y1="3462.48" x2="6535.79" y2="3462.48"/>
    <polyline class="cls-2" points="5889.28 4046.91 5889.28 4168.38 5912.22 4168.38 5912.22 4046.91 5889.28 4046.91"/>
    <polyline class="cls-2" points="4300.66 4046.91 4324.95 4046.91 4324.95 4168.38 4300.66 4168.38 4300.66 4046.91"/>
    <line class="cls-2" x1="6333.33" y1="3640.64" x2="6349.53" y2="3640.64"/>
    <line class="cls-2" x1="6341.43" y1="3640.64" x2="5912.22" y2="4072.55"/>
    <line class="cls-2" x1="6527.69" y1="3462.48" x2="6349.53" y2="3640.64"/>
    <line class="cls-2" x1="6519.59" y1="3454.38" x2="6333.33" y2="3640.64"/>
    <line class="cls-2" x1="3821.51" y1="3640.64" x2="3839.05" y2="3640.64"/>
    <line class="cls-2" x1="3829.6" y1="3640.64" x2="4300.66" y2="4072.55"/>
    <line class="cls-2" x1="3646.04" y1="3463.83" x2="3839.05" y2="3640.64"/>
    <line class="cls-2" x1="3637.94" y1="3471.93" x2="3821.51" y2="3640.64"/>
    <line class="cls-2" x1="5566.69" y1="4046.91" x2="4646.18" y2="4046.91"/>
    <polyline class="cls-2" points="5566.69 4046.91 5566.69 4168.38 4646.18 4168.38"/>
    <line class="cls-2" x1="5885.23" y1="4168.38" x2="5878.48" y2="4168.38"/>
    <line class="cls-2" x1="5878.48" y1="4168.38" x2="5878.48" y2="4010.47"/>
    <line class="cls-2" x1="5885.23" y1="4168.38" x2="5885.23" y2="4010.47"/>
    <rect class="cls-1" x="5569.39" y="4010.47" width="6.75" height="157.92"/>
    <line class="cls-2" x1="4646.18" y1="4168.38" x2="4646.18" y2="4046.91"/>
    <line class="cls-2" x1="4326.3" y1="4168.38" x2="4333.05" y2="4168.38"/>
    <line class="cls-2" x1="4333.05" y1="4168.38" x2="4333.05" y2="4010.47"/>
    <rect class="cls-1" x="4636.74" y="4010.47" width="6.75" height="157.92"/>
    <line class="cls-2" x1="4326.3" y1="4168.38" x2="4326.3" y2="4010.47"/>
    <polyline class="cls-2" points="8208.09 4840.54 8208.09 5033.55 8239.14 5033.55"/>
    <polyline class="cls-2" points="8239.14 5105.09 7669.55 5105.09 7669.55 5041.65"/>
    <line class="cls-2" x1="8078.52" y1="5186.07" x2="8078.52" y2="5041.65"/>
    <line class="cls-2" x1="8239.14" y1="4840.54" x2="7036.54" y2="4840.54"/>
    <line class="cls-2" x1="8078.52" y1="5041.65" x2="7036.54" y2="5041.65"/>
    <line class="cls-2" x1="8244.53" y1="5186.07" x2="7037.89" y2="5186.07"/>
    <polyline class="cls-2" points="7784.28 4733.92 7743.79 4733.92 7743.79 4817.6 7784.28 4817.6 7784.28 4733.92"/>
    <polyline class="cls-2" points="7735.69 4733.92 7626.36 4733.92 7626.36 4817.6 7735.69 4817.6 7735.69 4733.92"/>
    <polyline class="cls-2" points="7460.35 4733.92 7500.84 4733.92 7500.84 4817.6 7460.35 4817.6 7460.35 4733.92"/>
    <polyline class="cls-2" points="7508.94 4733.92 7618.27 4733.92 7618.27 4817.6 7508.94 4817.6 7508.94 4733.92"/>
    <polyline class="cls-2" points="9906.04 4770.36 9939.78 4770.36 9939.78 4773.06 9903.34 4773.06"/>
    <line class="cls-2" x1="9895.24" y1="4781.16" x2="9947.88" y2="4781.16"/>
    <polyline class="cls-2" points="8769.58 4770.36 8737.18 4770.36 8737.18 4773.06 8772.27 4773.06"/>
    <line class="cls-2" x1="8729.08" y1="4781.16" x2="8780.37" y2="4781.16"/>
    <line class="cls-2" x1="9950.58" y1="4675.88" x2="9950.58" y2="3443.58"/>
    <line class="cls-2" x1="9950.58" y1="2945.54" x2="9950.58" y2="1736.19"/>
    <polyline class="cls-2" points="9942.48 1675.45 9906.04 1675.45 9906.04 4770.36"/>
    <polyline class="cls-2" points="9942.48 1671.4 9903.34 1671.4 9903.34 4773.06"/>
    <line class="cls-2" x1="9950.58" y1="1663.3" x2="9895.24" y2="1663.3"/>
    <line class="cls-2" x1="8737.18" y1="1671.4" x2="8737.18" y2="1675.45"/>
    <line class="cls-2" x1="8769.58" y1="4770.36" x2="8769.58" y2="1675.45"/>
    <line class="cls-2" x1="8772.27" y1="4773.06" x2="8772.27" y2="1671.4"/>
    <line class="cls-2" x1="8737.18" y1="1675.45" x2="8769.58" y2="1675.45"/>
    <line class="cls-2" x1="8737.18" y1="1671.4" x2="8772.27" y2="1671.4"/>
    <polyline class="cls-2" points="8729.08 1663.3 8780.37 1663.3 8780.37 4781.16"/>
    <line class="cls-2" x1="8780.37" y1="1741.59" x2="9895.24" y2="1741.59"/>
    <line class="cls-2" x1="9958.68" y1="3443.58" x2="9958.68" y2="4675.88"/>
    <line class="cls-2" x1="8726.38" y1="3459.78" x2="8726.38" y2="4675.88"/>
    <line class="cls-2" x1="9895.24" y1="1663.3" x2="9895.24" y2="4781.16"/>
    <line class="cls-2" x1="8734.48" y1="4675.88" x2="8729.08" y2="1736.19"/>
    <line class="cls-2" x1="9942.48" y1="1671.4" x2="9942.48" y2="1675.45"/>
    <line class="cls-2" x1="9950.58" y1="5164.48" x2="8734.48" y2="5164.48"/>
    <polyline class="cls-2" points="10598.45 1246.24 10718.57 1285.38 10598.45 1325.87 10598.45 1246.24"/>
    <line class="cls-2" x1="10718.57" y1="1285.38" x2="11629.63" y2="1285.38"/>
    <line class="cls-2" x1="10476.97" y1="1744.29" x2="10476.97" y2="1246.24"/>
    <polyline class="cls-2" points="11629.63 1246.24 10452.68 1246.24 10452.68 1744.29"/>
    <line class="cls-2" x1="11401.53" y1="1366.37" x2="11401.53" y2="1325.87"/>
    <line class="cls-2" x1="10946.67" y1="1366.37" x2="10946.67" y2="1325.87"/>
    <line class="cls-2" x1="11173.43" y1="1366.37" x2="11173.43" y2="1325.87"/>
    <line class="cls-2" x1="10718.57" y1="1366.37" x2="10718.57" y2="1246.24"/>
    <line class="cls-2" x1="10476.97" y1="1648.46" x2="11630.98" y2="1648.46"/>
    <line class="cls-2" x1="10718.57" y1="1366.37" x2="11629.63" y2="1366.37"/>
    <line class="cls-2" x1="10476.97" y1="1325.87" x2="11629.63" y2="1325.87"/>
    <polyline class="cls-2" points="11630.98 1744.29 11630.98 1246.24 11655.28 1246.24 11655.28 1744.29 10452.68 1744.29"/>
    <line class="cls-2" x1="219.11" y1="3463.83" x2="424.26" y2="3463.83"/>
    <line class="cls-2" x1="27.45" y1="3704.08" x2="424.26" y2="3704.08"/>
    <line class="cls-2" x1="424.26" y1="5227.91" x2="432.36" y2="5227.91"/>
    <line class="cls-2" x1="424.26" y1="5227.91" x2="424.26" y2="1698.4"/>
    <line class="cls-2" x1="432.36" y1="5227.91" x2="432.36" y2="1698.4"/>
    <line class="cls-2" x1="448.56" y1="1666" x2="472.85" y2="1666"/>
    <polyline class="cls-2" points="448.56 1666 448.56 5260.31 472.85 5260.31 472.85 1666"/>
    <line class="cls-2" x1="219.11" y1="2320.62" x2="424.26" y2="2320.62"/>
    <polyline class="cls-2" points="219.11 1746.99 219.11 1953.49 211.01 1953.49"/>
    <line class="cls-2" x1="424.26" y1="1698.4" x2="432.36" y2="1698.4"/>
    <line class="cls-2" x1="211.01" y1="1953.49" x2="211.01" y2="1746.99"/>
    <line class="cls-2" x1="1463.55" y1="2964.43" x2="1424.4" y2="2964.43"/>
    <line class="cls-2" x1="1448.7" y1="2964.43" x2="1448.7" y2="1746.99"/>
    <polyline class="cls-2" points="1423.05 2964.43 1423.05 1746.99 1423.05 1377.16 1423.05 4.5 20.7 4.5 20.7 694.21 20.7 1746.99"/>
    <line class="cls-2" x1="1424.4" y1="3463.83" x2="472.85" y2="3463.83"/>
    <line class="cls-2" x1="483.65" y1="6828.68" x2="483.65" y2="6615.42"/>
    <line class="cls-2" x1="1235.44" y1="6417.02" x2="1460.85" y2="6417.02"/>
    <line class="cls-2" x1="993.84" y1="6417.02" x2="1219.25" y2="6417.02"/>
    <line class="cls-2" x1="752.24" y1="6417.02" x2="977.65" y2="6417.02"/>
    <polyline class="cls-2" points="736.05 6449.41 737.4 6740.95 753.59 6740.95 752.24 6417.02"/>
    <line class="cls-2" x1="736.05" y1="6433.21" x2="736.05" y2="6417.02"/>
    <line class="cls-2" x1="660.46" y1="6696.41" x2="660.46" y2="6712.6"/>
    <line class="cls-2" x1="659.11" y1="6433.21" x2="659.11" y2="6449.41"/>
    <line class="cls-2" x1="233.95" y1="6884.02" x2="483.65" y2="6884.02"/>
    <line class="cls-2" x1="420.21" y1="6889.42" x2="420.21" y2="6884.02"/>
    <line class="cls-2" x1="421.56" y1="6884.02" x2="421.56" y2="6889.42"/>
    <line class="cls-2" x1="298.74" y1="6889.42" x2="298.74" y2="6884.02"/>
    <line class="cls-2" x1="296.04" y1="6884.02" x2="296.04" y2="6889.42"/>
    <line class="cls-2" x1="233.95" y1="6889.42" x2="499.85" y2="6889.42"/>
    <line class="cls-2" x1="358.13" y1="6884.02" x2="358.13" y2="6889.42"/>
    <line class="cls-2" x1="360.83" y1="6889.42" x2="360.83" y2="6884.02"/>
    <line class="cls-2" x1="482.3" y1="6884.02" x2="482.3" y2="6889.42"/>
    <line class="cls-2" x1="359.48" y1="6884.02" x2="359.48" y2="6889.42"/>
    <line class="cls-2" x1="483.65" y1="6844.88" x2="483.65" y2="6889.42"/>
    <line class="cls-2" x1="499.85" y1="6889.42" x2="499.85" y2="6615.42"/>
    <line class="cls-2" x1="483.65" y1="6804.38" x2="233.95" y2="6804.38"/>
    <polyline class="cls-2" points="740.1 6400.82 740.1 6400.82 736.05 6400.82 736.05 6404.87"/>
    <polyline class="cls-2" points="1460.85 6400.82 736.05 6400.82 736.05 6417.02"/>
    <line class="cls-2" x1="482.3" y1="6417.02" x2="233.95" y2="6417.02"/>
    <line class="cls-2" x1="233.95" y1="6400.82" x2="498.5" y2="6400.82"/>
    <line class="cls-2" x1="483.65" y1="6792.24" x2="478.25" y2="6792.24"/>
    <line class="cls-2" x1="483.65" y1="6623.52" x2="478.25" y2="6623.52"/>
    <polyline class="cls-2" points="498.5 6449.41 476.9 6449.41 478.25 6623.52"/>
    <line class="cls-2" x1="483.65" y1="6623.52" x2="482.3" y2="6449.41"/>
    <line class="cls-2" x1="1460.85" y1="6873.22" x2="737.4" y2="6873.22"/>
    <line class="cls-2" x1="737.4" y1="6889.42" x2="1462.2" y2="6889.42"/>
    <line class="cls-2" x1="483.65" y1="6828.68" x2="233.95" y2="6828.68"/>
    <line class="cls-2" x1="233.95" y1="6844.88" x2="483.65" y2="6844.88"/>
    <line class="cls-2" x1="482.3" y1="6449.41" x2="482.3" y2="6417.02"/>
    <line class="cls-2" x1="498.5" y1="6449.41" x2="498.5" y2="6400.82"/>
    <polyline class="cls-2" points="483.65 6615.42 498.5 6615.42 499.85 6615.42"/>
    <line class="cls-2" x1="737.4" y1="6889.42" x2="737.4" y2="6873.22"/>
    <polyline class="cls-2" points="1460.85 6712.6 1369.07 6712.6 1369.07 6696.41 1460.85 6696.41"/>
    <line class="cls-2" x1="1235.44" y1="6465.6" x2="1460.85" y2="6465.6"/>
    <line class="cls-2" x1="1235.44" y1="6417.02" x2="1236.79" y2="6712.6"/>
    <line class="cls-2" x1="1219.25" y1="6433.21" x2="1219.25" y2="6449.41"/>
    <line class="cls-2" x1="1220.6" y1="6696.41" x2="1219.25" y2="6417.02"/>
    <polyline class="cls-2" points="1236.79 6712.6 1127.47 6712.6 1127.47 6696.41 1220.6 6696.41"/>
    <line class="cls-2" x1="993.84" y1="6465.6" x2="1219.25" y2="6465.6"/>
    <line class="cls-2" x1="993.84" y1="6417.02" x2="995.19" y2="6712.6"/>
    <line class="cls-2" x1="979" y1="6696.41" x2="977.65" y2="6417.02"/>
    <line class="cls-2" x1="660.46" y1="6712.6" x2="737.4" y2="6712.6"/>
    <line class="cls-2" x1="737.4" y1="6696.41" x2="660.46" y2="6696.41"/>
    <line class="cls-2" x1="659.11" y1="6433.21" x2="736.05" y2="6433.21"/>
    <line class="cls-2" x1="736.05" y1="6449.41" x2="659.11" y2="6449.41"/>
    <polyline class="cls-2" points="995.19 6712.6 885.87 6712.6 885.87 6696.41 979 6696.41"/>
    <line class="cls-2" x1="752.24" y1="6465.6" x2="977.65" y2="6465.6"/>
    <line class="cls-2" x1="3646.04" y1="6996.04" x2="3525.92" y2="6996.04"/>
    <line class="cls-2" x1="3525.92" y1="8094.72" x2="3525.92" y2="6874.57"/>
    <line class="cls-2" x1="3565.06" y1="8094.72" x2="3565.06" y2="6996.04"/>
    <line class="cls-2" x1="3154.74" y1="6874.57" x2="3154.74" y2="8094.72"/>
    <line class="cls-2" x1="3646.04" y1="8094.72" x2="3646.04" y2="6874.57"/>
    <line class="cls-2" x1="2566.27" y1="6400.82" x2="2652.65" y2="6400.82"/>
    <line class="cls-2" x1="2652.65" y1="6406.22" x2="2566.27" y2="6406.22"/>
    <line class="cls-2" x1="2654" y1="6400.82" x2="2767.37" y2="6400.82"/>
    <line class="cls-2" x1="2767.37" y1="6406.22" x2="2654" y2="6406.22"/>
    <line class="cls-2" x1="1950.79" y1="7506.24" x2="1950.79" y2="7610.17"/>
    <line class="cls-2" x1="1945.4" y1="7610.17" x2="1945.4" y2="7506.24"/>
    <line class="cls-2" x1="1950.79" y1="7611.52" x2="1950.79" y2="7723.54"/>
    <line class="cls-2" x1="1945.4" y1="7723.54" x2="1945.4" y2="7611.52"/>
    <line class="cls-2" x1="4.5" y1="2969.83" x2="4.5" y2="2327.37"/>
    <line class="cls-2" x1="206.96" y1="2124.91" x2="206.96" y2="2517.68"/>
    <polyline class="cls-2" points="4.5 2551.42 206.96 2551.42 206.96 2517.68"/>
    <line class="cls-2" x1="206.96" y1="1746.99" x2="206.96" y2="2124.91"/>
    <path class="cls-2" d="M9547.01,4011.14c0-115.17-93.36-208.53-208.53-208.53s-208.53,93.36-208.53,208.53,93.36,208.53,208.53,208.53,208.53-93.36,208.53-208.53"/>
    <path class="cls-2" d="M9499.77,4011.14c0-89.08-72.21-161.29-161.29-161.29s-161.29,72.21-161.29,161.29,72.21,161.29,161.29,161.29,161.29-72.21,161.29-161.29"/>
    <line class="cls-2" x1="752.24" y1="6871.87" x2="752.24" y2="6873.22"/>
    <polyline class="cls-2" points="652.37 6449.41 659.11 6449.41 659.11 6433.21 652.37 6433.21 652.37 6449.41 652.37 6439.96 648.32 6439.96 648.32 6449.41 652.37 6449.41"/>
    <polyline class="cls-2" points="513.34 6433.21 499.85 6433.21 499.85 6449.41 506.6 6449.41 506.6 6439.96 510.64 6439.96 510.64 6449.41 506.6 6449.41"/>
    <polyline class="cls-2" points="482.3 6456.16 498.5 6456.16 498.5 6449.41 482.3 6449.41 482.3 6456.16"/>
    <polyline class="cls-2" points="483.65 6607.33 499.85 6607.33 499.85 6614.07 483.65 6614.07 483.65 6607.33"/>
    <line class="cls-2" x1="301.44" y1="6804.38" x2="331.13" y2="6804.38"/>
    <line class="cls-2" x1="8943.69" y1="969.55" x2="8943.69" y2="1636.31"/>
    <polyline class="cls-2" points="8729.08 1616.06 8922.09 1616.06 8922.09 969.55"/>
    <line class="cls-2" x1="3262.72" y1="3457.08" x2="3262.72" y2="3471.93"/>
    <line class="cls-2" x1="3505.67" y1="3457.08" x2="3505.67" y2="3471.93"/>
    <line class="cls-2" x1="6646.47" y1="3446.28" x2="6646.47" y2="3462.48"/>
    <line class="cls-2" x1="6889.42" y1="3446.28" x2="6889.42" y2="3462.48"/>
    <line class="cls-2" x1="2196.44" y1="2294.97" x2="2184.3" y2="2305.77"/>
    <line class="cls-2" x1="2365.16" y1="2469.09" x2="2353.01" y2="2479.88"/>
    <line class="cls-2" x1="6884.02" y1="3575.86" x2="6884.02" y2="3332.91"/>
    <polyline class="cls-2" points="6889.42 3575.86 6889.42 3332.91 6884.02 3332.91"/>
    <polyline class="cls-2" points="6653.22 3332.91 6647.82 3332.91 6647.82 3575.86 6653.22 3575.86 6653.22 3332.91"/>
    <polyline class="cls-2" points="6889.42 3332.91 6889.42 3211.43 6884.02 3211.43 6884.02 3332.91"/>
    <line class="cls-2" x1="6647.82" y1="3211.43" x2="6647.82" y2="3332.91"/>
    <polyline class="cls-2" points="6647.82 3211.43 6653.22 3211.43 6653.22 3332.91"/>
    <polyline class="cls-2" points="2103.31 2384.05 2189.7 2300.37 2193.74 2304.42 2107.36 2389.45"/>
    <line class="cls-2" x1="2358.41" y1="2474.49" x2="2272.03" y2="2558.17"/>
    <polyline class="cls-2" points="2358.41 2474.49 2354.36 2470.44 2267.98 2554.12"/>
    <polyline class="cls-2" points="3262.72 3342.36 3262.72 3222.23 3269.47 3222.23 3269.47 3342.36"/>
    <line class="cls-2" x1="3505.67" y1="3222.23" x2="3505.67" y2="3342.36"/>
    <polyline class="cls-2" points="3505.67 3222.23 3500.27 3222.23 3500.27 3342.36"/>
    <line class="cls-2" x1="3269.47" y1="3585.3" x2="3269.47" y2="3343.71"/>
    <polyline class="cls-2" points="3262.72 3585.3 3262.72 3343.71 3269.47 3343.71"/>
    <polyline class="cls-2" points="3500.27 3343.71 3505.67 3343.71 3505.67 3585.3 3500.27 3585.3 3500.27 3343.71"/>
    <polyline class="cls-2" points="498.5 6615.42 498.5 6614.07 486.35 6614.07 486.35 6615.42"/>
    <polyline class="cls-2" points="659.11 6446.71 659.11 6446.71 659.11 6434.56"/>
    <polyline class="cls-2" points="498.5 6434.56 499.85 6434.56 499.85 6446.71 498.5 6446.71 498.5 6434.56"/>
    <polyline class="cls-2" points="660.46 6709.9 660.46 6697.76 660.46 6709.9"/>
    <polyline class="cls-2" points="1950.79 8098.77 1942.7 8098.77 1942.7 8090.67 1950.79 8090.67 1950.79 8066.37 1821.22 8066.37 1821.22 8090.67 1829.32 8090.67 1829.32 8098.77"/>
    <polyline class="cls-2" points="1946.75 8065.02 1945.4 8065.02 1945.4 7953 1950.79 7953 1950.79 8065.02 1949.45 8065.02"/>
    <polyline class="cls-2" points="1946.75 7951.65 1945.4 7951.65 1945.4 7839.62 1950.79 7839.62 1950.79 7951.65 1949.45 7951.65"/>
    <polyline class="cls-2" points="1946.75 7836.92 1945.4 7836.92 1945.4 7724.89 1950.79 7724.89 1950.79 7836.92 1949.45 7836.92"/>
    <polyline class="cls-2" points="1946.75 7503.54 1945.4 7503.54 1945.4 7391.51 1950.79 7391.51 1950.79 7503.54 1949.45 7503.54"/>
    <polyline class="cls-2" points="1946.75 7390.16 1945.4 7390.16 1945.4 7278.14 1950.79 7278.14 1950.79 7390.16 1949.45 7390.16"/>
    <polyline class="cls-2" points="1946.75 7275.44 1945.4 7275.44 1945.4 7163.41 1950.79 7163.41 1950.79 7275.44 1949.45 7275.44"/>
    <polyline class="cls-2" points="3142.6 6400.82 3142.6 6408.92 3134.5 6408.92 3134.5 6400.82 3110.2 6400.82 3110.2 6529.04 3134.5 6529.04 3134.5 6520.94 3142.6 6520.94"/>
    <polyline class="cls-2" points="3108.85 6403.52 3108.85 6406.22 2996.83 6406.22 2996.83 6400.82 3108.85 6400.82 3108.85 6402.17"/>
    <polyline class="cls-2" points="2995.48 6403.52 2995.48 6406.22 2882.1 6406.22 2882.1 6400.82 2995.48 6400.82 2995.48 6402.17"/>
    <polyline class="cls-2" points="2880.75 6403.52 2880.75 6406.22 2768.72 6406.22 2768.72 6400.82 2880.75 6400.82 2880.75 6402.17"/>
    <polyline class="cls-2" points="2564.92 6403.52 2564.92 6406.22 2452.89 6406.22 2452.89 6400.82 2564.92 6400.82 2564.92 6402.17"/>
    <polyline class="cls-2" points="2451.54 6403.52 2451.54 6406.22 2338.16 6406.22 2338.16 6400.82 2451.54 6400.82 2451.54 6402.17"/>
    <polyline class="cls-2" points="2336.81 6403.52 2336.81 6406.22 2224.79 6406.22 2224.79 6400.82 2336.81 6400.82 2336.81 6402.17"/>
    <line class="cls-2" x1="3154.74" y1="7849.07" x2="3154.74" y2="7118.87"/>
    <polyline class="cls-2" points="7033.84 8841.11 7033.84 9082.71 7040.59 9082.71 7040.59 8841.11"/>
    <line class="cls-2" x1="7270.04" y1="8961.24" x2="7276.79" y2="8961.24"/>
    <polyline class="cls-2" points="7276.79 9082.71 7270.04 9082.71 7270.04 8841.11 7276.79 8841.11"/>
    <line class="cls-2" x1="7270.04" y1="8961.24" x2="7276.79" y2="8961.24"/>
    <line class="cls-2" x1="7033.84" y1="8841.11" x2="7040.59" y2="8841.11"/>
    <polyline class="cls-2" points="7276.79 8841.11 7276.79 9082.71 7283.53 9082.71 7283.53 8841.11"/>
    <line class="cls-2" x1="7512.99" y1="8961.24" x2="7519.74" y2="8961.24"/>
    <polyline class="cls-2" points="7519.74 9082.71 7512.99 9082.71 7512.99 8841.11 7519.74 8841.11"/>
    <line class="cls-2" x1="7512.99" y1="8961.24" x2="7519.74" y2="8961.24"/>
    <line class="cls-2" x1="7276.79" y1="8841.11" x2="7283.53" y2="8841.11"/>
    <polyline class="cls-2" points="7519.74 8841.11 7519.74 9082.71 7526.48 9082.71 7526.48 8841.11"/>
    <line class="cls-2" x1="7754.59" y1="8961.24" x2="7761.34" y2="8961.24"/>
    <polyline class="cls-2" points="7761.34 9082.71 7754.59 9082.71 7754.59 8841.11 7761.34 8841.11"/>
    <line class="cls-2" x1="7754.59" y1="8961.24" x2="7761.34" y2="8961.24"/>
    <line class="cls-2" x1="7519.74" y1="8841.11" x2="7526.48" y2="8841.11"/>
    <polyline class="cls-2" points="7761.34 8841.11 7761.34 9082.71 7768.08 9082.71 7768.08 8841.11"/>
    <line class="cls-2" x1="7997.54" y1="8961.24" x2="8004.28" y2="8961.24"/>
    <polyline class="cls-2" points="8004.28 9082.71 7997.54 9082.71 7997.54 8841.11 8004.28 8841.11"/>
    <line class="cls-2" x1="7997.54" y1="8961.24" x2="8004.28" y2="8961.24"/>
    <line class="cls-2" x1="7761.34" y1="8841.11" x2="7768.08" y2="8841.11"/>
    <polyline class="cls-2" points="8004.28 8841.11 8004.28 9082.71 8011.03 9082.71 8011.03 8841.11"/>
    <line class="cls-2" x1="8240.49" y1="8961.24" x2="8247.23" y2="8961.24"/>
    <polyline class="cls-2" points="8247.23 9082.71 8240.49 9082.71 8240.49 8841.11 8247.23 8841.11"/>
    <line class="cls-2" x1="8240.49" y1="8961.24" x2="8247.23" y2="8961.24"/>
    <line class="cls-2" x1="8004.28" y1="8841.11" x2="8011.03" y2="8841.11"/>
    <polyline class="cls-2" points="5343.99 8842.46 5343.99 9082.71 5350.74 9082.71 5350.74 8842.46"/>
    <line class="cls-2" x1="5577.49" y1="8962.59" x2="5584.24" y2="8962.59"/>
    <polyline class="cls-2" points="5577.49 8842.46 5584.24 8842.46 5584.24 9082.71 5577.49 9082.71 5577.49 8842.46"/>
    <line class="cls-2" x1="5343.99" y1="8842.46" x2="5350.74" y2="8842.46"/>
    <polyline class="cls-2" points="5584.24 9082.71 5590.99 9082.71 5590.99 8842.46"/>
    <line class="cls-2" x1="5817.74" y1="8962.59" x2="5824.49" y2="8962.59"/>
    <polyline class="cls-2" points="5817.74 8842.46 5824.49 8842.46 5824.49 9082.71 5817.74 9082.71 5817.74 8842.46"/>
    <line class="cls-2" x1="5584.24" y1="8842.46" x2="5590.99" y2="8842.46"/>
    <polyline class="cls-2" points="5824.49 9082.71 5831.24 9082.71 5831.24 8842.46"/>
    <line class="cls-2" x1="6057.99" y1="8962.59" x2="6063.39" y2="8962.59"/>
    <polyline class="cls-2" points="6063.39 9082.71 6057.99 9082.71 6057.99 8842.46 6063.39 8842.46"/>
    <line class="cls-2" x1="5824.49" y1="8842.46" x2="5831.24" y2="8842.46"/>
    <polyline class="cls-2" points="6063.39 8842.46 6063.39 9082.71 6070.14 9082.71 6070.14 8842.46"/>
    <line class="cls-2" x1="6296.89" y1="8962.59" x2="6303.64" y2="8962.59"/>
    <polyline class="cls-2" points="6296.89 8842.46 6303.64 8842.46 6303.64 9082.71 6296.89 9082.71 6296.89 8842.46"/>
    <line class="cls-2" x1="6063.39" y1="8842.46" x2="6070.14" y2="8842.46"/>
    <polyline class="cls-2" points="6303.64 9082.71 6310.39 9082.71 6310.39 8842.46"/>
    <line class="cls-2" x1="6537.14" y1="8962.59" x2="6543.89" y2="8962.59"/>
    <polyline class="cls-2" points="6543.89 9082.71 6537.14 9082.71 6537.14 8842.46 6543.89 8842.46"/>
    <line class="cls-2" x1="6303.64" y1="8842.46" x2="6310.39" y2="8842.46"/>
    <polyline class="cls-2" points="3646.04 8841.11 3646.04 9084.06 3652.79 9084.06 3652.79 8841.11"/>
    <line class="cls-2" x1="3880.89" y1="8962.59" x2="3887.64" y2="8962.59"/>
    <polyline class="cls-2" points="3880.89 8841.11 3887.64 8841.11 3887.64 9084.06 3880.89 9084.06 3880.89 8841.11"/>
    <line class="cls-2" x1="3880.89" y1="8962.59" x2="3887.64" y2="8962.59"/>
    <line class="cls-2" x1="3646.04" y1="8841.11" x2="3652.79" y2="8841.11"/>
    <polyline class="cls-2" points="3887.64 9084.06 3894.39 9084.06 3894.39 8841.11"/>
    <line class="cls-2" x1="4122.49" y1="8962.59" x2="4129.24" y2="8962.59"/>
    <polyline class="cls-2" points="4122.49 8841.11 4129.24 8841.11 4129.24 9084.06 4122.49 9084.06 4122.49 8841.11"/>
    <line class="cls-2" x1="4122.49" y1="8962.59" x2="4129.24" y2="8962.59"/>
    <line class="cls-2" x1="3887.64" y1="8841.11" x2="3894.39" y2="8841.11"/>
    <polyline class="cls-2" points="4129.24 9084.06 4135.99 9084.06 4135.99 8841.11"/>
    <line class="cls-2" x1="4364.09" y1="8962.59" x2="4370.84" y2="8962.59"/>
    <polyline class="cls-2" points="4364.09 8841.11 4370.84 8841.11 4370.84 9084.06 4364.09 9084.06 4364.09 8841.11"/>
    <line class="cls-2" x1="4364.09" y1="8962.59" x2="4370.84" y2="8962.59"/>
    <line class="cls-2" x1="4129.24" y1="8841.11" x2="4135.99" y2="8841.11"/>
    <polyline class="cls-2" points="4370.84 9084.06 4377.59 9084.06 4377.59 8841.11"/>
    <line class="cls-2" x1="4605.69" y1="8962.59" x2="4612.44" y2="8962.59"/>
    <polyline class="cls-2" points="4612.44 9084.06 4605.69 9084.06 4605.69 8841.11 4612.44 8841.11"/>
    <line class="cls-2" x1="4605.69" y1="8962.59" x2="4612.44" y2="8962.59"/>
    <line class="cls-2" x1="4370.84" y1="8841.11" x2="4377.59" y2="8841.11"/>
    <polyline class="cls-2" points="4612.44 8841.11 4612.44 9084.06 4619.19 9084.06 4619.19 8841.11"/>
    <line class="cls-2" x1="4847.29" y1="8962.59" x2="4854.04" y2="8962.59"/>
    <polyline class="cls-2" points="4854.04 9084.06 4847.29 9084.06 4847.29 8841.11 4854.04 8841.11"/>
    <line class="cls-2" x1="4847.29" y1="8962.59" x2="4854.04" y2="8962.59"/>
    <line class="cls-2" x1="4612.44" y1="8841.11" x2="4619.19" y2="8841.11"/>
    <line class="cls-2" x1="10012.67" y1="8752.03" x2="10012.67" y2="8594.11"/>
    <polyline class="cls-2" points="10004.57 9011.18 10012.67 9011.18 10012.67 8854.61"/>
    <polyline class="cls-2" points="8688.59 8594.11 8680.49 8594.11 8680.49 8752.03 8737.18 8752.03"/>
    <polyline class="cls-2" points="8688.59 8854.61 8680.49 8854.61 8680.49 9011.18 8737.18 9011.18"/>
    <polyline class="cls-2" points="7033.84 8208.09 7033.84 8451.04 7040.59 8451.04 7040.59 8208.09"/>
    <line class="cls-2" x1="7270.04" y1="8329.57" x2="7276.79" y2="8329.57"/>
    <polyline class="cls-2" points="7276.79 8451.04 7270.04 8451.04 7270.04 8208.09 7276.79 8208.09"/>
    <line class="cls-2" x1="7270.04" y1="8329.57" x2="7276.79" y2="8329.57"/>
    <line class="cls-2" x1="7033.84" y1="8208.09" x2="7040.59" y2="8208.09"/>
    <polyline class="cls-2" points="7276.79 8208.09 7276.79 8451.04 7283.53 8451.04 7283.53 8208.09"/>
    <line class="cls-2" x1="7512.99" y1="8329.57" x2="7519.74" y2="8329.57"/>
    <polyline class="cls-2" points="7512.99 8208.09 7519.74 8208.09 7519.74 8451.04 7512.99 8451.04 7512.99 8208.09"/>
    <line class="cls-2" x1="7512.99" y1="8329.57" x2="7519.74" y2="8329.57"/>
    <line class="cls-2" x1="7276.79" y1="8208.09" x2="7283.53" y2="8208.09"/>
    <polyline class="cls-2" points="7519.74 8451.04 7526.48 8451.04 7526.48 8208.09"/>
    <line class="cls-2" x1="7754.59" y1="8329.57" x2="7761.34" y2="8329.57"/>
    <polyline class="cls-2" points="7754.59 8208.09 7761.34 8208.09 7761.34 8451.04 7754.59 8451.04 7754.59 8208.09"/>
    <line class="cls-2" x1="7754.59" y1="8329.57" x2="7761.34" y2="8329.57"/>
    <line class="cls-2" x1="7519.74" y1="8208.09" x2="7526.48" y2="8208.09"/>
    <polyline class="cls-2" points="7761.34 8451.04 7768.08 8451.04 7768.08 8208.09"/>
    <line class="cls-2" x1="7997.54" y1="8329.57" x2="8004.28" y2="8329.57"/>
    <polyline class="cls-2" points="7997.54 8208.09 8004.28 8208.09 8004.28 8451.04 7997.54 8451.04 7997.54 8208.09"/>
    <line class="cls-2" x1="7997.54" y1="8329.57" x2="8004.28" y2="8329.57"/>
    <line class="cls-2" x1="7761.34" y1="8208.09" x2="7768.08" y2="8208.09"/>
    <polyline class="cls-2" points="8004.28 8451.04 8011.03 8451.04 8011.03 8208.09"/>
    <line class="cls-2" x1="8240.49" y1="8329.57" x2="8247.23" y2="8329.57"/>
    <polyline class="cls-2" points="8247.23 8451.04 8240.49 8451.04 8240.49 8208.09 8247.23 8208.09"/>
    <line class="cls-2" x1="8240.49" y1="8329.57" x2="8247.23" y2="8329.57"/>
    <line class="cls-2" x1="8004.28" y1="8208.09" x2="8011.03" y2="8208.09"/>
    <polyline class="cls-2" points="5343.99 8071.77 5343.99 8451.04 5350.74 8451.04 5350.74 8210.79"/>
    <line class="cls-2" x1="5577.49" y1="8330.92" x2="5584.24" y2="8330.92"/>
    <polyline class="cls-2" points="5577.49 8210.79 5584.24 8210.79 5584.24 8451.04 5577.49 8451.04 5577.49 8210.79"/>
    <line class="cls-2" x1="5577.49" y1="8330.92" x2="5584.24" y2="8330.92"/>
    <line class="cls-2" x1="5343.99" y1="8210.79" x2="5350.74" y2="8210.79"/>
    <polyline class="cls-2" points="5584.24 8451.04 5590.99 8451.04 5590.99 8210.79"/>
    <line class="cls-2" x1="5817.74" y1="8330.92" x2="5824.49" y2="8330.92"/>
    <polyline class="cls-2" points="5817.74 8210.79 5824.49 8210.79 5824.49 8451.04 5817.74 8451.04 5817.74 8210.79"/>
    <line class="cls-2" x1="5817.74" y1="8330.92" x2="5824.49" y2="8330.92"/>
    <line class="cls-2" x1="5584.24" y1="8210.79" x2="5590.99" y2="8210.79"/>
    <polyline class="cls-2" points="5824.49 8451.04 5831.24 8451.04 5831.24 8210.79"/>
    <line class="cls-2" x1="6057.99" y1="8330.92" x2="6063.39" y2="8330.92"/>
    <polyline class="cls-2" points="6063.39 8451.04 6057.99 8451.04 6057.99 8210.79 6063.39 8210.79"/>
    <line class="cls-2" x1="6057.99" y1="8330.92" x2="6063.39" y2="8330.92"/>
    <line class="cls-2" x1="5824.49" y1="8210.79" x2="5831.24" y2="8210.79"/>
    <polyline class="cls-2" points="6063.39 8210.79 6063.39 8451.04 6070.14 8451.04 6070.14 8210.79"/>
    <line class="cls-2" x1="6296.89" y1="8330.92" x2="6303.64" y2="8330.92"/>
    <polyline class="cls-2" points="6303.64 8451.04 6296.89 8451.04 6296.89 8210.79 6303.64 8210.79"/>
    <line class="cls-2" x1="6296.89" y1="8330.92" x2="6303.64" y2="8330.92"/>
    <line class="cls-2" x1="6063.39" y1="8210.79" x2="6070.14" y2="8210.79"/>
    <polyline class="cls-2" points="6303.64 8210.79 6303.64 8451.04 6310.39 8451.04 6310.39 8210.79"/>
    <line class="cls-2" x1="6537.14" y1="8330.92" x2="6543.89" y2="8330.92"/>
    <polyline class="cls-2" points="6543.89 8451.04 6537.14 8451.04 6537.14 8210.79 6543.89 8210.79"/>
    <line class="cls-2" x1="6537.14" y1="8330.92" x2="6543.89" y2="8330.92"/>
    <line class="cls-2" x1="6303.64" y1="8210.79" x2="6310.39" y2="8210.79"/>
    <polyline class="cls-2" points="3646.04 8209.44 3646.04 8451.04 3652.79 8451.04 3652.79 8209.44"/>
    <line class="cls-2" x1="3880.89" y1="8330.92" x2="3887.64" y2="8330.92"/>
    <polyline class="cls-2" points="3880.89 8209.44 3887.64 8209.44 3887.64 8451.04 3880.89 8451.04 3880.89 8209.44"/>
    <line class="cls-2" x1="3880.89" y1="8330.92" x2="3887.64" y2="8330.92"/>
    <line class="cls-2" x1="3646.04" y1="8209.44" x2="3652.79" y2="8209.44"/>
    <polyline class="cls-2" points="3887.64 8451.04 3894.39 8451.04 3894.39 8209.44"/>
    <line class="cls-2" x1="4122.49" y1="8330.92" x2="4129.24" y2="8330.92"/>
    <polyline class="cls-2" points="4129.24 8451.04 4122.49 8451.04 4122.49 8209.44 4129.24 8209.44"/>
    <line class="cls-2" x1="4122.49" y1="8330.92" x2="4129.24" y2="8330.92"/>
    <line class="cls-2" x1="3887.64" y1="8209.44" x2="3894.39" y2="8209.44"/>
    <polyline class="cls-2" points="4129.24 8209.44 4129.24 8451.04 4135.99 8451.04 4135.99 8209.44"/>
    <line class="cls-2" x1="4364.09" y1="8330.92" x2="4370.84" y2="8330.92"/>
    <polyline class="cls-2" points="4364.09 8209.44 4370.84 8209.44 4370.84 8451.04 4364.09 8451.04 4364.09 8209.44"/>
    <line class="cls-2" x1="4364.09" y1="8330.92" x2="4370.84" y2="8330.92"/>
    <line class="cls-2" x1="4129.24" y1="8209.44" x2="4135.99" y2="8209.44"/>
    <polyline class="cls-2" points="4370.84 8451.04 4377.59 8451.04 4377.59 8209.44"/>
    <line class="cls-2" x1="4605.69" y1="8330.92" x2="4612.44" y2="8330.92"/>
    <polyline class="cls-2" points="4605.69 8209.44 4612.44 8209.44 4612.44 8451.04 4605.69 8451.04 4605.69 8209.44"/>
    <line class="cls-2" x1="4605.69" y1="8330.92" x2="4612.44" y2="8330.92"/>
    <line class="cls-2" x1="4370.84" y1="8209.44" x2="4377.59" y2="8209.44"/>
    <polyline class="cls-2" points="4612.44 8451.04 4619.19 8451.04 4619.19 8209.44"/>
    <line class="cls-2" x1="4847.29" y1="8330.92" x2="4854.04" y2="8330.92"/>
    <polyline class="cls-2" points="4854.04 8451.04 4847.29 8451.04 4847.29 8209.44 4854.04 8209.44"/>
    <line class="cls-2" x1="4847.29" y1="8330.92" x2="4854.04" y2="8330.92"/>
    <line class="cls-2" x1="4612.44" y1="8209.44" x2="4619.19" y2="8209.44"/>
    <polyline class="cls-2" points="883.17 1157.16 883.17 1423.05 889.92 1423.05 889.92 1157.16"/>
    <line class="cls-2" x1="1140.96" y1="1289.43" x2="1147.71" y2="1289.43"/>
    <polyline class="cls-2" points="1140.96 1157.16 1147.71 1157.16 1147.71 1423.05 1140.96 1423.05 1140.96 1157.16"/>
    <line class="cls-2" x1="1140.96" y1="1289.43" x2="1147.71" y2="1289.43"/>
    <line class="cls-2" x1="883.17" y1="1157.16" x2="889.92" y2="1157.16"/>
    <polyline class="cls-2" points="494.45 1157.16 494.45 1423.05 501.2 1423.05 501.2 1157.16"/>
    <line class="cls-2" x1="752.24" y1="1289.43" x2="758.99" y2="1289.43"/>
    <polyline class="cls-2" points="752.24 1157.16 758.99 1157.16 758.99 1423.05 752.24 1423.05 752.24 1157.16"/>
    <line class="cls-2" x1="752.24" y1="1289.43" x2="758.99" y2="1289.43"/>
    <line class="cls-2" x1="494.45" y1="1157.16" x2="501.2" y2="1157.16"/>
    <path class="cls-2" d="M7539.98,2467.74l755.84-758.54-68.84-67.49-754.49,757.19c-147.94,148.54-352.66,227.38-562.09,217.89l-106.02-3.24v95.18s103.94,3.89,103.94,3.89c235.63,10.04,465.22-77.78,631.66-244.89Z"/>
    <path class="cls-2" d="M7461.7,2303.07l769.34-773.39-68.84-67.49h-1.07s-768.27,772.04-768.27,772.04c-139.08,139.62-329.51,215.62-526.57,213.2l-107.8-2.6v97.16s106.68,2.61,106.68,2.61c223.28,2.72,438.93-83.34,596.52-241.54Z"/>
    <path class="cls-2" d="M7410.41,2137.06l834.13-836.83-67.3-68.65-834.31,837.99c-138.66,139.14-326.85,218.59-523.28,219.13l-106.67-1.65v97.18s106.86.65,106.86.65c222.2-.6,433.73-90.44,590.58-247.83Z"/>
    <path class="cls-2" d="M7241.69,1934.6l938.11-939.35,67.43,68.78-936.71,939.4c-152.43,152.81-364.36,230.07-579.72,215.63l-77.59-3.73v-95.23s80.89,3.12,80.89,3.12c188.76,13.56,374.08-55.66,507.73-189.64"/>
    <path class="cls-2" d="M7094.57,1617.41l1105.42-1118.2h.72s68.12,68.12,68.12,68.12l-1106.77,1117.57-.37-.53c-149.34,151.01-358.69,226.84-570.1,206.49l-31.5-4.36v-93.97s36.25,2.5,36.25,2.5c184.15,19.08,367.03-46.4,497.21-178.04"/>
    <path class="cls-2" d="M6974.45,1275.94L8208.87,29.61h.05s68.01,66.67,68.01,66.67l-1233.64,1247.14,1.08-.69c-147.52,149-351.93,227.46-561.26,215.45l-14.13-1.6v-96.85s17.03,1.27,17.03,1.27c182.38,11.24,360.74-56.79,489.3-186.64"/>
    <path class="cls-2" d="M7160.71,1786.13l1030.84-1025.79h.35s67.49,68.84,67.49,68.84l-1029.84,1024.44-.87-.95c-159.1,158.28-383.1,232.98-605.35,201.88l-13.29-3.17v-95.72s20.15,3.05,20.15,3.05c194.53,29.29,391.45-35.24,530.92-173.98"/>
    <path class="cls-2" d="M7122.92,1481.09l1149.96-1140.51-67.49-68.84h-.51s-1150.8,1140.51-1150.8,1140.51l-.24.34c-131.99,130.85-307.46,208.64-493.05,218.58l-47.95-.27v97.18s52.66-1.2,52.66-1.2c209.21-11.1,407.03-98.75,555.8-246.24"/>
    <polygon class="cls-2" points="7020.34 1130.17 8147.36 4.5 8011.03 4.5 6952.85 1062.68 6905.61 1105.87 6855.67 1145.01 6803.03 1180.11 6746.35 1211.15 6689.66 1238.14 6628.92 1259.74 6568.18 1277.28 6506.1 1290.78 6442.66 1297.53 6419.71 1297.53 6419.71 1394.71 6446.71 1394.71 6518.24 1386.61 6588.43 1371.77 6657.27 1352.87 6724.75 1328.57 6789.54 1298.88 6851.62 1263.79 6911.01 1223.3 6967.7 1178.76 7020.34 1130.17"/>
  </g>
</svg>