<?xml version="1.0" encoding="UTF-8"?>
<svg id="Layer_2" data-name="Layer 2" xmlns="http://www.w3.org/2000/svg" xmlns:xlink="http://www.w3.org/1999/xlink" viewBox="0 0 374.29 200.27">
  <defs>
    <style>
      .cls-1 {
        fill: none;
      }

      .cls-2 {
        fill: #c0fc04;
      }

      .cls-3 {
        clip-path: url(#clippath);
      }
    </style>
    <clipPath id="clippath">
      <rect class="cls-1" width="374.29" height="200.27"/>
    </clipPath>
  </defs>
  <g id="edited-map">
    <g class="cls-3">
      <path class="cls-2" d="M109.12,32.71c.48,0,.48-.75,0-.75s-.48.75,0,.75"/>
      <path class="cls-2" d="M184.56,0c.19.48.29,1.03.59,1.44,5.13,6.99,9.22,14.59,12.85,22.44,1.81,3.92,3.35,7.97,5.1,12.17-3.26.15-6.27.34-9.3.41-6.32.13-12.64.24-18.96.24-3.03,0-6.05-.34-9.08-.46-1.1-.04-.81-.65-.58-1.21,1.31-3.18,2.6-6.35,3.97-9.5,3.37-7.76,7.7-14.98,12.42-21.97.78-1.16,1.5-2.36,2.25-3.55h.75Z"/>
      <path class="cls-2" d="M183.57,200.27c-.65-1.1-1.23-2.26-1.97-3.3-4.75-6.68-8.57-13.9-12.1-21.27-1.36-2.83-2.41-5.81-3.62-8.77,1.01-.13,1.96-.33,2.91-.36,5.76-.2,11.52-.41,17.28-.49,3.08-.05,6.18.1,9.26.24,2.15.1,4.3.33,6.64.51-1.02,2.53-1.97,5-3.01,7.43-3.6,8.38-8.06,16.28-13.19,23.81-.47.69-.81,1.46-1.21,2.19h-.99Z"/>
      <path class="cls-2" d="M271.46,96.21c2.55-.28,5.01-.65,7.47-.79,3.49-.2,6.85-.85,9.9-2.58,4.34-2.47,7.07-5.98,6.92-11.31-.07-2.73-1.26-4.65-3.59-5.84-3.2-1.64-6.61-1.69-10.12-1.31-3.98.42-8,.55-12,.79-1.8.11-3.61.15-5.41.27-.67.04-1.32.22-1.49,1.07-.31,1.48-.64,2.96-.99,4.43-1.29,5.34-2.59,10.67-3.88,16.01-.79,3.31-1.54,6.64-2.37,9.94-.17.69.07.79.6.73,4.17-.5,8.34-1.02,12.51-1.53.82-3.3,1.62-6.58,2.44-9.87M231.85,95.04c-.02-.08-.05-.17-.07-.25.46-.22.92-.43,1.37-.66,3.04-1.6,5.55-3.67,6.47-7.19,1.03-3.9-.15-7.8-4.69-8.95-2.57-.65-5.19-.72-7.87-.38-3.08.38-6.21.38-9.32.56-2.82.16-5.63.31-8.45.53-.3.02-.71.44-.81.76-.71,2.26-1.38,4.54-2.03,6.83-1.66,5.91-3.31,11.83-4.96,17.74-.93,3.32-1.86,6.65-2.84,10.16,1.44-.2,2.74-.4,4.05-.55,2.99-.35,5.98-.65,8.96-1.04.62-.08,1.11-.38,1.31-1.24.89-3.73,1.93-7.43,2.94-11.14.08-.3.33-.76.54-.78,1.3-.15,2.64-.4,3.91-.24,1.79.22,2.5.42,2.22,2.52-.25,1.83-.74,3.63-1.13,5.44-.3,1.38-.6,2.77-.94,4.35,4.4-.49,8.52-.95,12.64-1.42.92-.1,1.21-.75,1.4-1.54.72-3.09,1.44-6.18,2.19-9.27.5-2.11-.13-3.39-2.15-3.94-.87-.24-1.82-.2-2.73-.29M181.19,80.03c-1.94.14-3.57.26-5.2.38-2.45.17-4.89.36-7.34.49-3.31.19-6.63.37-9.95.49-.74.03-1.17.22-1.5.93-1.77,3.74-3.56,7.46-5.4,11.17-4.35,8.78-8.72,17.55-13.08,26.32-.19.38-.3.81-.52,1.38,1.94-.3,3.61-.6,5.28-.82,2.85-.37,5.71-.66,8.57-1.03.65-.08,1.19-.33,1.51-1.09.82-1.91,1.82-3.75,2.71-5.63.33-.71.86-.93,1.6-1.01,1.56-.18,3.11-.48,4.67-.67,1.35-.17,2.71-.25,3.99-.37-.15,2.47-.29,4.75-.43,7.09,4.8-.6,9.39-1.17,13.85-1.73.14-2.2.3-4.13.37-6.06.12-2.85.2-5.7.25-8.55.1-5.01.15-10.03.26-15.04.05-2.01.22-4.01.35-6.26M108.2,107.13v-22.44c-.38-.02-.59-.05-.79-.04-3.19.16-6.38.3-9.57.54-.37.03-.85.55-1.03.95-.84,1.9-1.6,3.84-2.4,5.76-1.61,3.88-3.23,7.75-4.85,11.62-.77,1.85-1.56,3.68-2.34,5.52-.07-.02-.14-.04-.21-.05.14-7.68.28-15.35.43-23.17-4.01.26-8.02.52-12.17.79.13,2.5.29,4.76.36,7.03.12,3.93.19,7.87.25,11.8.1,5.68.18,11.36.25,17.04.03,1.95,0,3.89,0,5.85,1.46-.08,2.81-.09,4.15-.23,2.65-.29,5.31-.6,7.95-1.02.66-.1,1.53.09,1.92-.9,1.34-3.34,2.75-6.65,4.14-9.97,1.13-2.7,2.27-5.4,3.4-8.1.27.36.3.7.33,1.04.09,1.31.15,2.62.26,3.93.32,3.66.7,7.32.96,10.99.12,1.59.36,1.81,1.96,1.47,1.42-.3,2.86-.51,4.3-.67,2.58-.29,5.17-.49,7.76-.79.25-.03.54-.4.66-.68,1.06-2.33,2.07-4.68,3.11-7.02,1.34-3.04,2.72-6.06,4.05-9.1,2.33-5.31,4.64-10.63,6.95-15.95,1.17-2.7,2.32-5.42,3.51-8.2-4.75.27-9.41.53-14.01.79-1.38,3.53-2.74,7-4.1,10.45-1.66,4.24-3.33,8.48-5,12.72-.08.01-.16.03-.24.03M7.72,154.39c11.08-21.72,22-43.13,33.02-64.75-1.71.1-3.21.13-4.69.28-1.98.2-3.94.52-5.91.72-3.6.36-7.21.68-10.82,1-2.07.18-4.15.32-6.22.51-3.32.32-6.63.68-9.95.98-1.02.09-2.06.01-3.15.01.22-.15.44-.36.69-.48,4.94-2.48,9.89-4.95,14.83-7.44,7.98-4.02,15.95-8.05,23.92-12.08,7.86-3.98,15.72-7.97,23.58-11.96,7.9-4.01,15.79-8.01,23.69-12.02,7.86-3.99,15.73-7.97,23.58-11.96,1.18-.6,2.31-1.29,3.48-1.91.38-.2.82-.27,1.4-.45-6.04,12.08-11.99,23.98-18.09,36.17,1.68-.11,3.12-.2,4.56-.29.37-.02.74-.03,1.11-.04,4.31-.17,8.62-.32,12.93-.51,2.82-.13,5.64-.36,8.46-.49,4.1-.19,8.21-.32,12.31-.51,2.86-.13,5.72-.33,8.58-.49,3.32-.18,6.63-.33,9.95-.5,3.23-.17,6.47-.34,9.7-.5,3.32-.17,6.63-.34,9.95-.5,3.65-.17,7.3-.32,10.95-.51,2.94-.15,5.89-.33,8.83-.49,3.23-.17,6.47-.34,9.7-.5,3.4-.17,6.8-.33,10.2-.5,3.15-.16,6.3-.34,9.45-.5,3.4-.17,6.8-.34,10.2-.5,3.48-.17,6.97-.33,10.45-.5,4.75-.24,9.49-.49,14.24-.75,2.98-.16,5.97-.35,8.96-.49,3.94-.19,7.88-.32,11.81-.51,2.86-.14,5.72-.34,8.58-.49,3.65-.18,7.3-.33,10.94-.51,2.95-.15,5.89-.34,8.83-.49,3.23-.17,6.47-.34,9.7-.5,3.4-.17,6.8-.33,10.2-.5,3.15-.16,6.3-.34,9.45-.5,3.4-.17,6.8-.32,10.2-.51.89-.05,1.77-.22,2.94-.37-7.1,14.11-14.1,27.99-21.24,42.17,1.48-.13,2.67-.23,3.87-.33,1.91-.17,3.81-.33,5.72-.5,4.7-.42,9.41-.85,14.11-1.24,1.84-.15,3.69-.14,5.53-.28,4.06-.31,8.12-.67,12.18-1,1.24-.1,2.48-.17,3.71-.26.03.11.06.21.09.32-34.08,15.09-68.15,30.18-102.23,45.27-.1-.08-.2-.15-.3-.22,3.21-8.32,6.41-16.63,9.73-25.22-1.02.14-1.81.25-2.59.35-3.76.5-7.53.98-11.3,1.51-4.52.64-9.02,1.37-13.54,1.98-4.17.56-8.37.96-12.54,1.53-3.68.5-7.32,1.19-10.99,1.71-2.81.4-5.64.65-8.45,1.03-2.64.36-5.26.86-7.9,1.22-2.77.38-5.55.65-8.32,1.02-3.24.44-6.47.96-9.72,1.42-2.13.3-4.26.54-6.39.82-1.96.26-3.92.56-5.88.83-2.2.3-4.4.58-6.6.89-3.41.47-6.81.98-10.21,1.45-2.09.29-4.18.55-6.26.83-2,.27-4,.55-6,.83-2.2.3-4.4.62-6.61.92-2.44.33-4.88.66-7.33.99-2.53.34-5.05.66-7.57,1.02-2.6.37-5.18.81-7.78,1.17-2.17.3-4.34.54-6.51.82-2.41.32-4.81.64-7.21.97-2.52.34-5.05.67-7.57,1.03-2.63.39-5.26.84-7.89,1.21-2.12.3-4.26.52-6.39.78-2.73.34-5.46.66-8.19,1.03-2.16.29-4.31.65-6.47.96-2.75.41-5.51.84-8.27,1.21-2.29.3-4.59.5-6.89.8-1.96.25-3.91.58-5.87.86-1.56.22-3.12.42-4.68.64-1.88.26-3.76.52-5.64.79-1.64.23-3.28.47-4.92.71-2.19.32-4.39.67-6.58.97-2.17.29-4.35.5-6.52.79-1.88.24-3.76.54-5.64.8-2.36.32-4.73.62-7.1.95-1.32.18-2.63.41-3.94.61-.39.06-.78.11-1.51.2"/>
      <path class="cls-2" d="M212.54,160.23c1.16-4.46,2.39-8.7,3.34-13,1.05-4.74,1.83-9.53,2.79-14.29.07-.33.55-.75.9-.81,2.91-.47,5.83-.89,8.75-1.26,2.37-.3,4.76-.5,7.14-.77,1.92-.22,3.85-.48,5.77-.75,2.11-.31,4.22-.67,6.33-.99,3.99-.59,7.98-1.2,11.98-1.74,3.05-.41,6.11-.7,9.44-1.08-1.27,3.63-2.36,7.12-3.71,10.51-1.48,3.71-3.11,7.37-4.86,10.97-2.82,5.79-6.34,11.18-10.14,16.37-.62.85-1.3,1.66-1.96,2.48-.55.68-1.2.91-2.09.7-5.05-1.19-10.1-2.42-15.18-3.48-3.81-.8-7.67-1.4-11.52-2-2.3-.37-4.63-.58-6.97-.86"/>
      <path class="cls-2" d="M255.81,169.15c1.29-1.83,2.58-3.57,3.76-5.39,1.98-3.02,3.86-6.11,5.83-9.14.32-.49.81-.97,1.33-1.21,2.78-1.29,5.61-2.5,8.41-3.75,5.5-2.45,11.01-4.9,16.49-7.38,2.8-1.27,5.54-2.66,8.34-3.92,3.82-1.72,7.69-3.35,11.52-5.06,2.95-1.32,5.88-2.7,8.81-4.05,1.09-.5,2.16-1.03,3.26-1.5.28-.12.61-.11,1.19-.2-.61,1.45-1.12,2.69-1.65,3.92-2.46,5.68-5.64,10.95-9.53,15.73-3.15,3.87-6.46,7.63-9.98,11.17-4.05,4.07-8.45,7.79-13.25,10.98-4.03,2.69-8.11,5.32-12.2,7.94-.29.19-.85.17-1.2.04-2.52-1-4.99-2.11-7.52-3.07-4.29-1.61-8.61-3.13-12.92-4.7-.22-.08-.41-.22-.72-.4"/>
      <path class="cls-2" d="M158.61,140.46c17.36-2.36,34.5-4.69,51.86-7.05-.21,1.5-.28,2.78-.57,4.01-1.53,6.49-3.08,12.96-4.71,19.42-.63,2.5-.74,2.53-3.27,2.46-4.27-.12-8.53-.36-12.8-.48-4.41-.13-8.82-.26-13.23-.23-3.11.02-6.22.3-9.32.48-.65.04-1.29.12-1.92.25-1.04.22-1.46-.35-1.69-1.24-1.32-5.26-2.65-10.53-3.97-15.79-.15-.58-.23-1.17-.36-1.84"/>
      <path class="cls-2" d="M313.42,53.16c-2.15.2-3.99.43-5.84.51-3,.14-6.01.15-9.02.27-3.32.13-6.63.32-9.95.5-2.86.15-5.72.33-8.58.49-3.07.17-6.13.36-9.2.47-.39.01-.99-.36-1.16-.72-1.87-3.68-3.55-7.46-5.52-11.09-2.01-3.69-4.3-7.24-6.43-10.8,2.54-1.04,5.29-2.1,7.99-3.27,3.99-1.73,7.94-3.56,11.93-5.28.51-.22,1.34-.22,1.79.06,3.81,2.37,7.71,4.63,11.29,7.33,4.26,3.22,8.35,6.7,12.28,10.32,2.97,2.73,5.59,5.85,8.35,8.81.63.69,1.23,1.41,2.07,2.39"/>
      <path class="cls-2" d="M112.17,169.3c-2.61.92-5.2,1.77-7.73,2.75-3.72,1.44-7.4,2.96-11.1,4.46-.71.29-1.39.7-2.12.87-.43.11-1.03-.01-1.42-.26-3.71-2.33-7.5-4.55-11.04-7.11-3.6-2.6-7.01-5.47-10.37-8.39-2.75-2.38-5.3-5-8.15-7.71,2.89-.38,5.5-.72,8.1-1.08,2.8-.38,5.59-.8,8.39-1.19,2.72-.37,5.46-.7,8.18-1.06,2.4-.32,4.8-.67,7.2-1,1.84-.25,3.74-.3,5.51-.8,2.12-.6,2.62.7,3.4,2.12,3.32,6.02,6.58,12.09,10.69,17.62.16.22.28.47.45.78"/>
      <path class="cls-2" d="M154.36,43.12c-.99,4.14-1.95,8.09-2.87,12.05-.46,1.96-.8,3.95-1.28,5.9-.08.34-.55.8-.87.82-2.63.14-5.26.18-7.89.28-3.94.16-7.87.32-11.81.51-3.19.15-6.38.32-9.57.5-2.69.15-5.39.33-8.08.49-.41.03-.82,0-1.57,0,4.21-8.91,8.31-17.61,12.45-26.38,10.43,3.43,21,4.65,31.49,5.82"/>
      <path class="cls-2" d="M194.19.61c19.92,4.04,36.34,13.74,50.34,28.54-11.13,3.05-22.23,4.89-33.43,6.22-4.07-12.4-9.82-23.74-16.92-34.76"/>
      <path class="cls-2" d="M107.89,147.39c14.36-1.96,28.51-3.9,42.75-5.85.62,2.75,1.18,5.46,1.85,8.13.79,3.19,1.63,6.37,2.56,9.52.23.8.13,1.03-.65,1.14-2.32.3-4.63.65-6.95.99s-4.64.62-6.95,1.02c-2.96.53-5.92,1.08-8.85,1.75-3.42.78-6.81,1.68-10.2,2.58-.77.2-1.15.18-1.66-.6-2.77-4.15-5.74-8.17-8.49-12.33-1.27-1.93-2.21-4.09-3.41-6.35"/>
      <path class="cls-2" d="M213.43,42.93c4.03-.66,7.98-1.25,11.9-1.98,4.86-.91,9.72-1.9,14.55-2.97,2.92-.65,5.8-1.45,8.66-2.33.8-.25,1.27-.15,1.66.46,2.33,3.59,4.74,7.14,6.94,10.81,1.44,2.4,2.58,4.97,3.84,7.48.24.47.42.97.67,1.57-3.86.16-7.63.3-11.39.47-3.28.15-6.55.33-9.83.5-3.19.16-6.38.33-9.58.5-3.27.17-6.55.33-9.82.5-1.06.06-2.12.22-3.17.21-.32,0-.85-.36-.92-.65-1.21-4.79-2.35-9.59-3.51-14.39-.02-.08.01-.17.01-.18"/>
      <path class="cls-2" d="M205.45,43.54c1.27,5.1,2.49,10.02,3.72,14.99-1.46.15-2.66.34-3.87.39-2.67.12-5.34.16-8.01.27-3.4.14-6.8.32-10.19.5-3.02.16-6.05.34-9.07.49-5.03.26-10.07.5-15.1.76-1.38.07-2.77.21-4.15.28-.17,0-.54-.33-.51-.43,1.29-5.43,2.62-10.86,3.94-16.29.17-.7.64-.82,1.29-.79,5.26.19,10.52.42,15.78.5,5.59.08,11.18.08,16.77-.03,3.1-.06,6.2-.41,9.41-.63"/>
      <path class="cls-2" d="M127.02,30.71c6.41-8.72,14.62-15.44,23.66-21.12,7.04-4.42,14.68-7.57,22.87-8.92-3.11,5.72-6.37,11.26-9.19,17.02-2.41,4.93-4.31,10.12-6.43,15.19-.25.59-.43,1.23-.76,1.77-.17.27-.61.56-.91.54-2.39-.18-4.77-.44-7.16-.68-1.65-.17-3.31-.34-4.96-.55-2.53-.32-5.06-.56-7.57-1.02-3.11-.57-6.18-1.32-9.27-1.99-.07-.01-.12-.09-.29-.24"/>
      <path class="cls-2" d="M241.84,173.05c-14.25,15.34-34.06,23.85-46.81,25.88,1.41-2.43,2.89-4.82,4.21-7.29,1.57-2.94,3.05-5.93,4.48-8.94,1.29-2.7,2.5-5.44,3.65-8.2.84-2.01,1.56-4.08,2.31-6.13.24-.63.45-.89,1.3-.7,1.65.38,3.38.43,5.07.63,2.02.24,4.05.43,6.05.77,3.05.51,6.09,1.12,9.13,1.73,3.49.71,6.96,1.46,10.6,2.23"/>
      <path class="cls-2" d="M126.11,173.22c10.63-2.64,21.08-4.56,31.68-5.69,3.94,11,8.82,21.46,14.89,31.38-18.15-3.69-33.47-12.36-46.57-25.69"/>
      <path class="cls-2" d="M51.73,57.19c2.32-2.86,4.58-5.78,6.98-8.57,2-2.34,3.99-4.74,6.29-6.77,3.94-3.49,8-6.88,12.23-10.03,3.66-2.72,7.61-5.05,11.46-7.51.32-.21.94-.22,1.29-.06,5.04,2.22,10.06,4.48,15.08,6.74.07.03.11.11.28.29-17.81,8.81-35.58,17.6-53.34,26.39-.09-.16-.17-.32-.26-.47"/>
      <path class="cls-2" d="M96.67,19.89c15.32-7.46,31.21-12.25,47.71-15.14-4.36,2.87-8.65,5.8-12.49,9.31-3.15,2.87-6.22,5.83-9.25,8.82-1.44,1.42-2.67,3.03-4.06,4.5-.3.32-.99.61-1.33.49-6.45-2.41-12.88-4.88-19.31-7.35-.37-.14-.71-.34-1.27-.62"/>
      <path class="cls-2" d="M271.19,19.68c-1.65.71-3.15,1.4-4.68,2.02-1.89.77-3.78,1.52-5.69,2.23-2.51.94-5.03,1.86-7.56,2.75-.2.07-.59-.12-.77-.31-1.76-1.85-3.36-3.87-5.26-5.55-3.47-3.06-7.03-6.04-10.73-8.83-3.47-2.62-7.16-4.94-10.7-7.35,1.66-.38,15.31,3.03,22.99,5.65,7.6,2.6,15.09,5.5,22.39,9.39"/>
      <path class="cls-2" d="M268.95,182.23c-14.27,6.82-29.01,11.71-44.4,14.65-.05-.1-.11-.2-.16-.3.71-.45,1.41-.94,2.15-1.36,4.55-2.66,8.87-5.64,12.82-9.15,3.28-2.9,6.66-5.74,9.6-8.96,1.36-1.48,2.28-1.4,3.82-.83,5.22,1.93,10.48,3.76,15.72,5.63.11.04.2.14.45.32"/>
      <path class="cls-2" d="M142.86,196.73c-15.06-3.01-29.57-7.69-43.66-14.58,1.27-.5,2.32-.93,3.38-1.35,1.11-.44,2.2-.92,3.32-1.31,3.34-1.17,6.7-2.28,10.04-3.46,1.1-.4,1.76-.2,2.63.72,2.58,2.74,5.21,5.48,8.1,7.88,3.77,3.13,7.79,5.97,11.76,8.86,1.44,1.05,3.03,1.89,4.55,2.83-.04.13-.07.27-.11.4"/>
      <path class="cls-2" d="M108.44,107.1c-.06.21-.12.43-.18.64-.08-.03-.16-.05-.25-.08.07-.17.13-.35.19-.53.08,0,.16-.01.24-.03"/>
      <path class="cls-2" d="M168.19,86.79c-.38,5.4-.76,10.81-1.15,16.35-2.19.33-4.44.66-6.96,1.04,2.73-6.05,5.3-11.75,7.86-17.44.08.02.17.03.25.05"/>
      <path class="cls-2" d="M217.41,93.17c.63-3.03,1.23-5.96,1.87-9.05,1.36,0,2.85-.05,4.32.02,1.25.05,2.12.99,2.47,2.45.38,1.62-.98,4.85-2.46,5.61-.62.33-1.36.51-2.06.6-1.36.18-2.74.25-4.14.37"/>
      <path class="cls-2" d="M273.02,88.95c.57-2.73,1.11-5.33,1.68-8.04,1.9,0,3.88-.04,5.85.01,1.04.03,1.95.96,2.01,2,.21,3.5-1.16,5.5-5.11,5.73-1.38.08-2.77.18-4.43.3"/>
      <path class="cls-2" d="M341.67,124.09c.48,0,.48-.75,0-.75s-.48.75,0,.75"/>
    </g>
  </g>
</svg>